{"_v":2,"glyphs":{"0":{"ha":572,"x_min":57,"x_max":516,"o":"m 286 -11 l 286 -11 q 212 -11 161 30 q 109 71 83 153 q 57 235 57 359 l 57 359 q 57 474 80 556 q 103 638 154 682 q 205 725 287 725 l 287 725 q 369 725 420 681 q 470 637 493 556 q 516 474 516 359 l 516 359 q 516 266 502 197 q 488 127 460 81 q 431 35 388 12 q 345 -11 286 -11 z m 286 40 l 286 40 q 337 40 371 64 q 404 87 423 130 q 442 173 450 232 q 458 290 458 359 l 458 359 q 458 422 451 479 q 444 535 426 580 q 407 624 374 650 q 340 675 287 675 l 287 675 q 233 675 200 649 q 166 623 148 579 q 129 534 122 478 q 114 421 114 359 l 114 359 q 114 286 123 227 q 132 168 152 126 q 172 84 205 62 q 238 40 286 40 z"},"1":{"ha":572,"x_min":98,"x_max":340,"o":"m 340 714 l 340 0 l 284 0 l 284 531 q 284 573 285 603 q 285 633 286 654 l 286 654 q 277 645 267 636 q 256 627 240 615 l 240 615 l 129 528 l 98 568 l 292 714 l 340 714 z"},"2":{"ha":572,"x_min":54,"x_max":506,"o":"m 506 0 l 54 0 l 54 48 l 260 261 q 311 314 346 356 q 380 398 399 440 q 417 482 417 534 l 417 534 q 417 578 400 610 q 382 641 349 658 q 316 674 272 674 l 272 674 q 224 674 183 658 q 142 641 100 608 l 100 608 l 69 648 q 101 675 135 692 q 168 708 203 717 q 238 725 273 725 l 273 725 q 333 725 379 703 q 424 681 450 639 q 475 597 475 537 l 475 537 q 475 479 454 431 q 433 382 396 336 q 358 290 307 239 l 307 239 l 129 56 l 129 53 l 506 53 l 506 0 z"},"3":{"ha":572,"x_min":46,"x_max":504,"o":"m 244 -11 l 244 -11 q 184 -11 134 0 q 84 11 46 30 l 46 30 l 46 85 q 88 65 141 52 q 193 39 245 39 l 245 39 q 344 39 394 81 q 444 123 444 199 l 444 199 q 444 250 419 283 q 393 315 346 330 q 298 345 231 345 l 231 345 l 155 345 l 155 396 l 232 396 q 287 396 330 413 q 373 430 398 464 q 423 497 423 546 l 423 546 q 423 609 381 642 q 338 675 268 675 l 268 675 q 214 675 170 658 q 125 641 81 610 l 81 610 l 52 651 q 97 685 151 705 q 204 725 268 725 l 268 725 q 329 725 378 706 q 426 687 454 648 q 482 609 482 549 l 482 549 q 482 503 464 467 q 445 431 412 408 q 378 385 332 376 l 332 376 l 332 373 q 415 362 460 318 q 504 274 504 198 l 504 198 q 504 129 472 83 q 439 36 381 13 q 322 -11 244 -11 z"},"4":{"ha":572,"x_min":22,"x_max":552,"o":"m 435 0 l 379 0 l 379 178 l 22 178 l 22 227 l 375 718 l 435 718 l 435 230 l 552 230 l 552 178 l 435 178 l 435 0 z m 326 569 l 82 230 l 379 230 l 379 495 q 379 527 380 552 q 380 577 381 602 q 381 626 382 655 l 382 655 l 379 655 q 368 633 356 613 q 343 593 326 569 l 326 569 z"},"5":{"ha":572,"x_min":68,"x_max":510,"o":"m 250 -11 l 250 -11 q 192 -11 146 0 q 100 11 68 30 l 68 30 l 68 87 q 105 65 154 53 q 202 40 251 40 l 251 40 q 313 40 358 61 q 402 82 427 122 q 451 162 451 218 l 451 218 q 451 297 403 340 q 354 383 259 383 l 259 383 q 224 383 190 378 q 155 373 120 364 l 120 364 l 89 385 l 117 714 l 463 714 l 463 661 l 167 661 l 145 417 q 174 424 206 429 q 238 433 274 433 l 274 433 q 345 433 398 409 q 451 385 481 339 q 510 292 510 222 l 510 222 q 510 148 478 96 q 445 43 387 16 q 328 -11 250 -11 z"},"6":{"ha":572,"x_min":63,"x_max":520,"o":"m 300 -11 l 300 -11 q 236 -11 191 15 q 145 41 117 86 q 89 131 76 188 q 63 244 63 304 l 63 304 q 63 392 77 461 q 90 529 117 579 q 143 629 182 662 q 220 694 269 710 q 318 726 376 726 l 376 726 q 404 726 427 723 q 450 720 469 715 l 469 715 l 469 663 q 451 670 428 674 q 404 677 377 677 l 377 677 q 301 677 245 644 q 188 610 156 537 q 123 464 120 344 l 120 344 l 124 344 q 140 372 166 395 q 192 417 229 431 q 266 444 313 444 l 313 444 q 379 444 426 417 q 472 390 496 341 q 520 292 520 227 l 520 227 q 520 157 495 104 q 469 50 420 20 q 370 -11 300 -11 z m 299 39 l 299 39 q 379 39 421 89 q 463 139 463 227 l 463 227 q 463 306 423 351 q 382 396 303 396 l 303 396 q 248 396 208 374 q 167 352 145 319 q 123 286 123 253 l 123 253 q 123 220 133 184 q 142 147 163 114 q 183 81 217 60 q 251 39 299 39 z"},"7":{"ha":572,"x_min":50,"x_max":515,"o":"m 221 0 l 159 0 l 453 661 l 50 661 l 50 714 l 515 714 l 515 671 l 221 0 z"},"8":{"ha":572,"x_min":58,"x_max":514,"o":"m 285 -11 l 285 -11 q 220 -11 169 10 q 117 31 88 73 q 58 115 58 178 l 58 178 q 58 226 78 263 q 98 299 136 328 q 173 356 226 377 l 226 377 q 183 398 150 423 q 117 448 99 481 q 81 514 81 557 l 81 557 q 81 612 109 650 q 136 687 183 706 q 230 725 286 725 l 286 725 q 345 725 391 707 q 437 688 464 651 q 491 614 491 558 l 491 558 q 491 518 474 486 q 456 454 423 429 q 389 403 340 380 l 340 380 q 391 359 430 332 q 469 305 492 269 q 514 233 514 183 l 514 183 q 514 120 483 77 q 452 33 401 11 q 349 -11 285 -11 z m 284 38 l 284 38 q 358 38 408 74 q 457 109 457 182 l 457 182 q 457 219 441 248 q 424 277 390 301 q 355 324 301 344 l 301 344 l 277 352 q 226 333 190 309 q 153 285 134 254 q 115 222 115 178 l 115 178 q 115 113 161 76 q 206 38 284 38 z m 289 404 l 289 404 q 335 422 368 444 q 400 466 417 494 q 434 521 434 556 l 434 556 q 434 618 393 647 q 351 676 285 676 l 285 676 q 220 676 179 645 q 138 613 138 555 l 138 555 q 138 515 157 488 q 176 461 210 442 q 244 422 289 404 z"},"9":{"ha":572,"x_min":52,"x_max":510,"o":"m 196 -11 l 196 -11 q 172 -11 144 -7 q 116 -4 97 1 l 97 1 l 97 53 q 116 46 142 42 q 168 38 195 38 l 195 38 q 253 38 299 57 q 345 75 379 115 q 412 155 431 218 q 450 281 452 371 l 452 371 l 448 371 q 433 344 407 322 q 380 299 344 286 q 307 272 258 272 l 258 272 q 193 272 147 299 q 101 325 77 374 q 52 423 52 487 l 52 487 q 52 558 78 612 q 104 665 154 696 q 204 726 273 726 l 273 726 q 337 726 382 700 q 427 674 456 630 q 484 585 497 530 q 510 474 510 414 l 510 414 q 510 326 496 257 q 482 187 456 137 q 429 86 391 54 q 353 21 304 5 q 255 -11 196 -11 z m 269 320 l 269 320 q 324 320 365 342 q 405 363 428 396 q 450 429 450 463 l 450 463 q 450 495 441 532 q 431 568 410 601 q 389 634 356 655 q 322 676 273 676 l 273 676 q 194 676 152 626 q 109 576 109 488 l 109 488 q 109 409 150 365 q 190 320 269 320 z"},"\r":{"ha":309,"x_min":0,"x_max":0,"o":""}," ":{"ha":309,"x_min":0,"x_max":0,"o":""},"ഀ":{"ha":0,"x_min":-419,"x_max":-136,"o":"m -419 724 l -419 724 q -419 783 -381 824 q -343 864 -278 864 l -278 864 q -212 864 -174 824 q -136 784 -136 725 l -136 725 q -136 665 -174 625 q -212 585 -278 585 l -278 585 q -344 585 -381 626 q -419 666 -419 724 z m -369 726 l -369 726 q -369 686 -346 659 q -324 631 -279 631 l -279 631 q -231 631 -208 659 q -186 686 -186 726 l -186 726 q -186 764 -209 792 q -232 819 -278 819 l -278 819 q -323 819 -346 792 q -369 764 -369 726 z"},"ഁ":{"ha":0,"x_min":-438,"x_max":-117,"o":"m -278 662 l -278 662 q -355 662 -396 699 q -438 736 -438 808 l -438 808 q -438 819 -436 833 q -435 847 -431 859 l -431 859 l -384 849 q -387 839 -388 828 q -389 817 -389 808 l -389 808 q -389 771 -375 749 q -361 727 -335 718 q -310 708 -278 708 l -278 708 q -243 708 -218 719 q -193 730 -179 753 q -166 775 -166 809 l -166 809 q -166 818 -167 829 q -168 839 -171 849 l -171 849 l -123 859 q -120 847 -118 833 q -117 818 -117 807 l -117 807 q -117 737 -160 700 q -204 662 -278 662 z m -278 769 l -278 769 q -297 769 -306 781 q -316 792 -316 810 l -316 810 q -316 827 -306 839 q -297 851 -278 851 l -278 851 q -259 851 -249 839 q -240 827 -240 810 l -240 810 q -240 792 -249 781 q -259 769 -278 769 z"},"ം":{"ha":432,"x_min":35,"x_max":397,"o":"m 216 -12 l 216 -12 q 161 -12 121 11 q 80 34 58 75 q 35 116 35 171 l 35 171 q 35 226 58 267 q 81 308 122 331 q 163 354 216 354 l 216 354 q 270 354 311 332 q 351 309 374 269 q 397 228 397 172 l 397 172 q 397 116 375 75 q 352 34 311 11 q 270 -12 216 -12 z m 216 307 l 216 307 q 161 307 126 273 q 91 238 91 171 l 91 171 q 91 104 127 70 q 162 35 216 35 l 216 35 q 271 35 307 70 q 342 104 342 172 l 342 172 q 342 239 307 273 q 271 307 216 307 z"},"ഃ":{"ha":324,"x_min":36,"x_max":289,"o":"m 36 435 l 36 435 q 36 489 70 526 q 104 562 162 562 l 162 562 q 220 562 255 526 q 289 490 289 435 l 289 435 q 289 381 255 345 q 220 308 162 308 l 162 308 q 103 308 70 345 q 36 381 36 435 z m 85 436 l 85 436 q 85 401 105 378 q 124 354 162 354 l 162 354 q 201 354 221 378 q 240 401 240 436 l 240 436 q 240 471 221 494 q 201 517 162 517 l 162 517 q 125 517 105 494 q 85 471 85 436 z m 36 115 l 36 115 q 36 169 70 206 q 104 242 162 242 l 162 242 q 220 242 255 206 q 289 170 289 115 l 289 115 q 289 61 255 25 q 220 -12 162 -12 l 162 -12 q 103 -12 70 25 q 36 61 36 115 z m 85 116 l 85 116 q 85 81 105 58 q 124 34 162 34 l 162 34 q 201 34 221 58 q 240 81 240 116 l 240 116 q 240 151 221 174 q 201 197 162 197 l 162 197 q 125 197 105 174 q 85 151 85 116 z"},"ഄ":{"ha":559,"x_min":38,"x_max":521,"o":"m 53 311 l 53 311 l 108 301 q 101 278 98 255 q 95 231 95 207 l 95 207 q 95 131 136 86 q 177 41 279 41 l 279 41 q 382 41 424 86 q 465 131 465 207 l 465 207 q 465 231 462 255 q 459 278 452 301 l 452 301 l 506 311 q 512 290 517 263 q 521 235 521 205 l 521 205 q 521 142 497 94 q 473 46 420 19 q 366 -9 279 -9 l 279 -9 q 193 -9 140 19 q 87 46 63 94 q 38 142 38 205 l 38 205 q 38 235 43 263 q 47 290 53 311 z m 254 165 l 254 397 l 306 397 l 306 165 l 254 165 z"},"അ":{"ha":1445,"x_min":42,"x_max":1403,"o":"m 360 562 l 360 562 q 401 562 447 556 q 492 549 532 533 l 532 533 q 536 532 541 528 q 545 524 549 522 l 549 522 q 593 509 622 487 q 650 464 665 435 q 679 406 679 370 l 679 370 q 679 342 669 317 q 659 292 634 275 q 608 258 564 250 l 564 250 l 567 256 q 627 248 659 215 q 690 182 690 130 l 690 130 q 690 91 672 59 q 654 27 617 8 q 580 -12 520 -12 l 520 -12 q 449 -12 401 20 q 353 51 329 107 q 304 162 304 234 l 304 234 q 304 294 323 348 q 342 401 380 445 q 417 488 473 518 l 473 518 q 477 521 481 524 q 484 526 488 528 l 488 528 q 521 544 560 553 q 599 562 646 562 l 646 562 q 721 562 767 540 q 812 518 838 482 q 864 445 876 399 l 876 399 l 892 263 l 892 0 l 835 0 l 835 295 q 835 365 824 405 q 812 444 786 469 l 786 469 q 764 491 730 504 q 695 516 638 516 l 638 516 q 611 516 586 512 q 560 507 538 500 l 538 500 q 493 485 460 458 q 426 430 404 393 q 381 356 371 316 q 360 276 360 236 l 360 236 q 360 141 401 88 q 441 35 521 35 l 521 35 q 576 35 605 59 q 634 83 634 131 l 634 131 q 634 173 605 201 q 575 228 507 228 l 507 228 l 483 228 l 483 276 l 500 276 q 569 276 596 302 q 623 328 623 370 l 623 370 q 623 425 588 456 q 552 487 493 500 l 493 500 q 456 510 423 513 q 390 515 362 515 l 362 515 q 271 515 214 483 q 156 450 128 396 q 100 341 100 275 l 100 275 q 100 218 116 174 q 131 129 160 95 q 188 61 228 34 l 228 34 l 196 -8 q 156 17 121 56 q 86 95 64 150 q 42 204 42 276 l 42 276 q 42 337 62 389 q 81 441 121 480 q 161 519 221 541 q 280 562 360 562 z m 1206 -12 l 1206 -12 q 1146 -12 1107 16 q 1067 44 1048 91 q 1028 137 1028 192 l 1028 192 q 1028 287 1078 340 q 1128 392 1208 392 l 1208 392 q 1258 392 1295 369 q 1331 346 1355 310 q 1378 274 1386 232 l 1386 232 l 1368 226 q 1358 255 1338 282 q 1317 309 1287 327 q 1257 344 1217 344 l 1217 344 q 1149 344 1116 303 q 1083 262 1083 194 l 1083 194 q 1083 149 1096 113 q 1108 77 1136 57 q 1163 36 1208 36 l 1208 36 q 1252 36 1284 58 q 1315 79 1332 126 q 1348 172 1348 246 l 1348 246 q 1348 257 1347 267 q 1346 276 1345 285 l 1345 285 q 1345 291 1345 299 q 1344 307 1343 313 l 1343 313 q 1335 363 1307 409 q 1278 455 1226 484 q 1173 513 1091 513 l 1091 513 q 1047 513 1013 502 q 978 491 952 468 l 952 468 q 933 451 920 428 q 906 405 899 372 q 892 339 892 291 l 892 291 l 892 233 l 857 402 q 871 449 901 485 q 931 521 978 542 q 1025 562 1091 562 l 1091 562 q 1168 562 1227 539 q 1285 515 1324 472 q 1363 429 1383 371 q 1403 312 1403 243 l 1403 243 q 1403 153 1378 97 q 1352 40 1308 14 q 1263 -12 1206 -12 z"},"ആ":{"ha":1588,"x_min":42,"x_max":1559,"o":"m 360 562 l 360 562 q 401 562 447 556 q 492 549 532 533 l 532 533 q 536 532 541 528 q 545 524 549 522 l 549 522 q 593 509 622 487 q 650 464 665 435 q 679 406 679 370 l 679 370 q 679 342 669 317 q 659 292 634 275 q 608 258 564 250 l 564 250 l 567 256 q 627 248 659 215 q 690 182 690 130 l 690 130 q 690 91 672 59 q 654 27 617 8 q 580 -12 520 -12 l 520 -12 q 449 -12 401 20 q 353 51 329 107 q 304 162 304 234 l 304 234 q 304 294 323 348 q 342 401 380 445 q 417 488 473 518 l 473 518 q 477 521 481 524 q 484 526 488 528 l 488 528 q 521 544 560 553 q 599 562 646 562 l 646 562 q 721 562 767 540 q 812 518 838 482 q 864 445 876 399 l 876 399 l 892 263 l 892 0 l 835 0 l 835 295 q 835 365 824 405 q 812 444 786 469 l 786 469 q 764 491 730 504 q 695 516 638 516 l 638 516 q 611 516 586 512 q 560 507 538 500 l 538 500 q 493 485 460 458 q 426 430 404 393 q 381 356 371 316 q 360 276 360 236 l 360 236 q 360 141 401 88 q 441 35 521 35 l 521 35 q 576 35 605 59 q 634 83 634 131 l 634 131 q 634 173 605 201 q 575 228 507 228 l 507 228 l 483 228 l 483 276 l 500 276 q 569 276 596 302 q 623 328 623 370 l 623 370 q 623 425 588 456 q 552 487 493 500 l 493 500 q 456 510 423 513 q 390 515 362 515 l 362 515 q 271 515 214 483 q 156 450 128 396 q 100 341 100 275 l 100 275 q 100 218 116 174 q 131 129 160 95 q 188 61 228 34 l 228 34 l 196 -8 q 156 17 121 56 q 86 95 64 150 q 42 204 42 276 l 42 276 q 42 337 62 389 q 81 441 121 480 q 161 519 221 541 q 280 562 360 562 z m 1085 562 l 1085 562 q 1165 562 1224 533 q 1282 504 1319 452 q 1356 400 1371 330 l 1371 330 q 1377 305 1380 279 q 1382 252 1382 223 l 1382 223 q 1382 142 1357 90 q 1331 38 1287 13 q 1243 -12 1186 -12 l 1186 -12 q 1123 -12 1085 15 q 1047 41 1030 83 q 1012 124 1012 167 l 1012 167 q 1012 263 1079 317 q 1145 370 1264 370 l 1264 370 q 1277 370 1291 369 q 1305 367 1319 365 l 1319 365 l 1341 363 q 1413 348 1462 308 q 1510 268 1535 210 q 1559 152 1559 86 l 1559 86 q 1559 18 1539 -35 q 1519 -89 1481 -125 q 1443 -162 1389 -181 q 1334 -201 1266 -201 l 1266 -201 q 1214 -201 1172 -192 q 1129 -183 1099 -172 l 1099 -172 l 1118 -125 q 1147 -137 1185 -144 q 1222 -151 1267 -151 l 1267 -151 q 1328 -151 1372 -134 q 1416 -117 1445 -85 q 1474 -54 1488 -10 q 1502 33 1502 86 l 1502 86 q 1502 144 1486 188 q 1470 231 1438 262 q 1406 292 1361 309 l 1361 309 l 1336 313 q 1318 318 1300 320 q 1281 322 1262 322 l 1262 322 q 1204 322 1161 306 q 1117 290 1093 256 q 1069 221 1069 166 l 1069 166 q 1069 136 1080 106 q 1090 76 1116 56 q 1142 36 1187 36 l 1187 36 q 1257 36 1292 86 q 1327 135 1327 224 l 1327 224 q 1327 251 1324 279 q 1321 306 1314 333 l 1314 333 l 1311 350 q 1297 395 1270 432 q 1243 469 1198 491 q 1153 513 1085 513 l 1085 513 q 1046 513 1012 502 q 977 491 951 468 l 951 468 q 932 451 919 428 q 905 405 899 372 q 892 339 892 290 l 892 290 l 892 201 l 854 400 q 869 449 901 486 q 932 522 979 542 q 1025 562 1085 562 z"},"ഇ":{"ha":952,"x_min":43,"x_max":910,"o":"m 317 562 l 317 562 q 378 562 420 547 q 461 532 488 504 q 515 475 531 434 l 531 434 l 517 433 q 541 504 586 533 q 630 562 691 562 l 691 562 q 748 562 789 541 q 830 520 857 483 q 884 446 897 400 q 910 353 910 302 l 910 302 q 910 215 886 157 q 861 98 815 63 l 815 63 q 788 41 754 27 q 719 13 671 7 q 622 0 552 0 l 552 0 l 251 0 q 204 0 178 -4 q 152 -8 137 -21 l 137 -21 q 124 -30 118 -43 q 112 -57 112 -74 l 112 -74 q 112 -92 119 -106 q 125 -120 138 -130 l 138 -130 q 153 -141 178 -146 q 203 -152 247 -152 l 247 -152 l 891 -152 l 891 -201 l 241 -201 q 193 -201 160 -193 q 127 -186 103 -170 l 103 -170 q 80 -154 68 -130 q 56 -107 56 -77 l 56 -77 q 56 -48 66 -25 q 75 -2 96 14 l 96 14 q 110 26 128 34 q 146 41 173 45 q 199 48 237 48 l 237 48 l 545 48 q 618 48 664 56 q 709 63 739 78 q 768 92 789 112 l 789 112 q 824 145 839 192 q 853 239 853 300 l 853 300 q 853 357 836 406 q 819 454 783 484 q 747 513 690 513 l 690 513 q 657 513 634 504 q 610 495 593 476 l 593 476 q 570 451 561 411 q 552 371 552 309 l 552 309 l 552 116 l 496 116 l 496 315 q 496 379 482 417 q 467 455 438 479 l 438 479 q 416 497 388 506 q 360 514 316 514 l 316 514 q 265 514 227 500 q 189 486 163 462 q 136 438 120 409 q 104 379 97 347 l 97 347 q 96 344 97 341 q 98 338 98 336 l 98 336 q 96 329 96 322 q 95 314 95 306 l 95 306 q 95 236 120 196 q 144 156 201 156 l 201 156 q 250 156 274 186 q 298 216 298 259 l 298 259 q 298 284 289 306 q 280 328 259 342 q 238 355 203 355 l 203 355 q 161 355 129 333 q 97 311 72 281 l 72 281 l 58 322 q 73 341 96 359 q 118 377 147 389 q 176 401 211 401 l 211 401 q 261 401 293 381 q 324 361 339 329 q 353 296 353 259 l 353 259 q 353 220 337 186 q 320 151 287 130 q 253 109 200 109 l 200 109 q 150 109 115 133 q 80 156 62 201 q 43 245 43 308 l 43 308 q 43 375 75 433 q 106 491 168 527 q 229 562 317 562 z"},"ഈ":{"ha":1682,"x_min":44,"x_max":1640,"o":"m 318 562 l 318 562 q 379 562 421 547 q 462 532 489 504 q 516 475 532 434 l 532 434 l 518 433 q 542 504 587 533 q 631 562 692 562 l 692 562 q 749 562 790 541 q 831 520 858 483 q 885 446 898 400 q 911 353 911 302 l 911 302 q 911 215 887 157 q 862 98 816 63 l 816 63 q 789 41 755 27 q 720 13 672 7 q 623 0 553 0 l 553 0 l 252 0 q 205 0 179 -4 q 153 -8 138 -21 l 138 -21 q 125 -30 119 -43 q 113 -57 113 -74 l 113 -74 q 113 -92 120 -106 q 126 -120 139 -130 l 139 -130 q 154 -141 179 -146 q 204 -152 248 -152 l 248 -152 l 892 -152 l 892 -201 l 242 -201 q 194 -201 161 -193 q 128 -186 104 -170 l 104 -170 q 81 -154 69 -130 q 57 -107 57 -77 l 57 -77 q 57 -48 67 -25 q 76 -2 97 14 l 97 14 q 111 26 129 34 q 147 41 174 45 q 200 48 238 48 l 238 48 l 546 48 q 619 48 665 56 q 710 63 740 78 q 769 92 790 112 l 790 112 q 825 145 840 192 q 854 239 854 300 l 854 300 q 854 357 837 406 q 820 454 784 484 q 748 513 691 513 l 691 513 q 658 513 635 504 q 611 495 594 476 l 594 476 q 571 451 562 411 q 553 371 553 309 l 553 309 l 553 116 l 497 116 l 497 315 q 497 379 483 417 q 468 455 439 479 l 439 479 q 417 497 389 506 q 361 514 317 514 l 317 514 q 266 514 228 500 q 190 486 164 462 q 137 438 121 409 q 105 379 98 347 l 98 347 q 97 344 98 341 q 99 338 99 336 l 99 336 q 97 329 97 322 q 96 314 96 306 l 96 306 q 96 236 121 196 q 145 156 202 156 l 202 156 q 251 156 275 186 q 299 216 299 259 l 299 259 q 299 284 290 306 q 281 328 260 342 q 239 355 204 355 l 204 355 q 162 355 130 333 q 98 311 73 281 l 73 281 l 59 322 q 74 341 97 359 q 119 377 148 389 q 177 401 212 401 l 212 401 q 262 401 294 381 q 325 361 340 329 q 354 296 354 259 l 354 259 q 354 220 338 186 q 321 151 288 130 q 254 109 201 109 l 201 109 q 151 109 116 133 q 81 156 63 201 q 44 245 44 308 l 44 308 q 44 375 76 433 q 107 491 169 527 q 230 562 318 562 z m 1450 562 l 1450 562 q 1511 562 1553 530 q 1595 498 1618 440 q 1640 381 1640 303 l 1640 303 q 1640 200 1611 130 q 1582 60 1525 24 q 1467 -12 1382 -12 l 1382 -12 q 1317 -12 1271 1 q 1224 13 1178 36 l 1178 36 l 1206 82 q 1247 60 1287 49 q 1326 37 1379 37 l 1379 37 q 1457 37 1501 71 q 1545 104 1564 164 q 1582 224 1582 303 l 1582 303 q 1582 410 1546 462 q 1510 513 1449 513 l 1449 513 q 1418 513 1397 503 q 1376 492 1363 473 l 1363 473 q 1347 452 1342 419 q 1336 386 1336 340 l 1336 340 l 1336 256 l 1280 256 l 1280 336 q 1280 387 1273 422 q 1266 456 1249 476 l 1249 476 q 1235 495 1214 504 q 1193 513 1167 513 l 1167 513 q 1108 513 1078 474 q 1048 434 1048 374 l 1048 374 q 1048 342 1053 316 q 1057 290 1065 263 l 1065 263 l 1012 252 q 1002 281 997 315 q 991 348 991 378 l 991 378 q 991 429 1011 471 q 1030 513 1069 538 q 1108 562 1166 562 l 1166 562 q 1220 562 1257 535 q 1294 508 1312 448 l 1312 448 l 1301 446 q 1320 508 1359 535 q 1398 562 1450 562 z"},"ഉ":{"ha":667,"x_min":43,"x_max":625,"o":"m 334 562 l 334 562 q 408 562 463 540 q 517 518 553 480 q 589 442 607 393 q 625 344 625 289 l 625 289 q 625 210 602 154 q 579 98 528 64 l 528 64 q 495 41 457 27 q 419 12 370 6 q 321 0 255 0 l 255 0 l 250 0 q 204 0 178 -4 q 152 -8 137 -21 l 137 -21 q 124 -30 118 -43 q 112 -57 112 -74 l 112 -74 q 112 -92 119 -106 q 125 -120 138 -130 l 138 -130 q 153 -141 178 -146 q 203 -152 247 -152 l 247 -152 l 605 -152 l 605 -201 l 241 -201 q 193 -201 160 -193 q 127 -186 103 -170 l 103 -170 q 80 -154 68 -130 q 56 -107 56 -77 l 56 -77 q 56 -48 66 -25 q 75 -2 96 14 l 96 14 q 117 31 149 40 q 180 48 237 48 l 237 48 l 247 48 q 316 48 363 55 q 409 61 441 75 q 473 88 497 107 l 497 107 q 536 136 552 182 q 567 227 567 286 l 567 286 q 567 334 553 375 q 539 416 510 448 q 481 479 437 497 q 392 514 331 514 l 331 514 q 274 514 233 500 q 192 485 164 461 q 136 437 120 407 q 104 377 97 347 l 97 347 q 97 344 98 341 q 98 338 98 336 l 98 336 q 96 329 96 322 q 95 314 95 306 l 95 306 q 95 236 120 196 q 144 156 201 156 l 201 156 q 250 156 274 186 q 298 216 298 259 l 298 259 q 298 284 289 306 q 280 328 259 342 q 238 355 203 355 l 203 355 q 161 355 129 333 q 97 311 72 281 l 72 281 l 58 322 q 73 341 96 359 q 118 377 147 389 q 176 401 211 401 l 211 401 q 261 401 293 381 q 324 361 339 329 q 353 296 353 259 l 353 259 q 353 220 337 186 q 320 151 287 130 q 253 109 200 109 l 200 109 q 150 109 115 133 q 80 156 62 201 q 43 245 43 308 l 43 308 q 43 358 61 404 q 79 449 116 485 q 152 520 207 541 q 262 562 334 562 z"},"ഊ":{"ha":1396,"x_min":44,"x_max":1353,"o":"m 335 562 l 335 562 q 409 562 464 540 q 518 518 554 480 q 590 442 608 393 q 626 344 626 289 l 626 289 q 626 210 603 154 q 580 98 529 64 l 529 64 q 496 41 458 27 q 420 12 371 6 q 322 0 256 0 l 256 0 l 251 0 q 205 0 179 -4 q 153 -8 138 -21 l 138 -21 q 125 -30 119 -43 q 113 -57 113 -74 l 113 -74 q 113 -92 120 -106 q 126 -120 139 -130 l 139 -130 q 154 -141 179 -146 q 204 -152 248 -152 l 248 -152 l 606 -152 l 606 -201 l 242 -201 q 194 -201 161 -193 q 128 -186 104 -170 l 104 -170 q 81 -154 69 -130 q 57 -107 57 -77 l 57 -77 q 57 -48 67 -25 q 76 -2 97 14 l 97 14 q 118 31 150 40 q 181 48 238 48 l 238 48 l 248 48 q 317 48 364 55 q 410 61 442 75 q 474 88 498 107 l 498 107 q 537 136 553 182 q 568 227 568 286 l 568 286 q 568 334 554 375 q 540 416 511 448 q 482 479 438 497 q 393 514 332 514 l 332 514 q 275 514 234 500 q 193 485 165 461 q 137 437 121 407 q 105 377 98 347 l 98 347 q 98 344 99 341 q 99 338 99 336 l 99 336 q 97 329 97 322 q 96 314 96 306 l 96 306 q 96 236 121 196 q 145 156 202 156 l 202 156 q 251 156 275 186 q 299 216 299 259 l 299 259 q 299 284 290 306 q 281 328 260 342 q 239 355 204 355 l 204 355 q 162 355 130 333 q 98 311 73 281 l 73 281 l 59 322 q 74 341 97 359 q 119 377 148 389 q 177 401 212 401 l 212 401 q 262 401 294 381 q 325 361 340 329 q 354 296 354 259 l 354 259 q 354 220 338 186 q 321 151 288 130 q 254 109 201 109 l 201 109 q 151 109 116 133 q 81 156 63 201 q 44 245 44 308 l 44 308 q 44 358 62 404 q 80 449 117 485 q 153 520 208 541 q 263 562 335 562 z m 1163 562 l 1163 562 q 1224 562 1266 530 q 1308 498 1331 440 q 1353 381 1353 303 l 1353 303 q 1353 200 1324 130 q 1295 60 1238 24 q 1180 -12 1095 -12 l 1095 -12 q 1030 -12 984 1 q 937 13 891 36 l 891 36 l 919 82 q 960 60 1000 49 q 1039 37 1092 37 l 1092 37 q 1170 37 1214 71 q 1258 104 1277 164 q 1295 224 1295 303 l 1295 303 q 1295 410 1259 462 q 1223 513 1162 513 l 1162 513 q 1131 513 1110 503 q 1089 492 1076 473 l 1076 473 q 1060 452 1055 419 q 1049 386 1049 340 l 1049 340 l 1049 256 l 993 256 l 993 336 q 993 387 986 422 q 979 456 962 476 l 962 476 q 948 495 927 504 q 906 513 880 513 l 880 513 q 821 513 791 474 q 761 434 761 374 l 761 374 q 761 342 766 316 q 770 290 778 263 l 778 263 l 725 252 q 715 281 710 315 q 704 348 704 378 l 704 378 q 704 429 724 471 q 743 513 782 538 q 821 562 879 562 l 879 562 q 933 562 970 535 q 1007 508 1025 448 l 1025 448 l 1014 446 q 1033 508 1072 535 q 1111 562 1163 562 z"},"ഋ":{"ha":836,"x_min":39,"x_max":797,"o":"m 627 562 l 627 562 q 706 562 752 508 q 797 454 797 364 l 797 364 q 797 293 774 244 q 751 194 708 161 l 708 161 q 664 126 601 113 q 538 99 445 99 l 445 99 l 388 99 q 329 99 284 104 q 238 109 203 121 q 168 132 139 152 l 139 152 q 92 186 66 239 q 39 291 39 362 l 39 362 q 39 422 61 467 q 82 512 122 537 q 161 562 216 562 l 216 562 q 266 562 300 541 q 334 520 351 486 q 368 451 368 409 l 368 409 q 368 369 352 336 q 335 303 302 284 q 268 264 218 264 l 218 264 q 178 264 148 276 q 118 287 96 305 q 74 323 57 342 l 57 342 l 73 384 q 86 368 104 351 q 122 334 148 323 q 174 311 211 311 l 211 311 q 264 311 289 339 q 314 366 314 410 l 314 410 q 314 454 290 484 q 265 514 214 514 l 214 514 q 172 514 145 495 q 117 475 104 441 q 91 407 91 364 l 91 364 q 91 355 92 347 q 93 338 94 329 l 94 329 l 91 318 q 102 269 127 235 q 151 200 190 179 q 228 158 283 149 q 337 140 408 140 l 408 140 l 423 140 q 498 140 554 150 q 610 159 649 180 q 687 201 711 235 q 734 269 745 318 l 745 318 l 742 329 q 743 338 744 346 q 745 354 745 359 l 745 359 q 745 406 732 441 q 719 476 693 495 q 666 514 625 514 l 625 514 q 572 514 547 484 q 522 454 522 410 l 522 410 q 522 366 547 339 q 572 311 625 311 l 625 311 q 662 311 688 322 q 714 333 732 350 q 750 366 763 381 l 763 381 l 779 341 q 763 322 741 305 q 718 287 688 276 q 658 264 618 264 l 618 264 q 568 264 534 284 q 500 303 484 337 q 468 370 468 410 l 468 410 q 468 451 486 486 q 503 521 539 542 q 574 562 627 562 z m 419 -208 l 419 -208 q 298 -208 221 -189 q 144 -171 108 -132 q 71 -94 71 -33 l 71 -33 q 71 12 95 43 q 118 73 159 91 q 200 109 254 117 q 308 124 368 124 l 368 124 l 465 124 q 527 124 582 117 q 636 109 677 91 q 718 73 742 42 q 765 11 765 -35 l 765 -35 q 765 -91 731 -129 q 696 -168 621 -188 q 545 -208 419 -208 z m 419 -159 l 419 -159 q 527 -159 590 -145 q 653 -131 681 -103 q 708 -75 708 -34 l 708 -34 q 708 2 689 26 q 669 50 632 64 q 595 78 542 85 q 488 91 420 91 l 420 91 l 412 91 q 322 91 259 79 q 195 67 162 40 q 128 13 128 -33 l 128 -33 q 128 -76 156 -103 q 183 -131 247 -145 q 310 -159 419 -159 z"},"ഌ":{"ha":1128,"x_min":45,"x_max":1086,"o":"m 344 562 l 344 562 q 430 562 481 526 q 532 490 558 425 l 558 425 l 566 381 l 575 254 l 575 0 l 519 0 l 519 309 q 519 377 504 416 q 489 454 462 477 l 462 477 q 439 496 412 505 q 385 513 343 513 l 343 513 q 268 513 213 477 q 158 440 129 378 q 99 315 99 236 l 99 236 l 99 227 q 99 163 115 121 q 131 78 161 57 q 190 36 230 36 l 230 36 q 258 36 281 49 q 303 61 316 87 q 329 112 329 153 l 329 153 q 329 205 302 236 q 274 267 222 267 l 222 267 q 179 267 141 246 q 103 224 77 195 l 77 195 l 67 239 q 99 276 142 296 q 185 315 230 315 l 230 315 q 274 315 309 297 q 343 279 364 244 q 384 209 384 157 l 384 157 q 384 102 364 65 q 344 27 310 8 q 275 -12 229 -12 l 229 -12 q 180 -12 138 13 q 96 38 71 92 q 45 146 45 233 l 45 233 q 45 336 84 410 q 122 483 190 523 q 257 562 344 562 z m 890 -12 l 890 -12 q 829 -12 790 16 q 750 44 731 91 q 711 137 711 192 l 711 192 q 711 287 761 340 q 811 392 892 392 l 892 392 q 941 392 978 369 q 1014 346 1038 310 q 1061 274 1070 232 l 1070 232 l 1051 226 q 1042 255 1022 282 q 1001 309 971 327 q 940 344 901 344 l 901 344 q 833 344 800 303 q 767 262 767 194 l 767 194 q 767 149 780 113 q 792 77 819 57 q 846 36 891 36 l 891 36 q 936 36 967 58 q 998 79 1015 126 q 1032 172 1032 246 l 1032 246 q 1032 257 1031 267 q 1030 276 1029 285 l 1029 285 q 1028 291 1028 299 q 1028 307 1026 313 l 1026 313 q 1018 363 990 409 q 962 455 910 484 q 857 513 775 513 l 775 513 q 731 513 696 502 q 661 491 635 468 l 635 468 q 616 451 603 428 q 589 405 582 372 q 575 339 575 291 l 575 291 l 575 233 l 540 402 q 554 449 584 485 q 614 521 662 542 q 709 562 774 562 l 774 562 q 851 562 910 539 q 968 515 1008 472 q 1047 429 1067 371 q 1086 312 1086 243 l 1086 243 q 1086 153 1061 97 q 1035 40 991 14 q 947 -12 890 -12 z"},"എ":{"ha":1215,"x_min":35,"x_max":1169,"o":"m 215 337 l 215 337 q 274 337 314 314 q 354 290 375 251 q 396 212 396 166 l 396 166 q 396 122 381 89 q 366 55 340 34 l 340 34 l 331 48 l 834 48 l 834 0 l 310 0 l 289 37 q 315 63 328 92 q 341 120 341 158 l 341 158 q 341 218 308 254 q 274 289 215 289 l 215 289 q 176 289 148 272 q 120 254 106 225 q 91 196 91 162 l 91 162 q 91 120 107 89 q 123 58 157 32 l 157 32 l 126 -7 q 85 25 60 65 q 35 105 35 163 l 35 163 q 35 212 58 252 q 80 291 121 314 q 162 337 215 337 z m 865 562 l 865 562 q 941 562 998 535 q 1054 508 1093 457 q 1131 406 1150 335 q 1169 264 1169 177 l 1169 177 q 1169 104 1153 32 q 1136 -41 1102 -107 q 1067 -174 1014 -228 l 1014 -228 l 974 -193 q 1021 -144 1051 -85 q 1081 -26 1096 41 q 1111 107 1111 177 l 1111 177 q 1111 244 1098 305 q 1085 365 1056 412 q 1027 459 980 486 q 932 513 863 513 l 863 513 q 781 513 725 468 q 669 422 640 338 q 611 253 611 136 l 611 136 q 611 109 612 84 q 613 58 615 35 l 615 35 q 615 31 616 28 q 616 24 617 20 l 617 20 q 624 -51 644 -95 q 663 -140 692 -160 q 720 -180 754 -180 l 754 -180 q 783 -180 799 -164 l 799 -164 q 812 -153 818 -131 q 823 -109 823 -75 l 823 -75 l 823 411 l 880 411 l 880 -66 q 880 -116 870 -147 q 860 -179 838 -199 l 838 -199 q 823 -212 803 -220 q 782 -228 755 -228 l 755 -228 q 697 -228 651 -191 q 605 -154 579 -72 q 553 9 553 141 l 553 141 q 553 238 574 316 q 595 394 636 449 q 676 504 734 533 q 791 562 865 562 z"},"ഏ":{"ha":1213,"x_min":35,"x_max":1180,"o":"m 215 337 l 215 337 q 274 337 314 314 q 354 290 375 251 q 396 212 396 166 l 396 166 q 396 122 381 89 q 366 55 340 34 l 340 34 l 331 48 l 834 48 l 834 0 l 310 0 l 289 37 q 315 63 328 92 q 341 120 341 158 l 341 158 q 341 218 308 254 q 274 289 215 289 l 215 289 q 176 289 148 271 q 120 253 106 225 q 91 196 91 162 l 91 162 q 91 120 107 89 q 123 58 157 32 l 157 32 l 126 -7 q 85 25 60 65 q 35 105 35 163 l 35 163 q 35 212 58 252 q 80 291 121 314 q 162 337 215 337 z m 909 562 l 909 562 q 977 562 1027 544 q 1077 526 1109 494 q 1140 462 1155 421 q 1170 380 1170 334 l 1170 334 q 1170 284 1153 245 q 1135 206 1101 179 q 1067 151 1017 137 l 1017 137 l 1019 143 q 1092 131 1136 85 q 1180 39 1180 -41 l 1180 -41 q 1180 -103 1158 -144 q 1135 -186 1094 -207 q 1053 -228 998 -228 l 998 -228 q 980 -228 959 -226 q 937 -224 921 -220 l 921 -220 l 933 -173 q 946 -176 964 -177 q 981 -179 995 -179 l 995 -179 q 1035 -179 1064 -164 q 1092 -149 1108 -118 q 1123 -87 1123 -41 l 1123 -41 q 1123 26 1082 69 q 1041 112 960 113 l 960 113 l 960 161 q 1009 172 1043 193 q 1077 214 1095 249 q 1113 284 1113 334 l 1113 334 q 1113 381 1093 422 q 1073 462 1028 488 q 983 513 908 513 l 908 513 q 805 513 739 465 q 673 417 642 332 q 611 247 611 136 l 611 136 q 611 109 612 84 q 613 58 615 35 l 615 35 q 615 31 616 28 q 616 24 617 20 l 617 20 q 624 -51 644 -95 q 663 -140 692 -160 q 720 -180 754 -180 l 754 -180 q 783 -180 799 -164 l 799 -164 q 813 -153 818 -131 q 823 -109 823 -75 l 823 -75 l 823 411 l 880 411 l 880 -66 q 880 -116 870 -147 q 860 -179 838 -199 l 838 -199 q 823 -212 803 -220 q 782 -228 755 -228 l 755 -228 q 697 -228 651 -191 q 605 -154 579 -72 q 553 9 553 141 l 553 141 q 553 232 575 309 q 597 386 642 443 q 686 500 753 531 q 820 562 909 562 z"},"ഐ":{"ha":1902,"x_min":41,"x_max":1856,"o":"m 226 -12 l 226 -12 q 176 -12 134 13 q 92 38 67 91 q 41 144 41 229 l 41 229 q 41 307 66 369 q 91 431 135 474 q 179 517 237 540 q 294 562 358 562 l 358 562 q 429 562 483 541 q 537 519 573 481 q 608 443 626 391 q 644 339 644 279 l 644 279 q 644 207 623 154 q 602 100 567 61 q 532 21 489 -8 l 489 -8 l 457 34 q 492 57 522 90 q 551 123 569 169 q 586 214 586 274 l 586 274 q 586 343 561 397 q 535 451 484 482 q 433 513 356 513 l 356 513 q 283 513 224 477 q 165 441 130 377 q 95 312 95 227 l 95 227 q 95 162 111 120 q 127 77 157 57 q 187 36 227 36 l 227 36 q 255 36 277 49 q 299 61 313 87 q 326 113 326 154 l 326 154 q 326 204 298 236 q 270 267 218 267 l 218 267 q 175 267 137 246 q 99 224 73 195 l 73 195 l 63 239 q 95 276 138 296 q 181 315 226 315 l 226 315 q 270 315 305 297 q 340 279 361 244 q 381 209 381 157 l 381 157 q 381 102 361 65 q 341 27 306 8 q 271 -12 226 -12 z m 902 337 l 902 337 q 961 337 1001 314 q 1041 290 1062 251 q 1083 212 1083 166 l 1083 166 q 1083 122 1068 89 q 1053 55 1027 34 l 1027 34 l 1018 48 l 1521 48 l 1521 0 l 997 0 l 976 37 q 1002 63 1015 92 q 1028 120 1028 158 l 1028 158 q 1028 218 995 254 q 961 289 902 289 l 902 289 q 863 289 835 272 q 807 254 793 225 q 778 196 778 162 l 778 162 q 778 120 794 89 q 810 58 844 32 l 844 32 l 813 -7 q 772 25 747 65 q 722 105 722 163 l 722 163 q 722 212 745 252 q 767 291 808 314 q 849 337 902 337 z m 1552 562 l 1552 562 q 1628 562 1685 535 q 1741 508 1780 457 q 1818 406 1837 335 q 1856 264 1856 177 l 1856 177 q 1856 104 1840 32 q 1823 -41 1789 -107 q 1754 -174 1701 -228 l 1701 -228 l 1661 -193 q 1708 -144 1738 -85 q 1768 -26 1783 41 q 1798 107 1798 177 l 1798 177 q 1798 244 1785 305 q 1772 365 1743 412 q 1714 459 1667 486 q 1619 513 1550 513 l 1550 513 q 1468 513 1412 468 q 1356 422 1327 338 q 1298 253 1298 136 l 1298 136 q 1298 109 1299 84 q 1300 58 1302 35 l 1302 35 q 1302 31 1303 28 q 1303 24 1304 20 l 1304 20 q 1311 -51 1331 -95 q 1350 -140 1379 -160 q 1407 -180 1441 -180 l 1441 -180 q 1470 -180 1486 -164 l 1486 -164 q 1499 -153 1505 -131 q 1510 -109 1510 -75 l 1510 -75 l 1510 411 l 1567 411 l 1567 -66 q 1567 -116 1557 -147 q 1547 -179 1525 -199 l 1525 -199 q 1510 -212 1490 -220 q 1469 -228 1442 -228 l 1442 -228 q 1384 -228 1338 -191 q 1292 -154 1266 -72 q 1240 9 1240 141 l 1240 141 q 1240 238 1261 316 q 1282 394 1323 449 q 1363 504 1421 533 q 1478 562 1552 562 z"},"ഒ":{"ha":724,"x_min":43,"x_max":684,"o":"m 431 562 l 431 562 q 521 562 574 540 q 626 518 650 482 q 673 445 673 401 l 673 401 q 673 370 661 343 q 648 316 620 297 q 591 277 542 269 l 542 269 l 540 277 q 611 267 648 229 q 684 191 684 136 l 684 136 q 684 67 642 28 q 599 -11 520 -11 l 520 -11 q 492 -11 467 -7 q 442 -4 424 0 l 424 0 l 436 48 q 456 43 475 40 q 493 37 514 37 l 514 37 q 572 37 600 62 q 627 86 627 137 l 627 137 q 627 164 617 185 q 606 205 586 219 l 586 219 q 566 234 539 242 q 512 249 471 249 l 471 249 l 452 249 l 452 297 l 473 297 q 515 297 545 306 q 574 315 591 332 l 591 332 q 604 345 610 362 q 616 378 616 398 l 616 398 q 616 449 573 481 q 529 513 431 513 l 431 513 q 350 513 288 491 q 225 469 183 430 q 140 391 118 341 q 96 290 96 232 l 96 232 l 96 225 q 96 162 113 120 q 129 78 159 57 q 188 36 228 36 l 228 36 q 256 36 279 49 q 301 61 314 87 q 327 113 327 153 l 327 153 q 327 204 299 236 q 271 267 220 267 l 220 267 q 179 267 143 248 q 107 228 83 202 l 83 202 l 82 256 q 114 285 152 300 q 190 315 227 315 l 227 315 q 272 315 307 297 q 341 279 362 244 q 382 209 382 157 l 382 157 q 382 102 362 65 q 342 27 307 8 q 272 -12 227 -12 l 227 -12 q 177 -12 135 13 q 93 38 68 91 q 43 144 43 228 l 43 228 q 43 299 69 360 q 94 421 144 467 q 193 512 266 537 q 338 562 431 562 z"},"ഓ":{"ha":1200,"x_min":43,"x_max":1156,"o":"m 431 562 l 431 562 q 521 562 574 540 q 626 518 650 482 q 673 445 673 401 l 673 401 q 673 370 661 343 q 648 316 620 297 q 591 277 542 269 l 542 269 l 540 277 q 611 267 648 229 q 684 191 684 136 l 684 136 q 684 67 642 28 q 599 -11 520 -11 l 520 -11 q 492 -11 467 -7 q 442 -4 424 0 l 424 0 l 436 48 q 456 43 475 40 q 493 37 514 37 l 514 37 q 572 37 600 62 q 627 86 627 137 l 627 137 q 627 164 617 185 q 606 205 586 219 l 586 219 q 566 234 539 242 q 512 249 471 249 l 471 249 l 452 249 l 452 297 l 473 297 q 515 297 545 306 q 574 315 591 332 l 591 332 q 604 345 610 362 q 616 378 616 398 l 616 398 q 616 449 573 481 q 529 513 431 513 l 431 513 q 350 513 288 491 q 225 469 183 430 q 140 391 118 341 q 96 290 96 232 l 96 232 l 96 225 q 96 162 113 120 q 129 78 159 57 q 188 36 228 36 l 228 36 q 256 36 279 49 q 301 61 314 87 q 327 113 327 153 l 327 153 q 327 204 299 236 q 271 267 220 267 l 220 267 q 179 267 143 248 q 107 228 83 202 l 83 202 l 82 256 q 114 285 152 300 q 190 315 227 315 l 227 315 q 272 315 307 297 q 341 279 362 244 q 382 209 382 157 l 382 157 q 382 102 362 65 q 342 27 307 8 q 272 -12 227 -12 l 227 -12 q 177 -12 135 13 q 93 38 68 91 q 43 144 43 228 l 43 228 q 43 299 69 360 q 94 421 144 467 q 193 512 266 537 q 338 562 431 562 z m 1156 277 l 1156 277 q 1156 217 1145 165 q 1133 112 1108 73 q 1082 33 1041 11 q 1000 -12 942 -12 l 942 -12 q 896 -12 862 3 q 828 18 805 43 q 781 68 767 100 q 752 131 744 165 l 744 165 l 800 176 q 809 140 825 108 q 841 76 869 56 q 897 36 941 36 l 941 36 q 998 36 1033 67 q 1067 97 1083 152 q 1099 206 1099 277 l 1099 277 q 1099 347 1083 401 q 1067 454 1033 484 q 999 514 946 514 l 946 514 q 904 514 876 494 q 848 474 831 443 q 813 411 803 376 l 803 376 l 747 388 q 757 421 773 453 q 789 484 814 509 q 838 533 872 548 q 905 562 949 562 l 949 562 q 1006 562 1046 539 q 1085 516 1110 476 q 1134 436 1145 385 q 1156 333 1156 277 z"},"ഔ":{"ha":1450,"x_min":43,"x_max":1407,"o":"m 431 562 l 431 562 q 521 562 574 540 q 626 518 650 482 q 673 445 673 401 l 673 401 q 673 370 661 343 q 648 316 620 297 q 591 277 542 269 l 542 269 l 540 277 q 611 267 648 229 q 684 191 684 136 l 684 136 q 684 67 642 28 q 599 -11 520 -11 l 520 -11 q 492 -11 467 -7 q 442 -4 424 0 l 424 0 l 436 48 q 456 43 475 40 q 493 37 514 37 l 514 37 q 572 37 600 62 q 627 86 627 137 l 627 137 q 627 164 617 185 q 606 205 586 219 l 586 219 q 566 234 539 242 q 512 249 471 249 l 471 249 l 452 249 l 452 297 l 473 297 q 515 297 545 306 q 574 315 591 332 l 591 332 q 604 345 610 362 q 616 378 616 398 l 616 398 q 616 449 573 481 q 529 513 431 513 l 431 513 q 350 513 288 491 q 225 469 183 430 q 140 391 118 341 q 96 290 96 232 l 96 232 l 96 225 q 96 162 113 120 q 129 78 159 57 q 188 36 228 36 l 228 36 q 256 36 279 49 q 301 61 314 87 q 327 113 327 153 l 327 153 q 327 204 299 236 q 271 267 220 267 l 220 267 q 179 267 143 248 q 107 228 83 202 l 83 202 l 82 256 q 114 285 152 300 q 190 315 227 315 l 227 315 q 272 315 307 297 q 341 279 362 244 q 382 209 382 157 l 382 157 q 382 102 362 65 q 342 27 307 8 q 272 -12 227 -12 l 227 -12 q 177 -12 135 13 q 93 38 68 91 q 43 144 43 228 l 43 228 q 43 299 69 360 q 94 421 144 467 q 193 512 266 537 q 338 562 431 562 z m 1217 562 l 1217 562 q 1278 562 1320 530 q 1362 498 1385 440 q 1407 381 1407 303 l 1407 303 q 1407 200 1378 130 q 1349 60 1292 24 q 1234 -12 1149 -12 l 1149 -12 q 1084 -12 1038 1 q 991 13 945 36 l 945 36 l 973 82 q 1014 60 1054 49 q 1093 37 1146 37 l 1146 37 q 1224 37 1268 71 q 1312 104 1331 164 q 1349 224 1349 303 l 1349 303 q 1349 410 1313 462 q 1277 513 1216 513 l 1216 513 q 1185 513 1164 503 q 1143 492 1130 473 l 1130 473 q 1114 452 1109 419 q 1103 386 1103 340 l 1103 340 l 1103 256 l 1047 256 l 1047 336 q 1047 387 1040 422 q 1033 456 1016 476 l 1016 476 q 1002 495 981 504 q 960 513 934 513 l 934 513 q 875 513 845 474 q 815 434 815 374 l 815 374 q 815 342 820 316 q 824 290 832 263 l 832 263 l 779 252 q 769 281 764 315 q 758 348 758 378 l 758 378 q 758 429 778 471 q 797 513 836 538 q 875 562 933 562 l 933 562 q 987 562 1024 535 q 1061 508 1079 448 l 1079 448 l 1068 446 q 1087 508 1126 535 q 1165 562 1217 562 z"},"ക":{"ha":1006,"x_min":35,"x_max":971,"o":"m 204 -12 l 204 -12 q 123 -12 79 30 q 35 72 35 147 l 35 147 q 35 190 54 222 q 72 253 102 272 l 102 272 q 127 289 158 299 q 189 308 230 312 q 271 315 326 315 l 326 315 l 690 315 q 773 315 824 305 q 874 295 911 269 l 911 269 q 939 249 955 220 q 971 190 971 146 l 971 146 q 971 74 930 31 q 888 -12 807 -12 l 807 -12 q 784 -12 759 -9 q 734 -6 710 1 l 710 1 l 723 47 q 741 42 761 39 q 781 36 801 36 l 801 36 q 862 36 889 65 q 915 94 915 145 l 915 145 q 915 177 903 198 q 891 219 872 233 l 872 233 q 840 255 796 261 q 751 267 688 267 l 688 267 l 322 267 q 253 267 210 261 q 166 255 134 233 l 134 233 q 115 220 104 199 q 92 177 92 147 l 92 147 q 92 106 107 82 q 122 57 149 47 q 175 36 207 36 l 207 36 q 246 36 280 49 q 313 61 353 90 l 353 90 l 387 53 q 359 33 332 19 q 304 4 274 -4 q 243 -12 204 -12 z m 507 562 l 507 562 q 582 562 630 526 q 677 490 700 427 q 723 363 723 277 l 723 277 q 723 180 697 116 q 670 51 622 20 q 573 -12 507 -12 l 507 -12 q 456 -12 417 7 q 378 25 351 58 l 351 58 q 319 97 304 154 q 289 211 289 277 l 289 277 q 289 411 347 487 q 405 562 507 562 z m 507 514 l 507 514 q 426 514 386 453 q 345 392 345 276 l 345 276 q 345 196 364 143 q 383 89 419 63 q 454 36 504 36 l 504 36 q 556 36 593 61 q 629 86 648 140 q 667 193 667 277 l 667 277 q 667 359 649 412 q 630 464 595 489 q 559 514 507 514 z"},"ഖ":{"ha":971,"x_min":43,"x_max":896,"o":"m 364 562 l 364 562 q 435 562 489 541 q 542 519 578 481 q 614 443 632 391 q 649 339 649 279 l 649 279 q 649 218 634 173 q 618 128 595 96 q 571 63 545 40 l 545 40 l 550 0 l 496 0 l 473 38 q 503 62 530 94 q 557 126 574 170 q 591 214 591 274 l 591 274 q 591 343 566 397 q 540 451 489 482 q 438 513 362 513 l 362 513 q 284 513 224 476 q 164 439 130 376 q 96 313 96 233 l 96 233 l 96 222 q 96 160 113 119 q 129 77 159 57 q 188 36 228 36 l 228 36 q 256 36 279 49 q 301 61 314 87 q 327 113 327 154 l 327 154 q 327 204 299 236 q 271 267 220 267 l 220 267 q 179 267 143 248 q 107 228 83 202 l 83 202 l 82 256 q 114 285 152 300 q 190 315 227 315 l 227 315 q 272 315 307 297 q 341 279 362 244 q 382 209 382 157 l 382 157 q 382 102 362 65 q 342 27 307 8 q 272 -12 227 -12 l 227 -12 q 177 -12 135 13 q 93 38 68 91 q 43 143 43 227 l 43 227 q 43 330 85 405 q 127 480 200 521 q 273 562 364 562 z m 840 550 l 896 550 l 896 0 l 520 0 l 523 48 l 840 48 l 840 550 z"},"ഗ":{"ha":857,"x_min":42,"x_max":815,"o":"m 597 562 l 597 562 q 664 562 713 529 q 762 496 789 435 q 815 374 815 291 l 815 291 q 815 221 797 167 q 778 113 745 71 q 711 29 665 -8 l 665 -8 l 630 33 q 668 62 697 97 q 725 132 741 179 q 757 226 757 290 l 757 290 q 757 360 737 410 q 717 460 681 487 q 645 513 596 513 l 596 513 q 555 513 531 501 q 507 488 491 467 l 491 467 q 470 438 464 391 q 457 343 457 263 l 457 263 l 457 249 q 457 197 452 160 q 447 122 436 95 q 424 68 405 45 l 405 45 q 382 18 347 3 q 312 -12 262 -12 l 262 -12 q 194 -12 145 21 q 95 53 69 115 q 42 176 42 261 l 42 261 q 42 332 61 386 q 79 439 113 482 q 147 524 192 560 l 192 560 l 227 519 q 190 491 161 456 q 132 420 116 373 q 100 325 100 261 l 100 261 q 100 190 120 140 q 140 90 176 64 q 212 37 259 37 l 259 37 q 303 37 327 50 q 351 62 366 83 l 366 83 q 388 113 394 160 q 400 207 400 287 l 400 287 l 400 302 q 400 377 412 424 q 423 471 450 504 l 450 504 q 475 532 510 547 q 545 562 597 562 z"},"ഘ":{"ha":1274,"x_min":35,"x_max":1199,"o":"m 215 562 l 215 562 q 274 562 314 539 q 354 515 375 477 q 396 439 396 392 l 396 392 q 396 350 382 317 q 368 284 342 263 l 342 263 l 333 277 l 531 277 l 541 229 l 312 229 l 291 266 q 316 290 329 319 q 341 348 341 385 l 341 385 q 341 445 308 480 q 274 514 215 514 l 215 514 q 176 514 148 497 q 120 480 106 451 q 91 422 91 389 l 91 389 q 91 347 107 317 q 122 287 155 261 l 155 261 l 124 222 q 83 254 59 294 q 35 333 35 390 l 35 390 q 35 439 58 478 q 80 517 121 540 q 162 562 215 562 z m 1143 550 l 1199 550 l 1199 0 l 512 0 l 512 315 q 512 387 527 430 q 542 473 570 501 l 570 501 q 599 532 642 547 q 685 562 739 562 l 739 562 q 795 562 837 548 q 878 534 905 507 l 905 507 q 935 477 949 432 q 963 387 963 324 l 963 324 l 963 229 l 568 229 l 568 48 l 1143 48 l 1143 550 z m 738 515 l 738 515 q 653 515 611 469 q 568 423 568 320 l 568 320 l 568 277 l 907 277 l 907 318 q 907 425 867 470 q 826 515 738 515 z"},"ങ":{"ha":1027,"x_min":45,"x_max":987,"o":"m 344 562 l 344 562 q 430 562 483 525 q 536 487 559 416 l 559 416 l 564 353 l 575 214 l 575 0 l 519 0 l 519 309 q 519 377 504 416 q 489 454 462 477 l 462 477 q 439 496 412 505 q 385 513 343 513 l 343 513 q 268 513 213 477 q 158 440 129 378 q 99 315 99 236 l 99 236 l 99 227 q 99 163 115 121 q 131 78 161 57 q 190 36 230 36 l 230 36 q 258 36 281 49 q 303 61 316 87 q 329 112 329 153 l 329 153 q 329 205 302 236 q 274 267 222 267 l 222 267 q 179 267 141 246 q 103 224 77 195 l 77 195 l 67 239 q 99 276 142 296 q 185 315 230 315 l 230 315 q 274 315 309 297 q 343 279 364 244 q 384 209 384 157 l 384 157 q 384 102 364 65 q 344 27 310 8 q 275 -12 229 -12 l 229 -12 q 180 -12 138 13 q 96 38 71 92 q 45 146 45 233 l 45 233 q 45 336 84 410 q 122 483 190 523 q 257 562 344 562 z m 780 562 l 780 562 q 844 562 888 542 q 931 521 954 487 q 976 453 976 410 l 976 410 q 976 376 964 347 q 952 318 924 298 q 895 278 845 269 l 845 269 l 843 277 q 915 267 951 229 q 987 191 987 136 l 987 136 q 987 67 945 28 q 902 -11 823 -11 l 823 -11 q 794 -11 770 -7 q 746 -4 727 0 l 727 0 l 739 48 q 760 43 778 40 q 796 37 817 37 l 817 37 q 875 37 903 62 q 930 86 930 137 l 930 137 q 930 164 920 185 q 909 205 889 219 l 889 219 q 869 234 841 242 q 813 249 766 249 l 766 249 l 743 249 l 743 297 l 769 297 q 814 297 845 306 q 875 314 893 333 l 893 333 q 906 346 913 364 q 919 382 919 406 l 919 406 q 919 456 882 485 q 845 513 780 513 l 780 513 q 731 513 694 498 q 657 483 631 455 l 631 455 q 614 437 602 412 q 589 386 582 348 q 575 310 575 253 l 575 253 l 575 108 l 529 109 l 529 262 l 544 387 q 556 439 587 479 q 618 518 667 540 q 716 562 780 562 z"},"ച":{"ha":901,"x_min":16,"x_max":826,"o":"m 770 550 l 826 550 l 826 0 l 16 0 l 16 48 l 419 48 l 383 36 q 409 58 432 92 q 454 125 454 178 l 454 178 q 454 238 424 273 q 393 307 338 307 l 338 307 q 281 307 251 274 q 221 241 221 185 l 221 185 q 221 170 223 160 q 224 149 226 138 l 226 138 l 171 130 q 169 142 167 158 q 165 173 165 190 l 165 190 q 165 266 214 311 q 262 355 340 355 l 340 355 q 382 355 414 342 q 446 328 467 304 q 488 280 499 249 q 509 217 509 181 l 509 181 q 509 146 500 119 q 491 92 476 72 q 461 51 446 35 l 446 35 l 428 48 l 770 48 l 770 550 z"},"ഛ":{"ha":1308,"x_min":16,"x_max":1266,"o":"m 340 355 l 340 355 q 382 355 414 342 q 446 328 467 304 q 488 280 499 249 q 509 217 509 181 l 509 181 q 509 146 500 119 q 491 92 476 72 q 461 51 446 35 l 446 35 l 428 48 l 770 48 l 777 0 l 16 0 l 16 48 l 419 48 l 383 36 q 409 58 432 92 q 454 125 454 178 l 454 178 q 454 238 424 273 q 393 307 338 307 l 338 307 q 281 307 251 274 q 221 241 221 185 l 221 185 q 221 170 223 160 q 224 149 226 138 l 226 138 l 171 130 q 169 142 167 158 q 165 173 165 190 l 165 190 q 165 266 214 311 q 262 355 340 355 z m 951 562 l 951 562 q 1029 562 1088 539 q 1147 515 1187 472 q 1226 428 1246 370 q 1266 312 1266 243 l 1266 243 q 1266 153 1241 97 q 1215 40 1171 14 q 1127 -12 1070 -12 l 1070 -12 q 1009 -12 970 16 q 930 44 911 91 q 891 137 891 192 l 891 192 q 891 287 941 340 q 991 392 1071 392 l 1071 392 q 1121 392 1158 369 q 1194 346 1218 310 q 1241 274 1250 232 l 1250 232 l 1231 226 q 1222 255 1201 282 q 1180 309 1150 327 q 1120 344 1080 344 l 1080 344 q 1013 344 980 303 q 947 262 947 194 l 947 194 q 947 149 960 113 q 972 77 999 57 q 1026 36 1071 36 l 1071 36 q 1116 36 1147 58 q 1178 79 1195 126 q 1212 172 1212 246 l 1212 246 q 1212 253 1211 266 q 1210 279 1208 291 l 1208 291 q 1207 296 1208 303 q 1208 309 1206 313 l 1206 313 q 1198 366 1168 412 q 1138 457 1085 485 q 1032 513 951 513 l 951 513 q 880 513 824 486 q 768 459 736 406 q 703 353 703 275 l 703 275 q 703 217 718 175 q 733 132 760 99 q 787 66 821 38 l 821 38 l 797 0 l 767 0 l 755 33 q 731 55 705 88 q 679 121 662 168 q 645 215 645 278 l 645 278 q 645 333 664 384 q 682 435 720 476 q 757 516 815 539 q 873 562 951 562 z"},"ജ":{"ha":908,"x_min":39,"x_max":866,"o":"m 287 562 l 287 562 q 343 562 385 549 q 426 535 456 507 q 486 478 506 432 l 506 432 l 486 431 q 507 496 552 529 q 596 562 666 562 l 666 562 q 735 562 780 536 q 824 509 845 468 q 866 426 866 380 l 866 380 q 866 343 856 312 q 845 280 822 256 q 799 231 759 214 l 759 214 l 659 198 l 611 188 q 586 183 552 180 q 517 177 474 177 l 474 177 l 229 177 q 184 177 159 173 q 133 168 118 157 l 118 157 q 105 149 100 137 q 94 125 94 109 l 94 109 q 94 81 107 65 q 120 49 142 42 q 164 35 189 35 l 189 35 q 233 35 273 45 q 313 54 352 71 q 390 87 429 108 l 429 108 q 465 127 492 141 q 519 155 540 165 q 561 175 580 183 q 598 190 618 196 l 618 196 q 633 203 646 208 q 658 213 669 217 q 680 221 691 224 q 701 226 713 226 l 713 226 q 747 226 776 214 q 805 202 823 177 q 840 152 840 112 l 840 112 q 840 51 802 20 q 764 -12 706 -12 l 706 -12 q 654 -12 624 7 q 594 26 582 56 q 569 85 569 116 l 569 116 q 569 146 583 167 q 597 187 623 205 l 623 205 l 660 214 q 649 206 639 194 q 629 181 623 163 q 616 145 616 120 l 616 120 q 616 77 639 55 q 662 32 705 32 l 705 32 q 746 32 767 54 q 788 75 788 112 l 788 112 q 788 142 776 159 q 764 176 745 184 q 725 192 702 192 l 702 192 q 678 192 656 184 q 633 175 614 160 l 614 160 l 607 165 q 592 152 575 139 q 557 125 534 111 q 511 97 478 79 l 478 79 q 424 50 377 30 q 330 10 285 -1 q 240 -12 189 -12 l 189 -12 q 153 -12 118 -1 q 83 10 61 37 q 39 63 39 109 l 39 109 q 39 134 49 155 q 58 176 78 190 l 78 190 q 100 208 132 216 q 164 223 219 223 l 219 223 l 558 223 q 614 223 653 228 q 692 233 719 243 q 746 253 764 267 l 764 267 q 788 286 799 314 q 809 342 809 378 l 809 378 q 809 410 795 441 q 781 472 749 493 q 717 514 662 514 l 662 514 q 629 514 605 505 q 581 496 563 479 l 563 479 q 539 454 530 416 q 521 378 521 324 l 521 324 l 521 259 l 466 259 l 466 330 q 466 379 454 419 q 441 459 407 484 l 407 484 q 385 500 357 508 q 329 516 285 516 l 285 516 q 223 516 179 501 q 135 485 109 450 l 109 450 q 106 447 105 442 q 104 436 102 431 l 102 431 q 97 418 95 407 q 93 396 93 383 l 93 383 q 93 330 118 308 q 142 286 182 286 l 182 286 q 214 286 232 299 q 250 311 257 329 q 264 347 264 365 l 264 365 q 264 399 244 420 q 223 440 180 440 l 180 440 q 144 440 115 426 q 86 411 62 388 l 62 388 l 68 424 q 92 447 123 462 q 154 477 191 477 l 191 477 q 236 477 263 461 q 290 444 303 419 q 316 393 316 365 l 316 365 q 316 334 302 306 q 288 278 259 261 q 229 243 182 243 l 182 243 q 114 243 79 280 q 44 317 44 385 l 44 385 q 44 433 72 474 q 99 514 153 538 q 207 562 287 562 z"},"ഝ":{"ha":1606,"x_min":42,"x_max":1564,"o":"m 635 562 l 635 562 q 689 562 729 550 q 769 537 799 513 l 799 513 q 840 479 860 427 q 880 374 880 286 l 880 286 l 880 257 q 880 180 889 141 q 897 101 917 76 l 917 76 q 932 57 955 47 q 977 37 1010 37 l 1010 37 q 1039 37 1060 46 q 1081 55 1096 71 l 1096 71 q 1119 95 1129 134 q 1139 172 1139 235 l 1139 235 l 1139 550 l 1195 550 l 1195 250 q 1195 189 1203 150 q 1211 110 1233 84 l 1233 84 q 1250 61 1276 49 q 1301 37 1337 37 l 1337 37 q 1392 37 1430 68 q 1467 99 1487 150 q 1506 200 1506 259 l 1506 259 q 1506 325 1490 373 q 1473 420 1445 455 q 1416 489 1380 516 l 1380 516 l 1416 558 q 1458 523 1492 483 q 1525 443 1545 390 q 1564 336 1564 260 l 1564 260 q 1564 186 1538 124 q 1511 62 1460 25 q 1409 -12 1334 -12 l 1334 -12 q 1264 -12 1224 22 q 1183 56 1163 114 l 1163 114 l 1169 113 q 1157 73 1134 45 q 1111 17 1079 3 q 1046 -12 1004 -12 l 1004 -12 q 962 -12 930 2 q 898 15 875 42 l 875 42 q 859 60 848 84 q 836 108 830 146 q 823 184 823 243 l 823 243 l 823 262 q 823 322 816 363 q 809 403 795 431 q 780 458 756 477 l 756 477 q 734 495 704 505 q 673 515 633 515 l 633 515 q 606 515 578 510 q 550 504 521 490 l 521 490 l 501 480 q 459 455 428 415 q 396 374 378 323 q 360 271 360 213 l 360 213 q 360 147 378 109 q 395 70 424 53 q 453 36 490 36 l 490 36 q 526 36 555 54 q 584 71 601 111 q 618 150 618 216 l 618 216 q 618 271 600 323 q 581 375 548 417 q 515 459 470 483 l 470 483 l 456 490 q 429 503 401 509 q 373 515 340 515 l 340 515 q 260 515 207 483 q 153 450 127 396 q 100 341 100 275 l 100 275 q 100 218 116 174 q 131 129 160 95 q 188 61 228 34 l 228 34 l 196 -8 q 156 17 121 56 q 86 95 64 150 q 42 204 42 276 l 42 276 q 42 338 62 390 q 81 442 119 481 q 156 519 211 541 q 266 562 336 562 l 336 562 q 383 562 423 552 q 463 541 502 518 l 502 518 l 519 505 q 588 462 632 385 q 676 308 676 215 l 676 215 q 676 141 653 91 q 630 40 588 14 q 546 -12 490 -12 l 490 -12 q 433 -12 391 14 q 348 39 326 89 q 303 139 303 213 l 303 213 q 303 276 322 331 q 341 386 376 430 q 411 474 458 504 l 458 504 l 471 516 q 512 540 554 551 q 596 562 635 562 z"},"ഞ":{"ha":1401,"x_min":45,"x_max":1359,"o":"m 344 562 l 344 562 q 430 562 483 525 q 536 487 559 416 l 559 416 l 565 374 l 575 225 l 575 0 l 519 0 l 519 309 q 519 378 504 416 q 489 454 462 477 l 462 477 q 439 496 413 505 q 386 513 343 513 l 343 513 q 268 513 213 477 q 158 440 129 378 q 99 315 99 236 l 99 236 l 99 227 q 99 163 115 121 q 131 78 161 57 q 190 36 230 36 l 230 36 q 258 36 281 49 q 303 61 316 87 q 329 112 329 153 l 329 153 q 329 205 302 236 q 274 267 222 267 l 222 267 q 179 267 141 246 q 103 224 77 195 l 77 195 l 67 239 q 99 276 142 296 q 185 315 230 315 l 230 315 q 274 315 309 297 q 343 279 364 244 q 384 209 384 157 l 384 157 q 384 102 364 65 q 344 27 310 8 q 275 -12 229 -12 l 229 -12 q 180 -12 138 13 q 96 38 71 92 q 45 146 45 233 l 45 233 q 45 336 84 410 q 122 483 190 523 q 257 562 344 562 z m 762 562 l 762 562 q 812 562 851 552 q 890 542 927 519 l 927 519 l 945 506 q 1012 462 1055 386 q 1098 310 1098 215 l 1098 215 q 1098 141 1075 91 q 1052 40 1010 14 q 968 -12 912 -12 l 912 -12 q 855 -12 813 14 q 770 39 748 89 q 725 139 725 213 l 725 213 q 725 276 746 331 q 766 386 802 430 q 838 474 886 504 l 886 504 l 897 515 q 938 539 983 551 q 1027 562 1077 562 l 1077 562 q 1147 562 1200 541 q 1252 519 1288 481 q 1323 443 1341 391 q 1359 339 1359 279 l 1359 279 q 1359 207 1338 154 q 1317 100 1283 61 q 1248 21 1205 -8 l 1205 -8 l 1172 34 q 1207 57 1237 90 q 1266 122 1284 168 q 1301 213 1301 274 l 1301 274 q 1301 342 1276 397 q 1250 451 1199 483 q 1148 515 1072 515 l 1072 515 q 1036 515 1006 509 q 975 502 947 489 l 947 489 l 927 479 q 885 455 852 415 q 819 374 801 323 q 782 271 782 213 l 782 213 q 782 147 800 109 q 817 70 846 53 q 875 36 912 36 l 912 36 q 948 36 977 54 q 1005 71 1023 111 q 1040 150 1040 216 l 1040 216 q 1040 273 1023 325 q 1005 376 974 417 q 942 458 898 483 l 898 483 l 882 491 q 866 499 848 504 q 830 509 810 512 q 790 515 766 515 l 766 515 q 721 515 689 504 q 657 492 636 472 l 636 472 q 605 445 590 404 q 575 362 575 288 l 575 288 l 575 34 l 523 34 l 525 224 l 541 418 q 559 464 589 497 q 618 529 662 546 q 705 562 762 562 z"},"ട":{"ha":536,"x_min":20,"x_max":506,"o":"m 255 562 l 255 562 q 337 562 397 545 q 457 528 506 503 l 506 503 l 474 458 q 428 484 375 499 q 321 513 255 513 l 255 513 q 197 513 162 499 q 126 484 110 460 q 93 435 93 405 l 93 405 q 93 380 100 364 q 107 347 120 336 l 120 336 q 143 315 183 310 q 223 305 276 305 l 276 305 l 283 305 q 354 305 394 293 q 434 280 461 254 l 461 254 q 480 236 489 211 q 498 185 498 152 l 498 152 q 498 104 474 67 q 450 30 401 9 q 351 -12 275 -12 l 275 -12 q 194 -12 136 6 q 77 23 20 54 l 20 54 l 51 98 q 81 81 115 67 q 148 53 189 45 q 229 37 277 37 l 277 37 q 337 37 373 52 q 409 67 425 93 q 441 118 441 150 l 441 150 q 441 175 434 195 q 427 214 410 226 l 410 226 q 391 241 359 248 q 327 255 268 255 l 268 255 l 260 255 q 192 255 145 267 q 98 278 71 307 l 71 307 q 54 325 45 349 q 36 373 36 405 l 36 405 q 36 450 60 486 q 83 521 132 542 q 181 562 255 562 z"},"ഠ":{"ha":633,"x_min":42,"x_max":591,"o":"m 317 562 l 317 562 q 402 562 464 527 q 525 492 558 428 q 591 363 591 274 l 591 274 q 591 188 558 124 q 524 59 463 24 q 401 -12 315 -12 l 315 -12 q 226 -12 165 26 q 104 64 73 130 q 42 195 42 277 l 42 277 q 42 364 76 428 q 109 492 171 527 q 233 562 317 562 z m 315 37 l 315 37 q 388 37 436 68 q 484 99 509 153 q 533 207 533 276 l 533 276 q 533 347 509 401 q 484 454 436 484 q 388 513 317 513 l 317 513 q 214 513 157 449 q 100 384 100 276 l 100 276 q 100 167 156 102 q 211 37 315 37 z"},"ഡ":{"ha":1182,"x_min":42,"x_max":1140,"o":"m 581 -12 l 581 -12 q 539 -12 507 2 q 474 15 451 42 l 451 42 q 436 60 424 84 q 412 108 406 146 q 400 184 400 243 l 400 243 l 400 279 q 400 347 394 393 q 388 438 366 467 l 366 467 q 351 489 327 501 q 303 513 259 513 l 259 513 q 212 513 176 487 q 140 460 120 410 q 100 360 100 289 l 100 289 q 100 226 116 179 q 132 131 161 96 q 190 61 226 32 l 226 32 l 192 -9 q 147 28 113 70 q 79 112 61 166 q 42 220 42 290 l 42 290 q 42 375 69 436 q 95 497 145 530 q 194 562 262 562 l 262 562 q 312 562 347 548 q 382 533 405 506 l 405 506 q 424 483 436 456 q 447 428 452 391 q 456 354 456 300 l 456 300 l 456 257 q 456 182 465 142 q 473 101 493 76 l 493 76 q 509 58 531 48 q 553 37 587 37 l 587 37 q 615 37 636 46 q 657 55 672 71 l 672 71 q 695 95 705 133 q 715 171 715 234 l 715 234 l 715 550 l 771 550 l 771 249 q 771 188 779 149 q 787 110 809 84 l 809 84 q 827 61 852 49 q 877 37 914 37 l 914 37 q 968 37 1006 68 q 1044 99 1064 150 q 1083 200 1083 259 l 1083 259 q 1083 325 1067 373 q 1050 420 1021 455 q 992 489 956 516 l 956 516 l 993 558 q 1035 523 1069 483 q 1102 443 1121 389 q 1140 335 1140 259 l 1140 259 q 1140 186 1114 124 q 1088 62 1037 25 q 985 -12 910 -12 l 910 -12 q 840 -12 800 22 q 760 55 740 113 l 740 113 l 745 112 q 728 52 686 20 q 643 -12 581 -12 z"},"ഢ":{"ha":1291,"x_min":42,"x_max":1246,"o":"m 581 -12 l 581 -12 q 539 -12 507 2 q 474 15 451 42 l 451 42 q 436 60 424 84 q 412 108 406 146 q 400 184 400 243 l 400 243 l 400 280 q 400 347 394 393 q 388 438 366 467 l 366 467 q 351 489 327 501 q 303 513 259 513 l 259 513 q 212 513 176 487 q 140 460 120 411 q 100 361 100 290 l 100 290 q 100 226 116 179 q 132 131 161 96 q 190 61 226 32 l 226 32 l 192 -10 q 146 28 113 70 q 79 112 61 166 q 42 220 42 291 l 42 291 q 42 376 69 437 q 95 497 145 530 q 194 562 262 562 l 262 562 q 312 562 347 548 q 382 533 405 506 l 405 506 q 424 483 436 456 q 447 428 452 391 q 456 354 456 300 l 456 300 l 456 256 q 456 182 465 142 q 473 101 493 76 l 493 76 q 509 58 531 48 q 553 37 587 37 l 587 37 q 615 37 636 46 q 657 55 672 71 l 672 71 q 695 95 705 133 q 715 171 715 234 l 715 234 l 715 550 l 771 550 l 771 250 l 745 113 q 728 52 686 20 q 643 -12 581 -12 z m 1064 562 l 1064 562 q 1113 562 1154 538 q 1195 513 1221 460 q 1246 406 1246 317 l 1246 317 q 1246 216 1208 142 q 1169 68 1102 28 q 1034 -12 946 -12 l 946 -12 q 861 -12 810 25 q 759 61 736 130 l 736 130 l 724 326 l 724 535 l 771 535 l 771 242 q 771 172 787 134 q 802 96 829 73 l 829 73 q 851 55 878 46 q 905 37 948 37 l 948 37 q 1024 37 1079 74 q 1133 111 1163 174 q 1192 236 1192 315 l 1192 315 l 1192 324 q 1192 391 1176 433 q 1159 475 1130 495 q 1100 514 1061 514 l 1061 514 q 1033 514 1011 502 q 988 490 975 465 q 962 439 962 398 l 962 398 q 962 346 990 315 q 1017 283 1069 283 l 1069 283 q 1114 283 1151 305 q 1188 327 1214 356 l 1214 356 l 1224 312 q 1193 275 1150 255 q 1107 235 1062 235 l 1062 235 q 1018 235 983 254 q 948 272 928 308 q 907 343 907 395 l 907 395 q 907 448 927 486 q 946 523 982 543 q 1017 562 1064 562 z"},"ണ":{"ha":1327,"x_min":45,"x_max":1285,"o":"m 344 562 l 344 562 q 430 562 479 528 q 528 493 553 437 l 553 437 l 544 437 q 565 494 608 528 q 651 562 719 562 l 719 562 q 790 562 833 530 q 875 497 891 438 l 891 438 l 881 434 q 906 498 949 530 q 991 562 1059 562 l 1059 562 q 1133 562 1183 526 q 1233 489 1259 428 q 1285 366 1285 292 l 1285 292 q 1285 220 1267 166 q 1248 112 1215 71 q 1181 30 1135 -7 l 1135 -7 l 1101 34 q 1138 63 1167 98 q 1195 133 1211 180 q 1227 227 1227 292 l 1227 292 q 1227 351 1208 402 q 1189 452 1152 483 q 1115 513 1060 513 l 1060 513 q 1022 513 996 502 q 970 490 953 467 l 953 467 q 931 442 923 403 q 915 363 915 300 l 915 300 l 915 0 l 859 0 l 859 316 q 859 375 851 411 q 843 446 822 471 l 822 471 q 806 491 781 502 q 755 513 718 513 l 718 513 q 683 513 658 501 q 632 489 615 469 l 615 469 q 594 445 585 409 q 576 372 576 312 l 576 312 l 576 0 l 520 0 l 520 306 q 520 377 505 416 q 489 454 462 477 l 462 477 q 439 496 411 505 q 383 513 343 513 l 343 513 q 268 513 213 477 q 158 440 129 378 q 99 315 99 236 l 99 236 l 99 227 q 99 163 115 121 q 131 78 161 57 q 190 36 230 36 l 230 36 q 258 36 281 49 q 303 61 316 87 q 329 112 329 153 l 329 153 q 329 205 302 236 q 274 267 222 267 l 222 267 q 179 267 141 246 q 103 224 77 195 l 77 195 l 67 239 q 99 276 142 296 q 185 315 230 315 l 230 315 q 274 315 309 297 q 343 279 364 244 q 384 209 384 157 l 384 157 q 384 102 364 65 q 344 27 310 8 q 275 -12 229 -12 l 229 -12 q 180 -12 138 13 q 96 38 71 92 q 45 146 45 233 l 45 233 q 45 336 84 410 q 122 483 190 523 q 257 562 344 562 z"},"ത":{"ha":979,"x_min":42,"x_max":937,"o":"m 490 -12 l 490 -12 q 433 -12 391 14 q 348 39 326 89 q 303 139 303 213 l 303 213 q 303 276 324 331 q 344 386 380 430 q 416 474 464 504 l 464 504 l 475 515 q 516 539 561 551 q 605 562 655 562 l 655 562 q 725 562 778 541 q 830 519 866 481 q 901 443 919 391 q 937 339 937 279 l 937 279 q 937 207 917 154 q 896 100 861 61 q 826 21 783 -8 l 783 -8 l 751 34 q 786 57 815 90 q 844 122 862 168 q 879 213 879 274 l 879 274 q 879 344 854 398 q 828 452 777 484 q 726 515 650 515 l 650 515 q 614 515 584 509 q 553 502 525 489 l 525 489 l 505 479 q 463 455 430 415 q 397 374 379 323 q 360 271 360 213 l 360 213 q 360 147 378 109 q 395 70 424 53 q 453 36 490 36 l 490 36 q 526 36 555 54 q 584 71 601 111 q 618 150 618 216 l 618 216 q 618 271 600 323 q 581 375 548 417 q 515 459 470 483 l 470 483 l 456 490 q 429 503 401 509 q 373 515 340 515 l 340 515 q 260 515 207 483 q 153 451 127 397 q 100 342 100 275 l 100 275 q 100 218 116 174 q 131 129 160 95 q 188 61 228 34 l 228 34 l 196 -8 q 156 17 121 56 q 86 95 64 150 q 42 204 42 276 l 42 276 q 42 338 62 390 q 81 442 119 481 q 156 519 211 541 q 266 562 336 562 l 336 562 q 383 562 423 551 q 463 540 502 517 l 502 517 l 519 504 q 588 461 632 385 q 676 308 676 215 l 676 215 q 676 141 653 91 q 630 40 588 14 q 546 -12 490 -12 z"},"ഥ":{"ha":866,"x_min":75,"x_max":800,"o":"m 75 550 l 131 550 l 131 48 l 375 48 l 375 0 l 75 0 l 75 550 z m 567 562 l 567 562 q 625 562 668 545 q 711 527 740 495 l 740 495 q 771 462 786 414 q 800 365 800 290 l 800 290 l 800 0 l 339 0 l 339 295 q 339 345 346 382 q 352 419 366 447 q 379 475 400 498 l 400 498 q 429 528 471 545 q 512 562 567 562 z m 567 513 l 567 513 q 527 513 496 501 q 464 488 442 464 l 442 464 q 419 438 407 398 q 395 357 395 279 l 395 279 l 395 48 l 744 48 l 744 274 q 744 349 732 393 q 720 436 696 462 l 696 462 q 674 486 643 500 q 611 513 567 513 z"},"ദ":{"ha":612,"x_min":54,"x_max":572,"o":"m 360 562 l 360 562 q 425 562 470 542 q 515 522 538 488 q 561 454 561 410 l 561 410 q 561 351 530 318 q 498 285 440 271 l 440 271 l 437 277 q 504 266 538 228 q 572 189 572 135 l 572 135 q 572 64 525 27 q 477 -11 395 -11 l 395 -11 q 360 -11 336 -7 q 311 -4 292 0 l 292 0 l 304 47 q 325 43 346 40 q 367 37 391 37 l 391 37 q 451 37 483 61 q 515 85 515 137 l 515 137 q 515 161 506 181 q 497 201 479 216 l 479 216 q 460 232 432 241 q 403 249 351 249 l 351 249 l 309 249 l 309 297 l 350 297 q 395 297 426 305 q 456 312 475 330 l 475 330 q 489 343 497 362 q 504 380 504 406 l 504 406 q 504 457 466 485 q 427 513 358 513 l 358 513 q 274 513 219 474 q 164 435 138 368 q 112 300 112 216 l 112 216 q 112 161 119 108 q 125 55 138 5 l 138 5 l 84 -4 q 70 45 62 105 q 54 165 54 217 l 54 217 q 54 319 89 397 q 124 474 192 518 q 260 562 360 562 z"},"ധ":{"ha":879,"x_min":42,"x_max":837,"o":"m 607 -12 l 607 -12 q 559 -12 526 4 q 492 20 470 49 q 448 78 435 117 l 435 117 l 445 116 q 423 54 381 21 q 339 -12 269 -12 l 269 -12 q 195 -12 145 25 q 94 62 68 124 q 42 185 42 259 l 42 259 q 42 331 61 385 q 79 438 113 480 q 147 521 192 557 l 192 557 l 227 516 q 190 488 161 453 q 132 418 116 371 q 100 324 100 259 l 100 259 q 100 200 119 150 q 138 99 176 68 q 213 37 268 37 l 268 37 q 307 37 332 50 q 357 62 374 84 l 374 84 q 396 110 404 149 q 412 187 412 249 l 412 249 l 412 550 l 468 550 l 468 249 q 468 188 476 149 q 484 110 506 84 l 506 84 q 523 61 548 49 q 572 37 608 37 l 608 37 q 663 37 701 67 q 739 97 759 148 q 779 199 779 260 l 779 260 q 779 326 763 373 q 746 419 718 454 q 689 488 653 515 l 653 515 l 690 557 q 732 523 765 483 q 798 442 818 388 q 837 334 837 260 l 837 260 q 837 180 809 119 q 780 57 729 23 q 677 -12 607 -12 z"},"ന":{"ha":879,"x_min":42,"x_max":837,"o":"m 272 562 l 272 562 q 320 562 354 547 q 387 531 410 502 q 432 473 444 434 l 444 434 l 434 434 q 456 497 499 530 q 541 562 610 562 l 610 562 q 684 562 735 526 q 785 489 811 428 q 837 366 837 292 l 837 292 q 837 220 819 167 q 800 113 766 72 q 732 30 687 -7 l 687 -7 l 652 34 q 689 63 718 98 q 747 133 763 180 q 779 227 779 292 l 779 292 q 779 351 760 402 q 741 452 704 483 q 666 513 611 513 l 611 513 q 572 513 547 502 q 522 490 505 467 l 505 467 q 483 442 475 403 q 467 363 467 301 l 467 301 l 467 0 l 411 0 l 411 302 q 411 363 403 402 q 395 441 373 466 l 373 466 q 356 489 332 501 q 307 513 271 513 l 271 513 q 216 513 178 483 q 140 453 120 403 q 100 352 100 290 l 100 290 q 100 226 117 179 q 133 131 162 97 q 190 63 226 35 l 226 35 l 189 -7 q 147 28 114 69 q 81 109 62 163 q 42 216 42 290 l 42 290 q 42 372 71 433 q 99 494 151 528 q 202 562 272 562 z"},"ഩ":{"ha":987,"x_min":45,"x_max":945,"o":"m 344 562 l 344 562 q 430 562 479 528 q 528 493 553 437 l 553 437 l 545 440 q 567 500 609 531 q 651 562 719 562 l 719 562 q 792 562 843 526 q 893 489 919 428 q 945 366 945 292 l 945 292 q 945 220 927 167 q 908 113 875 72 q 841 30 795 -7 l 795 -7 l 761 34 q 798 63 827 98 q 855 133 871 180 q 887 227 887 292 l 887 292 q 887 351 868 402 q 849 452 812 483 q 775 513 720 513 l 720 513 q 681 513 656 502 q 631 490 613 467 l 613 467 q 592 442 584 403 q 575 363 575 298 l 575 298 l 575 0 l 519 0 l 519 309 q 519 377 504 416 q 489 454 462 477 l 462 477 q 439 496 412 505 q 385 513 343 513 l 343 513 q 268 513 213 477 q 158 440 129 378 q 99 315 99 236 l 99 236 l 99 227 q 99 163 115 121 q 131 78 161 57 q 190 36 230 36 l 230 36 q 258 36 281 49 q 303 61 316 87 q 329 112 329 153 l 329 153 q 329 205 302 236 q 274 267 222 267 l 222 267 q 179 267 141 246 q 103 224 77 195 l 77 195 l 67 239 q 99 276 142 296 q 185 315 230 315 l 230 315 q 274 315 309 297 q 343 279 364 244 q 384 209 384 157 l 384 157 q 384 102 364 65 q 344 27 310 8 q 275 -12 229 -12 l 229 -12 q 180 -12 138 13 q 96 38 71 92 q 45 146 45 233 l 45 233 q 45 336 84 410 q 122 483 190 523 q 257 562 344 562 z"},"പ":{"ha":863,"x_min":35,"x_max":788,"o":"m 215 337 l 215 337 q 274 337 314 314 q 354 290 375 251 q 396 212 396 166 l 396 166 q 396 122 381 89 q 366 55 340 34 l 340 34 l 331 48 l 732 48 l 732 550 l 788 550 l 788 0 l 310 0 l 289 37 q 315 63 328 92 q 341 120 341 158 l 341 158 q 341 218 308 254 q 274 289 215 289 l 215 289 q 176 289 148 271 q 120 253 106 225 q 91 196 91 162 l 91 162 q 91 120 107 89 q 123 58 157 32 l 157 32 l 126 -7 q 85 26 60 66 q 35 105 35 163 l 35 163 q 35 212 58 252 q 80 291 121 314 q 162 337 215 337 z"},"ഫ":{"ha":1091,"x_min":35,"x_max":1025,"o":"m 215 337 l 215 337 q 274 337 314 314 q 354 290 375 251 q 396 212 396 166 l 396 166 q 396 122 381 89 q 366 55 340 34 l 340 34 l 331 48 l 604 48 l 604 0 l 310 0 l 289 37 q 315 63 328 92 q 341 120 341 158 l 341 158 q 341 218 308 254 q 274 289 215 289 l 215 289 q 176 289 148 271 q 120 253 106 225 q 91 196 91 162 l 91 162 q 91 120 107 89 q 123 58 157 32 l 157 32 l 126 -7 q 85 25 60 65 q 35 105 35 163 l 35 163 q 35 212 58 252 q 80 291 121 314 q 162 337 215 337 z m 792 562 l 792 562 q 850 562 893 545 q 936 527 965 495 l 965 495 q 996 462 1011 414 q 1025 365 1025 290 l 1025 290 l 1025 0 l 564 0 l 564 295 q 564 345 571 382 q 577 419 591 447 q 604 475 625 498 l 625 498 q 654 528 696 545 q 737 562 792 562 z m 792 513 l 792 513 q 752 513 721 501 q 689 488 667 464 l 667 464 q 644 438 632 398 q 620 357 620 279 l 620 279 l 620 48 l 969 48 l 969 274 q 969 349 957 393 q 945 436 921 462 l 921 462 q 899 486 868 500 q 836 513 792 513 z"},"ബ":{"ha":1267,"x_min":45,"x_max":1192,"o":"m 344 562 l 344 562 q 430 562 479 528 q 528 493 553 437 l 553 437 l 565 398 l 575 268 l 575 0 l 519 0 l 519 309 q 519 377 504 416 q 489 454 462 477 l 462 477 q 439 496 412 505 q 385 513 343 513 l 343 513 q 268 513 213 477 q 158 440 129 378 q 99 315 99 236 l 99 236 l 99 227 q 99 163 115 121 q 131 78 161 57 q 190 36 230 36 l 230 36 q 258 36 281 49 q 303 61 316 87 q 329 112 329 153 l 329 153 q 329 205 302 236 q 274 267 222 267 l 222 267 q 179 267 141 246 q 103 224 77 195 l 77 195 l 67 239 q 99 276 142 296 q 185 315 230 315 l 230 315 q 274 315 309 297 q 343 279 364 244 q 384 209 384 157 l 384 157 q 384 102 364 65 q 344 27 310 8 q 275 -12 229 -12 l 229 -12 q 180 -12 138 13 q 96 38 71 92 q 45 146 45 233 l 45 233 q 45 336 84 410 q 122 483 190 523 q 257 562 344 562 z m 1136 550 l 1192 550 l 1192 0 l 795 0 l 772 38 q 804 68 830 102 q 856 136 872 182 q 887 227 887 292 l 887 292 q 887 351 868 402 q 849 452 812 483 q 775 513 720 513 l 720 513 q 681 513 656 502 q 631 490 613 467 l 613 467 q 592 442 584 403 q 575 363 575 298 l 575 298 l 575 5 l 521 5 l 521 266 l 546 390 l 545 440 q 567 500 609 531 q 651 562 719 562 l 719 562 q 792 562 843 526 q 893 489 919 428 q 945 366 945 292 l 945 292 q 945 230 932 184 q 918 138 895 104 q 872 69 843 41 l 843 41 l 830 48 l 1136 48 l 1136 550 z"},"ഭ":{"ha":624,"x_min":54,"x_max":587,"o":"m 378 562 l 378 562 q 439 562 487 546 q 534 530 561 500 q 587 469 587 424 l 587 424 q 587 402 582 384 q 576 366 564 353 l 564 353 q 550 337 528 329 q 506 320 462 320 l 462 320 l 429 320 q 387 320 367 317 q 346 314 333 306 l 333 306 q 323 300 319 291 q 314 281 314 269 l 314 269 q 314 238 340 227 q 365 216 419 216 l 419 216 l 430 216 q 475 216 506 209 q 536 202 555 185 l 555 185 q 571 172 579 153 q 587 133 587 108 l 587 108 q 587 72 570 45 q 552 18 516 3 q 480 -12 425 -12 l 425 -12 q 393 -12 360 -8 q 326 -4 297 4 q 267 12 244 23 l 244 23 l 265 69 q 302 52 342 45 q 381 37 424 37 l 424 37 q 484 37 508 56 q 532 75 532 106 l 532 106 q 532 143 507 156 q 481 168 435 168 l 435 168 l 420 168 q 367 168 336 176 q 304 184 286 202 l 286 202 q 273 214 267 230 q 260 245 260 267 l 260 267 q 260 290 268 308 q 275 325 291 337 l 291 337 q 311 354 343 361 q 375 368 424 368 l 424 368 l 466 368 q 501 368 516 380 q 531 392 531 423 l 531 423 q 531 467 491 490 q 450 513 377 513 l 377 513 q 285 513 227 474 q 168 435 140 368 q 112 300 112 216 l 112 216 q 112 161 119 108 q 125 55 138 5 l 138 5 l 84 -4 q 70 45 62 105 q 54 165 54 217 l 54 217 q 54 319 91 397 q 127 474 200 518 q 272 562 378 562 z"},"മ":{"ha":694,"x_min":63,"x_max":632,"o":"m 348 562 l 348 562 q 413 562 462 547 q 510 532 544 502 l 544 502 q 574 478 593 444 q 612 410 622 365 q 632 319 632 258 l 632 258 l 632 0 l 63 0 l 63 257 q 63 313 72 357 q 80 400 98 434 q 115 468 142 493 l 142 493 q 178 526 229 544 q 279 562 348 562 z m 301 511 l 301 511 q 260 511 228 494 q 195 476 172 446 l 172 446 q 147 415 133 368 q 119 320 119 249 l 119 249 l 119 47 l 130 47 q 205 103 265 163 q 325 223 360 284 q 395 345 395 403 l 395 403 q 395 431 386 456 q 377 480 357 496 q 336 511 301 511 z m 452 399 l 452 399 q 452 337 419 276 q 385 214 326 153 q 267 91 189 27 l 189 27 l 189 44 q 221 46 260 47 q 298 48 333 48 l 333 48 l 576 48 l 576 251 q 576 330 557 387 q 538 443 496 476 q 453 508 382 515 l 382 515 l 381 522 q 420 503 436 472 q 452 440 452 399 z"},"യ":{"ha":1001,"x_min":41,"x_max":956,"o":"m 646 -12 l 646 -12 q 603 -12 563 -2 q 523 7 486 27 l 486 27 q 482 30 476 33 q 470 35 466 37 l 466 37 q 414 72 380 118 q 346 164 329 220 q 312 275 312 336 l 312 336 q 312 378 323 415 q 333 451 352 480 l 352 480 l 358 489 q 375 513 398 529 q 421 545 448 554 q 475 562 506 562 l 506 562 q 597 562 648 501 q 699 440 699 334 l 699 334 q 699 236 659 161 q 619 85 548 42 l 548 42 q 543 38 538 35 q 532 32 526 28 l 526 28 q 489 8 448 -2 q 407 -12 357 -12 l 357 -12 q 281 -12 223 14 q 164 40 124 87 q 83 134 62 197 q 41 259 41 333 l 41 333 q 41 406 68 457 q 95 508 141 535 q 187 562 244 562 l 244 562 q 301 562 338 541 q 375 520 400 490 l 400 490 l 362 451 q 344 477 317 496 q 289 514 245 514 l 245 514 q 205 514 172 495 q 138 475 118 434 q 98 393 98 331 l 98 331 q 98 251 128 184 q 158 117 216 76 q 274 35 361 35 l 361 35 q 393 35 419 40 q 444 44 468 52 l 468 52 q 476 55 484 58 q 491 61 498 64 l 498 64 q 541 86 574 125 q 606 164 624 218 q 642 271 642 334 l 642 334 q 642 399 624 439 q 606 478 575 496 q 544 514 506 514 l 506 514 q 464 514 433 492 q 402 470 386 430 q 369 389 369 333 l 369 333 q 369 276 386 223 q 403 170 436 129 q 468 87 513 62 l 513 62 q 520 60 526 59 q 531 57 538 54 l 538 54 q 559 46 587 41 q 614 35 645 35 l 645 35 q 734 35 790 72 q 846 108 873 170 q 899 232 899 310 l 899 310 q 899 377 876 435 q 852 492 817 531 l 817 531 l 863 562 q 907 510 932 447 q 956 383 956 312 l 956 312 q 956 241 937 182 q 917 122 878 79 q 839 36 781 12 q 723 -12 646 -12 z"},"ര":{"ha":706,"x_min":42,"x_max":664,"o":"m 349 562 l 349 562 q 427 562 486 539 q 545 515 585 472 q 624 428 644 370 q 664 312 664 243 l 664 243 q 664 153 639 97 q 613 40 569 14 q 524 -12 468 -12 l 468 -12 q 407 -12 367 16 q 327 44 308 91 q 289 137 289 192 l 289 192 q 289 287 339 340 q 389 392 469 392 l 469 392 q 519 392 556 369 q 592 346 616 310 q 639 274 647 232 l 647 232 l 629 226 q 619 255 599 282 q 578 309 548 327 q 518 344 478 344 l 478 344 q 410 344 377 303 q 344 262 344 194 l 344 194 q 344 149 357 113 q 369 77 397 57 q 424 36 469 36 l 469 36 q 513 36 545 58 q 576 79 593 126 q 609 172 609 246 l 609 246 q 609 253 608 266 q 607 279 605 291 l 605 291 q 605 296 605 303 q 605 309 604 313 l 604 313 q 595 366 566 412 q 536 457 483 485 q 429 513 349 513 l 349 513 q 278 513 222 486 q 165 459 133 406 q 100 353 100 275 l 100 275 q 100 218 116 174 q 131 130 160 96 q 188 62 228 35 l 228 35 l 196 -7 q 156 18 121 57 q 86 95 64 150 q 42 204 42 276 l 42 276 q 42 332 61 384 q 79 435 117 476 q 155 516 213 539 q 270 562 349 562 z"},"റ":{"ha":647,"x_min":42,"x_max":605,"o":"m 327 562 l 327 562 q 395 562 448 541 q 500 519 535 481 q 570 443 588 391 q 605 339 605 279 l 605 279 q 605 207 585 154 q 564 100 529 61 q 494 21 451 -8 l 451 -8 l 419 34 q 454 57 483 90 q 512 123 530 169 q 547 214 547 274 l 547 274 q 547 342 523 396 q 498 450 449 482 q 399 513 325 513 l 325 513 q 252 513 202 481 q 152 449 126 395 q 100 340 100 275 l 100 275 q 100 218 116 174 q 131 130 160 96 q 188 62 228 35 l 228 35 l 196 -7 q 156 18 121 57 q 86 95 64 150 q 42 204 42 276 l 42 276 q 42 338 61 390 q 80 442 117 481 q 153 519 206 541 q 259 562 327 562 z"},"ല":{"ha":830,"x_min":68,"x_max":755,"o":"m 699 550 l 755 550 l 755 0 l 68 0 l 68 315 q 68 387 83 430 q 98 473 126 501 l 126 501 q 155 532 198 547 q 241 562 295 562 l 295 562 q 351 562 393 548 q 434 534 461 507 l 461 507 q 491 477 505 432 q 519 387 519 324 l 519 324 l 519 229 l 124 229 l 124 48 l 699 48 l 699 550 z m 294 515 l 294 515 q 209 515 167 469 q 124 423 124 320 l 124 320 l 124 277 l 463 277 l 463 318 q 463 425 423 470 q 382 515 294 515 z"},"ള":{"ha":693,"x_min":43,"x_max":652,"o":"m 384 514 l 384 514 q 313 514 262 499 q 211 484 177 459 q 143 434 124 405 q 105 375 98 347 l 98 347 q 97 344 98 340 q 98 336 98 333 l 98 333 q 96 326 96 319 q 95 312 95 305 l 95 305 q 95 237 120 197 q 144 156 201 156 l 201 156 q 250 156 274 186 q 298 216 298 259 l 298 259 q 298 284 289 306 q 280 328 259 342 q 238 355 203 355 l 203 355 q 161 355 129 333 q 97 311 72 281 l 72 281 l 58 322 q 73 341 96 359 q 118 377 147 389 q 176 401 211 401 l 211 401 q 261 401 293 381 q 324 361 339 329 q 353 296 353 259 l 353 259 q 353 220 337 186 q 320 151 287 130 q 253 109 200 109 l 200 109 q 150 109 115 133 q 80 156 62 200 q 43 244 43 305 l 43 305 q 43 356 64 403 q 85 449 127 485 q 169 521 234 542 q 298 562 385 562 l 385 562 q 477 562 533 542 q 589 521 615 485 q 641 448 641 400 l 641 400 q 641 369 629 340 q 616 311 585 291 q 553 270 495 264 l 495 264 l 429 272 l 429 297 l 439 297 q 476 297 502 302 q 527 306 546 319 l 546 319 q 565 333 575 351 q 584 369 584 397 l 584 397 q 584 432 564 458 q 544 484 501 499 q 457 514 384 514 z m 652 143 l 652 143 q 652 113 643 88 q 634 63 615 45 l 615 45 q 599 29 578 19 q 557 9 528 5 q 498 0 454 0 l 454 0 l 250 0 q 204 0 178 -4 q 152 -8 137 -21 l 137 -21 q 124 -30 118 -43 q 112 -57 112 -74 l 112 -74 q 112 -92 119 -106 q 125 -120 138 -130 l 138 -130 q 153 -141 178 -146 q 203 -152 247 -152 l 247 -152 l 634 -152 l 634 -201 l 241 -201 q 193 -201 160 -193 q 127 -186 103 -170 l 103 -170 q 80 -154 68 -130 q 56 -107 56 -77 l 56 -77 q 56 -48 66 -25 q 75 -2 96 14 l 96 14 q 110 26 128 34 q 146 41 173 45 q 199 48 237 48 l 237 48 l 450 48 q 499 48 527 55 q 555 62 572 80 l 572 80 q 583 92 589 109 q 595 125 595 148 l 595 148 q 595 175 584 195 q 572 215 550 228 l 550 228 q 533 238 510 244 q 486 249 449 249 l 449 249 l 429 249 l 429 281 l 501 280 q 578 273 615 236 q 652 198 652 143 z"},"ഴ":{"ha":624,"x_min":40,"x_max":585,"o":"m 262 407 l 262 407 q 262 472 304 517 q 346 562 424 562 l 424 562 q 482 562 517 538 q 552 514 569 476 q 585 438 585 396 l 585 396 q 585 330 554 277 q 523 223 466 192 q 408 160 327 160 l 327 160 l 313 160 q 226 160 165 188 q 103 216 72 270 q 40 324 40 400 l 40 400 q 40 440 52 481 q 63 521 89 562 l 89 562 l 134 537 q 112 499 104 467 q 96 435 96 402 l 96 402 q 96 333 124 290 q 151 247 200 227 q 249 207 315 207 l 315 207 l 327 207 q 394 207 439 233 q 483 259 506 303 q 528 346 528 398 l 528 398 q 528 447 505 481 q 481 515 423 515 l 423 515 q 387 515 364 500 q 340 485 329 461 q 317 436 317 407 l 317 407 q 317 365 331 330 q 344 294 361 260 q 377 226 391 192 q 404 158 404 119 l 404 119 q 404 89 392 59 q 379 29 348 9 q 316 -12 256 -12 l 256 -12 q 219 -12 180 -3 q 140 6 104 27 l 104 27 l 125 72 q 154 55 186 46 q 218 37 256 37 l 256 37 q 309 37 329 61 q 349 84 349 119 l 349 119 q 349 158 336 191 q 322 224 305 257 q 288 290 275 326 q 262 362 262 407 z"},"വ":{"ha":927,"x_min":42,"x_max":852,"o":"m 328 562 l 328 562 q 396 562 448 541 q 500 519 535 481 q 570 443 588 391 q 605 339 605 279 l 605 279 q 605 216 589 170 q 572 124 548 91 q 523 58 496 34 l 496 34 l 487 48 l 796 48 l 796 550 l 852 550 l 852 0 l 450 0 l 428 40 q 458 62 485 93 q 512 124 530 169 q 547 214 547 274 l 547 274 q 547 342 523 396 q 498 450 449 482 q 399 513 325 513 l 325 513 q 251 513 202 481 q 152 449 126 395 q 100 340 100 275 l 100 275 q 100 218 116 174 q 131 130 160 96 q 188 62 228 35 l 228 35 l 196 -7 q 156 18 121 57 q 86 95 64 150 q 42 204 42 276 l 42 276 q 42 338 61 390 q 80 442 117 481 q 153 519 207 541 q 260 562 328 562 z"},"ശ":{"ha":999,"x_min":42,"x_max":957,"o":"m 661 562 l 661 562 q 730 562 785 539 q 840 516 879 474 q 917 431 937 373 q 957 314 957 243 l 957 243 q 957 153 932 97 q 906 40 862 14 q 818 -12 761 -12 l 761 -12 q 700 -12 661 16 q 621 44 602 91 q 582 137 582 192 l 582 192 q 582 287 632 340 q 682 392 763 392 l 763 392 q 812 392 849 369 q 885 346 909 310 q 932 274 941 232 l 941 232 l 922 226 q 913 255 893 282 q 872 309 842 327 q 811 344 772 344 l 772 344 q 704 344 671 303 q 638 262 638 194 l 638 194 q 638 149 651 113 q 663 77 690 57 q 717 36 762 36 l 762 36 q 807 36 838 58 q 869 79 886 126 q 903 172 903 246 l 903 246 q 903 253 902 266 q 901 279 899 291 l 899 291 q 898 296 899 303 q 900 309 899 313 l 899 313 q 889 367 859 413 q 829 458 780 486 q 730 513 663 513 l 663 513 q 616 513 581 502 q 546 491 522 470 l 522 470 q 486 439 472 390 q 457 340 457 261 l 457 261 l 457 249 q 457 171 446 125 q 434 78 405 45 l 405 45 q 382 18 347 3 q 312 -12 262 -12 l 262 -12 q 194 -12 145 21 q 95 53 69 115 q 42 176 42 261 l 42 261 q 42 332 61 386 q 79 439 113 482 q 147 524 192 560 l 192 560 l 227 519 q 190 491 161 456 q 132 420 116 373 q 100 325 100 261 l 100 261 q 100 190 120 140 q 140 90 176 64 q 212 37 259 37 l 259 37 q 302 37 327 50 q 351 62 366 83 l 366 83 q 388 113 394 160 q 400 207 400 269 l 400 269 l 400 282 q 400 362 418 414 q 436 465 475 500 l 475 500 q 508 531 555 547 q 601 562 661 562 z"},"ഷ":{"ha":1108,"x_min":35,"x_max":1033,"o":"m 215 337 l 215 337 q 274 337 314 314 q 354 290 375 251 q 396 212 396 166 l 396 166 q 396 122 381 89 q 366 55 340 34 l 340 34 l 331 48 l 665 48 l 672 0 l 310 0 l 289 37 q 315 63 328 92 q 341 120 341 158 l 341 158 q 341 218 308 254 q 274 289 215 289 l 215 289 q 176 289 148 271 q 120 253 106 225 q 91 196 91 162 l 91 162 q 91 120 107 89 q 123 58 157 32 l 157 32 l 126 -7 q 85 26 60 66 q 35 105 35 163 l 35 163 q 35 212 58 252 q 80 291 121 314 q 162 337 215 337 z m 1033 0 l 647 0 l 647 377 q 647 419 641 449 q 634 478 617 494 l 617 494 q 608 503 595 509 q 582 514 563 514 l 563 514 q 525 514 504 490 q 482 465 482 421 l 482 421 q 482 383 498 354 q 513 325 548 309 q 583 292 641 292 l 641 292 l 660 292 q 721 292 769 312 q 817 332 855 368 q 893 403 924 450 q 954 497 979 550 l 979 550 l 1033 550 l 1033 0 z m 564 562 l 564 562 q 591 562 613 556 q 634 550 650 537 l 650 537 q 678 516 691 481 q 703 445 703 385 l 703 385 l 703 48 l 977 48 l 977 365 q 977 380 978 401 q 978 421 979 441 q 979 461 981 474 l 981 474 l 984 474 q 954 403 907 352 q 860 300 800 272 q 740 244 668 244 l 668 244 l 647 244 q 572 244 523 266 q 474 288 450 328 q 425 368 425 420 l 425 420 q 425 458 442 490 q 458 522 489 542 q 520 562 564 562 z"},"സ":{"ha":1182,"x_min":42,"x_max":1140,"o":"m 602 562 l 602 562 q 643 562 676 549 q 708 535 731 509 l 731 509 q 748 491 759 467 q 770 443 777 405 q 783 367 783 308 l 783 308 l 783 271 q 783 204 790 159 q 796 113 816 83 l 816 83 q 832 62 856 50 q 880 37 923 37 l 923 37 q 971 37 1007 64 q 1043 90 1063 141 q 1083 191 1083 262 l 1083 262 q 1083 326 1067 373 q 1050 420 1022 456 q 993 491 956 519 l 956 519 l 990 560 q 1036 524 1070 482 q 1104 439 1122 386 q 1140 332 1140 261 l 1140 261 q 1140 176 1114 115 q 1087 53 1038 21 q 989 -12 921 -12 l 921 -12 q 871 -12 836 3 q 801 18 778 45 l 778 45 q 758 68 747 95 q 736 122 731 160 q 726 198 726 251 l 726 251 l 726 293 q 726 369 718 410 q 709 450 689 474 l 689 474 q 675 493 652 503 q 629 513 596 513 l 596 513 q 568 513 547 504 q 526 495 510 479 l 510 479 q 488 456 478 418 q 467 380 467 317 l 467 317 l 467 0 l 411 0 l 411 302 q 411 362 404 402 q 396 442 373 467 l 373 467 q 356 490 331 502 q 306 513 269 513 l 269 513 q 214 513 177 483 q 139 452 120 402 q 100 351 100 292 l 100 292 q 100 226 117 179 q 133 132 162 98 q 191 63 226 35 l 226 35 l 190 -7 q 148 28 115 68 q 81 108 62 162 q 42 216 42 292 l 42 292 q 42 366 69 427 q 95 488 146 525 q 197 562 272 562 l 272 562 q 342 562 382 529 q 422 495 443 437 l 443 437 l 437 438 q 455 499 497 531 q 539 562 602 562 z"},"ഹ":{"ha":1152,"x_min":35,"x_max":1110,"o":"m 215 337 l 215 337 q 274 337 314 314 q 354 290 375 251 q 396 212 396 166 l 396 166 q 396 122 381 89 q 366 55 340 34 l 340 34 l 331 48 l 667 48 l 681 0 l 310 0 l 289 37 q 315 63 328 92 q 341 120 341 158 l 341 158 q 341 218 308 254 q 274 289 215 289 l 215 289 q 176 289 148 271 q 120 253 106 225 q 91 196 91 162 l 91 162 q 91 120 107 89 q 123 58 157 32 l 157 32 l 126 -7 q 85 26 60 66 q 35 105 35 163 l 35 163 q 35 212 58 252 q 80 291 121 314 q 162 337 215 337 z m 831 562 l 831 562 q 900 562 952 541 q 1004 519 1039 481 q 1074 443 1092 391 q 1110 339 1110 279 l 1110 279 q 1110 207 1089 154 q 1068 100 1033 61 q 998 21 955 -8 l 955 -8 l 923 34 q 958 57 988 90 q 1017 123 1035 169 q 1052 214 1052 274 l 1052 274 q 1052 342 1027 396 q 1002 450 953 482 q 904 513 830 513 l 830 513 q 756 513 706 481 q 656 449 631 395 q 605 340 605 275 l 605 275 q 605 220 619 177 q 633 134 660 101 q 687 67 724 40 l 724 40 l 699 0 l 671 0 l 646 43 q 624 66 601 97 q 578 128 563 173 q 547 217 547 277 l 547 277 q 547 338 566 390 q 584 442 621 481 q 658 519 711 541 q 763 562 831 562 z"},"ഺ":{"ha":755,"x_min":23,"x_max":739,"o":"m 85 48 l 739 48 l 739 0 l 447 0 l 447 -202 l 390 -202 l 390 0 l 55 0 l 23 38 l 219 557 l 272 540 l 85 48 z"},"഻":{"ha":0,"x_min":-303,"x_max":-254,"o":"m -303 584 l -303 864 l -254 864 l -254 584 l -303 584 z"},"഼":{"ha":0,"x_min":-233,"x_max":21,"o":"m -233 723 l -233 723 q -233 777 -198 814 q -164 850 -107 850 l -107 850 q -48 850 -13 814 q 21 778 21 723 l 21 723 q 21 669 -13 633 q -48 596 -107 596 l -107 596 q -165 596 -199 633 q -233 669 -233 723 z m -184 724 l -184 724 q -184 689 -164 666 q -144 642 -107 642 l -107 642 q -68 642 -48 666 q -28 689 -28 724 l -28 724 q -28 759 -48 782 q -68 805 -107 805 l -107 805 q -144 805 -164 782 q -184 759 -184 724 z"},"ഽ":{"ha":441,"x_min":-84,"x_max":525,"o":"m 365 788 l 365 788 q 410 788 442 770 q 473 752 494 720 q 515 688 525 647 l 525 647 l 469 636 q 460 665 448 689 q 435 712 416 726 q 396 740 364 740 l 364 740 q 337 740 317 731 q 297 721 284 704 l 284 704 q 265 680 257 640 q 249 600 249 531 l 249 531 l 249 2 q 249 -67 239 -113 q 228 -159 201 -192 l 201 -192 q 180 -216 150 -230 q 119 -244 76 -244 l 76 -244 q 32 -244 1 -225 q -31 -207 -51 -175 q -72 -143 -84 -102 l -84 -102 l -27 -92 q -18 -120 -5 -143 q 7 -167 27 -181 q 46 -196 77 -196 l 77 -196 q 105 -196 125 -186 q 144 -176 158 -159 l 158 -159 q 178 -135 185 -97 q 192 -59 192 7 l 192 7 l 192 535 q 192 614 203 659 q 213 703 239 735 l 239 735 q 260 759 292 774 q 324 788 365 788 z"},"ാ":{"ha":477,"x_min":21,"x_max":433,"o":"m 433 277 l 433 277 q 433 217 422 165 q 410 112 385 73 q 359 33 318 11 q 277 -12 219 -12 l 219 -12 q 173 -12 139 3 q 105 18 82 43 q 58 68 44 100 q 29 131 21 165 l 21 165 l 77 176 q 86 140 102 108 q 118 76 146 56 q 174 36 218 36 l 218 36 q 275 36 310 67 q 344 97 360 152 q 376 206 376 277 l 376 277 q 376 347 360 401 q 344 454 310 484 q 276 514 223 514 l 223 514 q 181 514 153 494 q 125 474 108 443 q 90 411 80 376 l 80 376 l 24 388 q 34 421 50 453 q 66 484 91 509 q 115 533 149 548 q 182 562 226 562 l 226 562 q 283 562 323 539 q 362 516 387 476 q 411 436 422 385 q 433 333 433 277 z"},"ി":{"ha":206,"x_min":-204,"x_max":131,"o":"m -45 843 l -45 843 q -11 843 16 835 q 42 826 63 809 l 63 809 q 88 788 103 760 q 118 731 125 688 q 131 644 131 575 l 131 575 l 131 0 l 75 0 l 75 554 q 75 602 73 642 q 70 681 62 712 q 53 742 36 762 l 36 762 q 22 778 3 787 q -16 795 -44 795 l -44 795 q -72 795 -96 784 q -120 772 -133 748 q -147 724 -147 686 l -147 686 q -147 674 -145 662 q -144 649 -142 639 l -142 639 l -197 629 q -199 642 -201 656 q -204 670 -204 684 l -204 684 q -204 735 -183 771 q -163 806 -126 825 q -90 843 -45 843 z"},"ീ":{"ha":206,"x_min":-276,"x_max":131,"o":"m -109 843 l -109 843 q -69 843 -30 834 q 8 825 40 804 l 40 804 q 91 770 111 712 q 131 653 131 559 l 131 559 l 131 0 l 75 0 l 75 537 q 75 586 72 624 q 69 661 59 690 q 49 718 29 740 l 29 740 q 7 773 -28 786 q -63 799 -116 799 l -116 799 q -144 799 -168 789 q -193 779 -208 760 q -224 740 -224 710 l -224 710 q -224 679 -205 657 q -187 635 -149 635 l -149 635 q -106 635 -88 659 q -70 682 -70 713 l -70 713 q -70 743 -83 768 q -96 792 -121 809 l -121 809 l -58 800 q -41 784 -31 763 q -21 741 -21 710 l -21 710 q -21 678 -34 650 q -47 622 -75 606 q -104 589 -150 589 l -150 589 q -183 589 -212 603 q -241 617 -258 644 q -276 671 -276 711 l -276 711 q -276 750 -256 780 q -236 810 -198 827 q -161 843 -109 843 z"},"ു":{"ha":314,"x_min":-22,"x_max":317,"o":"m 148 -223 l 148 -223 q 70 -223 24 -176 q -22 -130 -22 -53 l -22 -53 q -22 -3 0 35 q 21 73 60 94 q 98 115 147 115 l 147 115 q 198 115 236 95 q 274 74 296 37 q 317 -1 317 -53 l 317 -53 q 317 -105 296 -143 q 274 -181 236 -202 q 198 -223 148 -223 z m 148 -177 l 148 -177 q 197 -177 230 -146 q 263 -115 263 -53 l 263 -53 q 263 7 231 38 q 198 69 147 69 l 147 69 q 97 69 65 38 q 33 7 33 -54 l 33 -54 q 33 -114 65 -145 q 97 -177 148 -177 z m 95 562 l 95 562 q 149 562 181 541 q 212 520 226 485 q 239 450 239 407 l 239 407 q 239 345 222 260 q 204 174 177 86 l 177 86 l 124 96 q 149 184 166 264 q 182 343 182 404 l 182 404 q 182 453 163 483 q 143 513 90 513 l 90 513 q 75 513 58 511 q 41 508 29 504 l 29 504 l 17 551 q 31 556 53 559 q 74 562 95 562 z"},"ൂ":{"ha":313,"x_min":-22,"x_max":317,"o":"m 147 -223 l 147 -223 q 70 -223 24 -176 q -22 -130 -22 -53 l -22 -53 q -22 -3 0 35 q 21 73 59 94 q 97 115 147 115 l 147 115 q 198 115 236 95 q 274 74 296 37 q 317 -1 317 -53 l 317 -53 q 317 -105 296 -143 q 274 -181 236 -202 q 197 -223 147 -223 z m 146 71 l 146 71 q 92 71 59 41 q 25 11 25 -54 l 25 -54 q 25 -115 59 -147 q 93 -179 147 -179 l 147 -179 q 200 -179 235 -147 q 270 -116 270 -53 l 270 -53 q 270 12 236 42 q 202 71 146 71 z m 147 -91 l 147 -91 q 90 -91 64 -60 q 37 -30 37 16 l 37 16 q 37 35 48 53 q 59 71 78 92 l 78 92 l 109 75 q 90 65 82 49 q 74 33 74 18 l 74 18 q 74 2 82 -12 q 89 -27 106 -36 q 122 -45 148 -45 l 148 -45 q 174 -45 190 -36 q 205 -27 213 -12 q 221 2 221 18 l 221 18 q 221 32 213 47 q 205 62 186 72 l 186 72 l 218 92 q 238 71 249 54 q 259 37 259 15 l 259 15 q 259 -13 248 -37 q 237 -61 213 -76 q 188 -91 147 -91 z m 95 562 l 95 562 q 149 562 181 541 q 212 520 226 485 q 239 450 239 407 l 239 407 q 239 345 222 260 q 204 174 177 86 l 177 86 l 124 96 q 149 184 166 264 q 182 343 182 404 l 182 404 q 182 453 163 483 q 143 513 90 513 l 90 513 q 75 513 58 511 q 41 508 29 504 l 29 504 l 17 551 q 31 556 53 559 q 74 562 95 562 z"},"ൃ":{"ha":216,"x_min":-138,"x_max":212,"o":"m 23 -307 l 23 -307 q -24 -307 -60 -290 q -96 -273 -117 -242 q -138 -211 -138 -169 l -138 -169 q -138 -108 -94 -72 q -51 -36 15 -36 l 15 -36 q 67 -36 109 -56 q 151 -76 190 -114 l 190 -114 l 177 -158 q 137 -117 98 -100 q 59 -84 18 -84 l 18 -84 q -26 -84 -54 -106 q -82 -128 -82 -171 l -82 -171 q -82 -213 -54 -236 q -26 -259 23 -259 l 23 -259 q 62 -259 93 -244 q 123 -229 141 -199 q 158 -170 158 -124 l 158 -124 q 158 -89 151 -55 q 143 -22 130 15 q 117 51 99 91 l 99 91 q 76 145 62 194 q 48 242 48 299 l 48 299 q 48 365 68 428 q 88 491 122 550 l 122 550 l 183 550 q 155 503 138 462 q 121 421 113 383 q 105 344 105 302 l 105 302 q 105 244 119 199 q 133 153 153 105 l 153 105 q 172 60 185 23 q 198 -15 205 -50 q 212 -86 212 -124 l 212 -124 q 212 -186 186 -226 q 160 -267 117 -287 q 74 -307 23 -307 z"},"ൄ":{"ha":216,"x_min":-251,"x_max":211,"o":"m -26 -307 l -26 -307 q -93 -307 -144 -291 q -195 -276 -223 -242 q -251 -208 -251 -153 l -251 -153 q -251 -106 -222 -74 q -194 -42 -145 -42 l -145 -42 q -109 -42 -89 -59 q -69 -77 -60 -105 l -60 -105 l -66 -102 q -55 -74 -34 -58 q -13 -42 19 -42 l 19 -42 q 49 -42 68 -53 q 87 -64 98 -81 q 108 -99 112 -118 q 116 -137 116 -154 l 116 -154 l 116 -175 l 69 -175 l 69 -163 q 69 -128 57 -108 q 45 -88 16 -88 l 16 -88 q -16 -88 -27 -109 q -39 -130 -39 -163 l -39 -163 l -39 -175 l -87 -175 l -87 -163 q -87 -130 -98 -109 q -109 -88 -141 -88 l -141 -88 q -169 -88 -184 -106 q -199 -124 -199 -155 l -199 -155 q -199 -210 -154 -234 q -110 -259 -25 -259 l -25 -259 q 61 -259 108 -228 q 155 -197 155 -124 l 155 -124 q 155 -90 149 -56 q 142 -23 129 14 q 116 50 98 91 l 98 91 q 75 145 62 194 q 48 243 48 299 l 48 299 q 48 365 68 428 q 88 491 122 550 l 122 550 l 183 550 q 155 503 138 462 q 121 421 113 383 q 105 344 105 302 l 105 302 q 105 244 119 199 q 133 154 153 106 l 153 106 q 172 61 185 23 q 198 -15 205 -50 q 211 -86 211 -124 l 211 -124 q 211 -190 181 -230 q 150 -271 97 -289 q 43 -307 -26 -307 z"},"െ":{"ha":687,"x_min":42,"x_max":645,"o":"m 227 -12 l 227 -12 q 177 -12 135 13 q 93 38 68 91 q 42 144 42 229 l 42 229 q 42 307 67 369 q 92 431 136 474 q 180 517 238 540 q 295 562 359 562 l 359 562 q 430 562 484 541 q 538 519 574 481 q 609 443 627 391 q 645 339 645 279 l 645 279 q 645 207 624 154 q 603 100 568 61 q 533 21 490 -8 l 490 -8 l 458 34 q 493 57 523 90 q 552 123 570 169 q 587 214 587 274 l 587 274 q 587 343 562 397 q 536 451 485 482 q 434 513 357 513 l 357 513 q 284 513 225 477 q 166 441 131 377 q 96 312 96 227 l 96 227 q 96 162 112 120 q 128 77 158 57 q 188 36 228 36 l 228 36 q 256 36 278 49 q 300 61 314 87 q 327 113 327 154 l 327 154 q 327 204 299 236 q 271 267 219 267 l 219 267 q 176 267 138 246 q 100 224 74 195 l 74 195 l 64 239 q 96 276 139 296 q 182 315 227 315 l 227 315 q 271 315 306 297 q 341 279 362 244 q 382 209 382 157 l 382 157 q 382 102 362 65 q 342 27 307 8 q 272 -12 227 -12 z"},"േ":{"ha":567,"x_min":42,"x_max":529,"o":"m 350 -12 l 350 -12 q 289 -12 234 5 q 178 22 135 58 q 92 93 67 148 q 42 203 42 279 l 42 279 q 42 353 68 407 q 94 460 139 495 q 183 529 238 546 q 293 562 351 562 l 351 562 q 412 562 452 545 q 491 528 510 499 q 529 469 529 431 l 529 431 q 529 390 513 363 q 496 335 468 321 q 440 306 407 306 l 407 306 q 360 306 331 324 q 301 341 288 370 q 275 399 275 433 l 275 433 q 275 460 285 483 q 294 505 310 523 l 310 523 l 372 531 q 350 514 337 488 q 324 462 324 434 l 324 434 q 324 401 343 377 q 361 352 404 352 l 404 352 q 441 352 459 374 q 477 396 477 430 l 477 430 q 477 474 445 496 q 413 518 368 518 l 368 518 q 358 518 349 518 q 339 518 328 517 l 328 517 q 262 514 210 485 q 158 455 129 403 q 100 351 100 278 l 100 278 q 100 207 127 155 q 153 102 203 72 q 252 41 320 34 l 320 34 q 332 34 342 34 q 351 33 363 33 l 363 33 q 392 33 417 43 q 442 52 457 72 q 472 92 472 122 l 472 122 q 472 154 454 176 q 436 198 397 198 l 397 198 q 355 198 337 173 q 318 148 318 119 l 318 119 q 318 90 330 66 q 342 41 364 23 l 364 23 l 302 32 q 287 49 278 72 q 269 94 269 122 l 269 122 q 269 153 283 181 q 296 209 325 227 q 353 244 397 244 l 397 244 q 432 244 461 230 q 489 216 507 189 q 525 162 525 121 l 525 121 q 525 82 505 52 q 485 22 446 5 q 407 -12 350 -12 z"},"ൈ":{"ha":1374,"x_min":42,"x_max":1332,"o":"m 227 -12 l 227 -12 q 177 -12 135 13 q 93 38 68 91 q 42 144 42 229 l 42 229 q 42 307 67 369 q 92 431 136 474 q 180 517 238 540 q 295 562 359 562 l 359 562 q 430 562 484 541 q 538 519 574 481 q 609 443 627 391 q 645 339 645 279 l 645 279 q 645 207 624 154 q 603 100 568 61 q 533 21 490 -8 l 490 -8 l 458 34 q 493 57 523 90 q 552 123 570 169 q 587 214 587 274 l 587 274 q 587 343 562 397 q 536 451 485 482 q 434 513 357 513 l 357 513 q 284 513 225 477 q 166 441 131 377 q 96 312 96 227 l 96 227 q 96 162 112 120 q 128 77 158 57 q 188 36 228 36 l 228 36 q 256 36 278 49 q 300 61 314 87 q 327 113 327 154 l 327 154 q 327 204 299 236 q 271 267 219 267 l 219 267 q 176 267 138 246 q 100 224 74 195 l 74 195 l 64 239 q 96 276 139 296 q 182 315 227 315 l 227 315 q 271 315 306 297 q 341 279 362 244 q 382 209 382 157 l 382 157 q 382 102 362 65 q 342 27 307 8 q 272 -12 227 -12 z m 914 -12 l 914 -12 q 864 -12 822 13 q 780 38 755 91 q 729 144 729 229 l 729 229 q 729 307 754 369 q 779 431 823 474 q 867 517 925 540 q 982 562 1046 562 l 1046 562 q 1117 562 1171 541 q 1225 519 1261 481 q 1296 443 1314 391 q 1332 339 1332 279 l 1332 279 q 1332 207 1311 154 q 1290 100 1255 61 q 1220 21 1177 -8 l 1177 -8 l 1145 34 q 1180 57 1210 90 q 1239 123 1257 169 q 1274 214 1274 274 l 1274 274 q 1274 343 1249 397 q 1223 451 1172 482 q 1121 513 1044 513 l 1044 513 q 971 513 912 477 q 853 441 818 377 q 783 312 783 227 l 783 227 q 783 162 799 120 q 815 77 845 57 q 875 36 915 36 l 915 36 q 943 36 965 49 q 987 61 1001 87 q 1014 113 1014 154 l 1014 154 q 1014 204 986 236 q 958 267 906 267 l 906 267 q 863 267 825 246 q 787 224 761 195 l 761 195 l 751 239 q 783 276 826 296 q 869 315 914 315 l 914 315 q 958 315 993 297 q 1028 279 1049 244 q 1069 209 1069 157 l 1069 157 q 1069 102 1049 65 q 1029 27 994 8 q 959 -12 914 -12 z"},"ൊ":{"ha":1333,"x_min":42,"x_max":1289,"o":"m 227 -12 l 227 -12 q 177 -12 135 13 q 93 38 68 91 q 42 144 42 229 l 42 229 q 42 307 67 369 q 92 431 136 474 q 180 517 238 540 q 295 562 359 562 l 359 562 q 430 562 484 541 q 538 519 574 481 q 609 443 627 391 q 645 339 645 279 l 645 279 q 645 207 624 154 q 603 100 568 61 q 533 21 490 -8 l 490 -8 l 458 34 q 493 57 523 90 q 552 123 570 169 q 587 214 587 274 l 587 274 q 587 343 562 397 q 536 451 485 482 q 434 513 357 513 l 357 513 q 284 513 225 477 q 166 441 131 377 q 96 312 96 227 l 96 227 q 96 162 112 120 q 128 77 158 57 q 188 36 228 36 l 228 36 q 256 36 278 49 q 300 61 314 87 q 327 113 327 154 l 327 154 q 327 204 299 236 q 271 267 219 267 l 219 267 q 176 267 138 246 q 100 224 74 195 l 74 195 l 64 239 q 96 276 139 296 q 182 315 227 315 l 227 315 q 271 315 306 297 q 341 279 362 244 q 382 209 382 157 l 382 157 q 382 102 362 65 q 342 27 307 8 q 272 -12 227 -12 z m 772 250 l 772 250 q 752 250 741 263 q 729 275 729 300 l 729 300 q 729 325 741 337 q 752 349 772 349 l 772 349 q 794 349 806 337 q 817 325 817 300 l 817 300 q 817 275 806 263 q 794 250 772 250 z m 1289 277 l 1289 277 q 1289 217 1278 165 q 1266 112 1241 73 q 1215 33 1174 11 q 1133 -12 1075 -12 l 1075 -12 q 1029 -12 995 3 q 961 18 938 43 q 914 68 900 100 q 885 131 877 165 l 877 165 l 933 176 q 942 140 958 108 q 974 76 1002 56 q 1030 36 1074 36 l 1074 36 q 1131 36 1166 67 q 1200 97 1216 152 q 1232 206 1232 277 l 1232 277 q 1232 347 1216 401 q 1200 454 1166 484 q 1132 514 1079 514 l 1079 514 q 1037 514 1009 494 q 981 474 964 443 q 946 411 936 376 l 936 376 l 880 388 q 890 421 906 453 q 922 484 947 509 q 971 533 1005 548 q 1038 562 1082 562 l 1082 562 q 1139 562 1179 539 q 1218 516 1243 476 q 1267 436 1278 385 q 1289 333 1289 277 z"},"ോ":{"ha":1199,"x_min":42,"x_max":1155,"o":"m 351 -12 l 351 -12 q 290 -12 235 5 q 179 22 136 58 q 93 93 68 148 q 43 203 43 279 l 43 279 q 43 353 69 407 q 95 460 140 495 q 184 529 239 546 q 294 562 352 562 l 352 562 q 413 562 453 545 q 492 528 511 499 q 530 469 530 431 l 530 431 q 530 390 514 363 q 497 335 469 321 q 441 306 408 306 l 408 306 q 361 306 332 324 q 302 341 289 370 q 276 399 276 433 l 276 433 q 276 460 286 483 q 295 505 311 523 l 311 523 l 373 531 q 351 514 338 488 q 325 462 325 434 l 325 434 q 325 401 344 377 q 362 352 405 352 l 405 352 q 442 352 460 374 q 478 396 478 430 l 478 430 q 478 474 446 496 q 414 518 369 518 l 369 518 q 359 518 350 518 q 340 518 329 517 l 329 517 q 263 514 211 485 q 159 455 130 403 q 101 351 101 278 l 101 278 q 101 207 128 155 q 154 102 204 72 q 253 41 321 34 l 321 34 q 333 34 343 34 q 352 33 364 33 l 364 33 q 393 33 418 43 q 443 52 458 72 q 473 92 473 122 l 473 122 q 473 154 455 176 q 437 198 398 198 l 398 198 q 356 198 338 173 q 319 148 319 119 l 319 119 q 319 90 331 66 q 343 41 365 23 l 365 23 l 303 32 q 288 49 279 72 q 270 94 270 122 l 270 122 q 270 153 284 181 q 297 209 326 227 q 354 244 398 244 l 398 244 q 433 244 462 230 q 490 216 508 189 q 526 162 526 121 l 526 121 q 526 82 506 52 q 486 22 447 5 q 408 -12 351 -12 z m 639 250 l 639 250 q 619 250 608 263 q 596 275 596 300 l 596 300 q 596 325 608 337 q 619 349 639 349 l 639 349 q 661 349 673 337 q 684 325 684 300 l 684 300 q 684 275 673 263 q 661 250 639 250 z m 1155 277 l 1155 277 q 1155 217 1144 165 q 1132 112 1107 73 q 1081 33 1040 11 q 999 -12 941 -12 l 941 -12 q 895 -12 861 3 q 827 18 804 43 q 780 68 766 100 q 751 131 743 165 l 743 165 l 799 176 q 808 140 824 108 q 840 76 868 56 q 896 36 940 36 l 940 36 q 997 36 1032 67 q 1066 97 1082 152 q 1098 206 1098 277 l 1098 277 q 1098 347 1082 401 q 1066 454 1032 484 q 998 514 945 514 l 945 514 q 903 514 875 494 q 847 474 830 443 q 812 411 802 376 l 802 376 l 746 388 q 756 421 772 453 q 788 484 813 509 q 837 533 871 548 q 904 562 948 562 l 948 562 q 1005 562 1045 539 q 1084 516 1109 476 q 1133 436 1144 385 q 1155 333 1155 277 z"},"ൌ":{"ha":1589,"x_min":42,"x_max":1546,"o":"m 227 -12 l 227 -12 q 177 -12 135 13 q 93 38 68 91 q 42 144 42 229 l 42 229 q 42 307 67 369 q 92 431 136 474 q 180 517 238 540 q 295 562 359 562 l 359 562 q 430 562 484 541 q 538 519 574 481 q 609 443 627 391 q 645 339 645 279 l 645 279 q 645 207 624 154 q 603 100 568 61 q 533 21 490 -8 l 490 -8 l 458 34 q 493 57 523 90 q 552 123 570 169 q 587 214 587 274 l 587 274 q 587 343 562 397 q 536 451 485 482 q 434 513 357 513 l 357 513 q 284 513 225 477 q 166 441 131 377 q 96 312 96 227 l 96 227 q 96 162 112 120 q 128 77 158 57 q 188 36 228 36 l 228 36 q 256 36 278 49 q 300 61 314 87 q 327 113 327 154 l 327 154 q 327 204 299 236 q 271 267 219 267 l 219 267 q 176 267 138 246 q 100 224 74 195 l 74 195 l 64 239 q 96 276 139 296 q 182 315 227 315 l 227 315 q 271 315 306 297 q 341 279 362 244 q 382 209 382 157 l 382 157 q 382 102 362 65 q 342 27 307 8 q 272 -12 227 -12 z m 772 250 l 772 250 q 752 250 741 263 q 729 275 729 300 l 729 300 q 729 325 741 337 q 752 349 772 349 l 772 349 q 794 349 806 337 q 817 325 817 300 l 817 300 q 817 275 806 263 q 794 250 772 250 z m 1356 562 l 1356 562 q 1417 562 1459 530 q 1501 498 1524 440 q 1546 381 1546 303 l 1546 303 q 1546 200 1517 130 q 1488 60 1431 24 q 1373 -12 1288 -12 l 1288 -12 q 1223 -12 1177 1 q 1130 13 1084 36 l 1084 36 l 1112 82 q 1153 60 1193 49 q 1232 37 1285 37 l 1285 37 q 1363 37 1407 71 q 1451 104 1470 164 q 1488 224 1488 303 l 1488 303 q 1488 410 1452 462 q 1416 513 1355 513 l 1355 513 q 1324 513 1303 503 q 1282 492 1269 473 l 1269 473 q 1253 452 1248 419 q 1242 386 1242 340 l 1242 340 l 1242 256 l 1186 256 l 1186 336 q 1186 387 1179 422 q 1172 456 1155 476 l 1155 476 q 1141 495 1120 504 q 1099 513 1073 513 l 1073 513 q 1014 513 984 474 q 954 434 954 374 l 954 374 q 954 342 959 316 q 963 290 971 263 l 971 263 l 918 252 q 908 281 903 315 q 897 348 897 378 l 897 378 q 897 429 917 471 q 936 513 975 538 q 1014 562 1072 562 l 1072 562 q 1126 562 1163 535 q 1200 508 1218 448 l 1218 448 l 1207 446 q 1226 508 1265 535 q 1304 562 1356 562 z"},"്":{"ha":0,"x_min":-274,"x_max":61,"o":"m -108 596 l -108 596 q -160 596 -197 615 q -234 633 -254 668 q -274 702 -274 752 l -274 752 q -274 766 -271 783 q -269 799 -266 812 l -266 812 l -216 802 q -219 791 -220 778 q -222 765 -222 753 l -222 753 q -222 712 -206 688 q -191 663 -165 653 q -140 643 -108 643 l -108 643 q -75 643 -48 654 q -22 664 -6 688 q 9 712 9 752 l 9 752 q 9 765 8 778 q 6 791 2 802 l 2 802 l 52 812 q 56 800 59 784 q 61 767 61 751 l 61 751 q 61 702 41 668 q 20 633 -18 615 q -56 596 -108 596 z"},"ൎ":{"ha":0,"x_min":-317,"x_max":-248,"o":"m -317 803 l -248 803 l -255 626 l -309 626 l -317 803 z"},"൏":{"ha":1199,"x_min":50,"x_max":1153,"o":"m 558 562 l 558 562 q 644 562 693 528 q 742 493 767 437 l 767 437 l 759 440 q 781 500 823 531 q 864 562 932 562 l 932 562 q 1006 562 1055 522 q 1104 481 1129 408 q 1153 335 1153 238 l 1153 238 q 1153 84 1097 -19 q 1040 -122 919 -174 q 797 -226 602 -226 l 602 -226 q 469 -226 374 -201 q 279 -176 216 -131 q 153 -87 117 -28 q 80 30 65 97 q 50 163 50 232 l 50 232 q 50 311 70 383 q 89 455 124 529 l 124 529 l 175 508 q 140 440 123 370 q 106 300 106 234 l 106 234 q 106 177 118 119 q 129 60 160 7 q 190 -46 246 -87 q 301 -128 389 -151 q 477 -175 604 -175 l 604 -175 q 735 -175 829 -149 q 922 -123 981 -71 q 1040 -20 1068 58 q 1096 135 1096 239 l 1096 239 q 1096 319 1078 381 q 1060 442 1024 478 q 988 513 933 513 l 933 513 q 894 513 869 502 q 844 490 827 467 l 827 467 q 805 442 797 403 q 789 363 789 298 l 789 298 l 789 0 l 733 0 l 733 309 q 733 377 718 416 q 703 454 675 477 l 675 477 q 653 496 626 505 q 599 513 557 513 l 557 513 q 481 513 426 477 q 371 440 342 378 q 312 315 312 236 l 312 236 l 312 227 q 312 163 329 121 q 345 78 375 57 q 404 36 444 36 l 444 36 q 472 36 494 49 q 516 61 530 87 q 543 112 543 153 l 543 153 q 543 205 515 236 q 487 267 435 267 l 435 267 q 392 267 354 246 q 316 224 290 195 l 290 195 l 280 239 q 312 276 356 296 q 399 315 443 315 l 443 315 q 487 315 522 297 q 557 279 578 244 q 598 209 598 157 l 598 157 q 598 102 578 65 q 558 27 523 8 q 488 -12 443 -12 l 443 -12 q 393 -12 351 13 q 309 38 284 92 q 259 146 259 233 l 259 233 q 259 336 298 410 q 336 483 404 523 q 471 562 558 562 z"},"ൔ":{"ha":617,"x_min":63,"x_max":607,"o":"m 164 792 l 164 792 q 196 792 220 784 q 243 776 259 763 l 259 763 q 284 744 294 716 q 303 688 303 641 l 303 641 l 303 505 q 303 452 309 410 q 315 367 333 329 q 351 291 387 250 l 387 250 l 403 234 q 437 196 487 151 q 536 106 607 47 l 607 47 l 583 0 l 63 0 l 63 257 q 63 306 70 347 q 77 388 92 422 q 107 456 131 484 l 131 484 q 162 520 207 541 q 251 562 307 562 l 307 562 q 367 562 406 537 q 444 512 462 473 q 480 434 480 392 l 480 392 q 480 347 462 303 q 443 259 407 217 l 407 217 l 395 204 q 369 175 337 146 q 305 117 268 88 q 231 59 190 29 l 190 29 l 188 44 q 217 46 247 47 q 276 48 312 48 l 312 48 l 464 48 q 483 48 502 48 q 520 48 538 48 q 555 47 569 44 l 569 44 l 542 42 q 487 86 444 125 q 401 163 367 199 l 367 199 l 355 212 q 313 260 290 303 q 266 345 257 391 q 248 437 248 493 l 248 493 l 248 633 q 248 672 241 693 q 234 714 218 726 l 218 726 q 208 734 193 739 q 178 743 157 743 l 157 743 q 136 743 117 741 q 97 738 82 733 l 82 733 l 69 780 q 87 785 113 789 q 138 792 164 792 z m 119 243 l 119 47 l 130 47 q 181 84 224 117 q 266 149 300 180 q 334 211 359 241 l 359 241 l 370 253 q 396 286 410 320 q 423 354 423 390 l 423 390 q 423 424 410 452 q 396 480 369 498 q 341 515 297 515 l 297 515 q 251 515 218 494 q 184 473 164 441 l 164 441 q 149 418 139 390 q 129 362 124 326 q 119 290 119 243 l 119 243 z"},"ൕ":{"ha":993,"x_min":42,"x_max":950,"o":"m 660 -12 l 660 -12 q 626 -12 597 -8 q 567 -4 541 5 q 515 13 490 27 l 490 27 q 486 29 480 32 q 473 35 470 37 l 470 37 q 418 71 383 117 q 348 162 331 218 q 313 274 313 336 l 313 336 q 313 378 323 415 q 333 452 353 480 l 353 480 l 359 489 q 376 513 399 529 q 421 545 449 554 q 476 562 507 562 l 507 562 q 598 562 649 501 q 700 440 700 334 l 700 334 q 700 269 682 214 q 664 158 631 115 q 597 71 549 42 l 549 42 q 544 38 539 35 q 533 32 527 28 l 527 28 q 490 8 449 -2 q 408 -12 358 -12 l 358 -12 q 282 -12 224 14 q 165 40 125 87 q 84 134 63 197 q 42 259 42 333 l 42 333 q 42 406 69 457 q 96 508 142 535 q 188 562 245 562 l 245 562 q 302 562 339 541 q 376 520 401 490 l 401 490 l 363 451 q 345 477 318 496 q 290 514 246 514 l 246 514 q 206 514 173 495 q 139 475 119 434 q 99 393 99 331 l 99 331 q 99 251 129 184 q 159 117 217 76 q 275 35 362 35 l 362 35 q 394 35 420 40 q 446 44 470 52 l 470 52 q 478 55 485 58 q 492 61 499 64 l 499 64 q 542 86 575 125 q 607 164 625 218 q 643 271 643 334 l 643 334 q 643 399 625 439 q 607 478 576 496 q 545 514 507 514 l 507 514 q 465 514 434 492 q 403 470 387 430 q 370 389 370 333 l 370 333 q 370 275 388 222 q 405 169 438 128 q 471 87 516 62 l 516 62 q 523 60 529 59 q 534 57 541 54 l 541 54 q 562 46 591 41 q 619 35 658 35 l 658 35 q 746 35 798 65 q 849 95 871 145 q 893 195 893 253 l 893 253 q 893 298 881 336 q 868 374 847 409 q 826 443 800 477 l 800 477 q 770 516 750 546 q 729 576 719 604 q 709 632 709 664 l 709 664 q 709 692 722 722 q 735 752 766 772 q 797 792 851 792 l 851 792 q 879 792 905 788 q 931 784 950 778 l 950 778 l 936 731 q 919 737 899 740 q 879 743 857 743 l 857 743 q 809 743 788 718 q 766 692 766 658 l 766 658 q 766 636 776 614 q 785 592 804 566 q 822 539 849 504 l 849 504 q 879 466 902 428 q 924 389 937 347 q 950 305 950 257 l 950 257 q 950 209 939 168 q 927 126 905 93 q 882 60 847 37 q 812 13 766 1 q 719 -12 660 -12 z"},"ൖ":{"ha":671,"x_min":40,"x_max":631,"o":"m 171 153 l 171 153 q 171 122 182 96 q 193 69 220 53 q 246 37 293 37 l 293 37 q 352 37 374 61 q 395 84 395 119 l 395 119 q 395 158 382 191 q 369 224 353 257 q 336 290 323 326 q 310 362 310 407 l 310 407 q 310 448 328 483 q 345 518 381 540 q 416 562 470 562 l 470 562 q 528 562 564 538 q 599 514 615 476 q 631 438 631 396 l 631 396 q 631 330 599 277 q 567 223 504 192 q 441 160 349 160 l 349 160 l 333 160 q 280 160 238 169 q 196 178 161 197 l 161 197 l 140 206 q 107 227 85 256 q 63 284 52 321 q 40 357 40 400 l 40 400 q 40 440 52 481 q 63 521 89 562 l 89 562 l 134 537 q 113 500 105 468 q 96 435 96 401 l 96 401 q 96 352 111 318 q 125 283 152 259 l 152 259 l 171 247 q 201 227 243 217 q 284 207 333 207 l 333 207 l 350 207 q 428 207 478 233 q 527 259 551 303 q 575 346 575 398 l 575 398 q 575 447 551 481 q 527 515 469 515 l 469 515 q 433 515 410 500 q 386 485 375 461 q 364 436 364 407 l 364 407 q 364 366 377 330 q 390 294 407 261 q 424 227 437 192 q 450 157 450 119 l 450 119 q 450 97 443 74 q 436 51 419 32 q 402 12 371 0 q 340 -12 292 -12 l 292 -12 q 235 -12 196 8 q 157 28 137 67 q 117 105 117 159 l 117 159 q 117 203 132 247 q 146 290 170 337 q 194 384 224 436 l 224 436 q 256 494 274 533 q 292 571 299 599 q 306 627 306 654 l 306 654 q 306 694 285 719 q 264 743 215 743 l 215 743 q 191 743 171 740 q 151 737 136 732 l 136 732 l 123 779 q 140 784 167 788 q 193 792 221 792 l 221 792 q 275 792 306 773 q 336 753 350 723 q 363 693 363 661 l 363 661 q 363 636 359 612 q 355 588 345 561 q 334 533 316 497 q 297 461 268 411 l 268 411 q 246 373 228 340 q 210 307 198 276 q 185 245 178 215 q 171 185 171 153 z"},"ൗ":{"ha":731,"x_min":39,"x_max":688,"o":"m 498 562 l 498 562 q 559 562 601 530 q 643 498 666 440 q 688 381 688 303 l 688 303 q 688 200 659 130 q 630 60 573 24 q 515 -12 430 -12 l 430 -12 q 365 -12 319 1 q 272 13 226 36 l 226 36 l 254 82 q 295 60 335 49 q 374 37 427 37 l 427 37 q 505 37 549 71 q 593 104 612 164 q 630 224 630 303 l 630 303 q 630 410 594 462 q 558 513 497 513 l 497 513 q 466 513 445 503 q 424 492 411 473 l 411 473 q 395 452 390 419 q 384 386 384 340 l 384 340 l 384 256 l 328 256 l 328 336 q 328 387 321 422 q 314 456 297 476 l 297 476 q 283 495 262 504 q 241 513 215 513 l 215 513 q 156 513 126 474 q 96 434 96 374 l 96 374 q 96 342 101 316 q 105 290 113 263 l 113 263 l 60 252 q 50 281 45 315 q 39 348 39 378 l 39 378 q 39 429 59 471 q 78 513 117 538 q 156 562 214 562 l 214 562 q 268 562 305 535 q 342 508 360 448 l 360 448 l 349 446 q 368 508 407 535 q 446 562 498 562 z"},"൘":{"ha":1179,"x_min":42,"x_max":1131,"o":"m 588 -12 l 588 -12 q 524 -12 482 23 q 440 57 420 113 l 420 113 l 427 113 q 408 54 369 21 q 329 -12 263 -12 l 263 -12 q 197 -12 147 22 q 97 55 70 117 q 42 178 42 260 l 42 260 q 42 334 62 388 q 81 442 114 483 q 147 523 189 558 l 189 558 l 226 515 q 190 488 162 454 q 133 419 117 373 q 100 326 100 260 l 100 260 q 100 197 120 146 q 139 95 176 66 q 212 37 263 37 l 263 37 q 295 37 319 49 q 342 60 359 82 l 359 82 q 380 109 388 150 q 396 190 396 248 l 396 248 l 396 550 l 452 550 l 452 238 q 452 178 461 142 q 470 105 490 80 l 490 80 q 506 61 531 49 q 556 37 587 37 l 587 37 q 622 37 646 49 q 670 60 685 79 l 685 79 q 705 103 713 139 q 721 175 721 234 l 721 234 l 721 550 l 777 550 l 777 249 l 753 113 q 738 55 697 22 q 655 -12 588 -12 z m 915 -12 l 915 -12 q 851 -12 810 20 q 769 51 745 113 l 745 113 l 732 231 l 732 540 l 777 540 l 777 244 q 777 184 785 147 q 793 109 814 83 l 814 83 q 831 61 856 49 q 880 37 914 37 l 914 37 q 965 37 1001 69 q 1036 100 1055 162 q 1074 224 1074 316 l 1074 316 q 1074 409 1054 485 q 1033 560 993 618 q 953 676 896 715 q 839 754 766 774 q 693 794 605 794 l 605 794 q 534 794 473 787 q 412 779 364 766 l 364 766 l 355 815 q 390 824 429 831 q 468 837 513 840 q 557 843 606 843 l 606 843 q 702 843 783 822 q 864 800 929 757 q 993 714 1039 651 q 1084 587 1108 504 q 1131 420 1131 317 l 1131 317 q 1131 209 1106 136 q 1081 62 1033 25 q 984 -12 915 -12 z"},"൙":{"ha":1071,"x_min":42,"x_max":1050,"o":"m 349 562 l 349 562 q 428 562 487 538 q 546 513 586 469 q 625 425 645 366 q 664 307 664 238 l 664 238 q 664 148 639 93 q 614 38 570 13 q 525 -12 467 -12 l 467 -12 q 409 -12 372 11 q 334 34 316 71 q 298 107 298 147 l 298 147 q 298 188 314 218 q 329 248 356 268 l 356 268 q 378 285 406 296 q 434 306 474 311 q 514 316 570 316 l 570 316 l 613 316 l 613 268 l 573 268 q 505 268 462 261 q 419 253 391 230 l 391 230 q 373 216 364 196 q 354 175 354 147 l 354 147 q 354 96 384 66 q 413 36 466 36 l 466 36 q 514 36 546 57 q 577 78 593 123 q 609 168 609 241 l 609 241 q 609 256 608 269 q 606 282 604 295 l 604 295 l 604 305 q 594 368 563 415 q 531 461 478 487 q 425 513 349 513 l 349 513 q 278 513 222 486 q 165 459 133 406 q 100 353 100 275 l 100 275 q 100 218 116 174 q 131 130 160 96 q 188 62 228 35 l 228 35 l 196 -7 q 156 18 121 57 q 86 95 64 150 q 42 204 42 276 l 42 276 q 42 332 61 384 q 79 435 117 476 q 155 516 213 539 q 270 562 349 562 z m 901 550 l 901 550 q 953 550 986 531 q 1018 511 1034 480 q 1050 449 1050 413 l 1050 413 q 1050 377 1038 351 q 1026 325 1005 307 l 1005 307 q 987 292 965 284 q 943 275 916 272 q 888 268 854 268 l 854 268 l 598 268 l 598 316 l 852 316 q 894 316 919 321 q 943 326 959 338 l 959 338 q 975 349 984 367 q 993 385 993 411 l 993 411 q 993 452 970 478 q 947 503 902 503 l 902 503 q 851 503 825 474 q 799 445 799 396 l 799 396 q 799 362 810 336 q 820 309 836 285 l 836 285 l 781 280 q 765 307 755 337 q 744 366 744 403 l 744 403 q 744 450 765 483 q 786 516 822 533 q 857 550 901 550 z"},"൚":{"ha":1039,"x_min":42,"x_max":976,"o":"m 693 562 l 693 562 q 758 562 807 547 q 855 532 889 502 l 889 502 q 918 478 938 444 q 957 410 967 365 q 976 319 976 258 l 976 258 l 976 0 l 474 0 l 474 47 q 550 103 610 163 q 670 223 705 284 q 740 345 740 403 l 740 403 q 740 431 731 456 q 721 480 701 496 q 680 511 645 511 l 645 511 q 604 511 572 493 q 539 474 518 446 l 518 446 q 489 409 479 365 q 468 320 468 254 l 468 254 l 468 230 l 411 230 l 411 302 q 411 363 403 402 q 395 441 373 466 l 373 466 q 356 489 332 501 q 307 513 271 513 l 271 513 q 216 513 178 483 q 140 453 120 403 q 100 352 100 290 l 100 290 q 100 226 117 179 q 133 131 162 97 q 190 63 226 35 l 226 35 l 189 -7 q 147 28 114 69 q 81 109 62 163 q 42 216 42 290 l 42 290 q 42 372 71 433 q 99 494 151 528 q 202 562 272 562 l 272 562 q 333 562 370 539 q 406 515 426 479 q 445 443 456 404 l 456 404 l 436 403 q 456 462 494 497 q 532 531 583 547 q 634 562 693 562 z m 796 399 l 796 399 q 796 337 763 276 q 730 214 671 153 q 612 91 533 27 l 533 27 l 534 44 q 565 46 604 47 q 642 48 678 48 l 678 48 l 920 48 l 920 251 q 920 330 902 387 q 883 443 841 476 q 798 508 727 515 l 727 515 l 726 522 q 765 503 781 472 q 796 440 796 399 z"},"൛":{"ha":927,"x_min":75,"x_max":885,"o":"m 599 -12 l 599 -12 q 531 -12 479 10 q 427 31 392 70 q 357 108 340 160 q 322 211 322 271 l 322 271 q 322 335 339 381 q 355 427 380 460 q 405 493 431 516 l 431 516 l 440 502 l 132 502 l 132 0 l 75 0 l 75 550 l 477 550 l 499 510 q 470 489 443 458 q 415 426 398 382 q 380 337 380 276 l 380 276 q 380 209 405 155 q 429 100 479 69 q 528 37 602 37 l 602 37 q 676 37 726 70 q 776 102 802 156 q 827 210 827 276 l 827 276 q 827 333 812 377 q 796 421 768 455 q 740 489 699 516 l 699 516 l 731 558 q 772 533 807 494 q 841 455 863 401 q 885 347 885 274 l 885 274 q 885 213 866 161 q 847 109 811 70 q 774 31 721 10 q 667 -12 599 -12 z"},"൜":{"ha":1465,"x_min":42,"x_max":1423,"o":"m 884 562 l 884 562 q 929 562 962 549 q 994 536 1017 509 l 1017 509 q 1033 490 1044 466 q 1054 441 1060 402 q 1065 362 1065 299 l 1065 299 l 1065 271 q 1065 204 1072 159 q 1078 113 1099 83 l 1099 83 q 1114 62 1139 50 q 1163 37 1206 37 l 1206 37 q 1254 37 1290 64 q 1326 90 1346 141 q 1365 191 1365 262 l 1365 262 q 1365 326 1349 373 q 1333 420 1305 456 q 1276 491 1239 519 l 1239 519 l 1273 560 q 1319 524 1353 482 q 1386 439 1405 386 q 1423 332 1423 261 l 1423 261 q 1423 176 1397 115 q 1370 53 1321 21 q 1271 -12 1203 -12 l 1203 -12 q 1153 -12 1118 3 q 1083 18 1060 45 l 1060 45 q 1041 68 1030 95 q 1018 122 1014 160 q 1009 197 1009 249 l 1009 249 l 1009 295 q 1009 364 1002 408 q 995 451 973 477 l 973 477 q 958 495 936 504 q 914 513 885 513 l 885 513 q 857 513 835 505 q 812 496 797 477 l 797 477 q 775 451 768 407 q 761 362 761 289 l 761 289 l 761 251 q 761 190 756 150 q 750 110 739 84 q 727 58 710 39 l 710 39 q 687 14 655 1 q 623 -12 581 -12 l 581 -12 q 536 -12 504 2 q 471 15 448 42 l 448 42 q 432 61 422 86 q 411 110 406 150 q 400 189 400 251 l 400 251 l 400 279 q 400 347 394 393 q 388 438 366 467 l 366 467 q 351 489 327 501 q 303 513 259 513 l 259 513 q 212 513 176 487 q 140 460 120 411 q 100 361 100 290 l 100 290 q 100 226 116 179 q 132 131 161 96 q 190 61 226 32 l 226 32 l 192 -9 q 147 28 113 70 q 79 112 61 166 q 42 220 42 290 l 42 290 q 42 375 69 436 q 95 497 145 530 q 194 562 262 562 l 262 562 q 312 562 347 548 q 382 533 405 506 l 405 506 q 424 483 436 456 q 447 428 452 391 q 456 354 456 300 l 456 300 l 456 256 q 456 186 464 143 q 471 100 492 74 l 492 74 q 507 56 530 47 q 552 37 580 37 l 580 37 q 608 37 631 46 q 653 55 668 73 l 668 73 q 690 100 697 144 q 704 187 704 256 l 704 256 l 704 299 q 704 362 710 402 q 715 442 727 468 q 738 493 755 512 l 755 512 q 778 538 810 550 q 842 562 884 562 z"},"൝":{"ha":1956,"x_min":10,"x_max":1914,"o":"m 767 562 l 767 562 q 811 562 844 549 q 877 536 900 509 l 900 509 q 916 490 927 466 q 937 441 943 402 q 948 362 948 299 l 948 299 l 948 256 q 948 186 955 143 q 962 100 984 74 l 984 74 q 999 56 1021 47 q 1043 37 1071 37 l 1071 37 q 1100 37 1122 46 q 1144 55 1159 73 l 1159 73 q 1181 100 1189 144 q 1196 187 1196 256 l 1196 256 l 1196 299 q 1196 362 1202 402 q 1207 442 1219 468 q 1230 493 1247 512 l 1247 512 q 1269 538 1302 550 q 1334 562 1376 562 l 1376 562 q 1420 562 1453 549 q 1486 536 1509 509 l 1509 509 q 1525 490 1536 466 q 1546 441 1552 402 q 1557 362 1557 299 l 1557 299 l 1557 271 q 1557 204 1564 159 q 1570 113 1590 83 l 1590 83 q 1606 62 1630 50 q 1654 37 1697 37 l 1697 37 q 1745 37 1781 64 q 1817 90 1837 141 q 1857 191 1857 262 l 1857 262 q 1857 326 1841 373 q 1824 420 1796 456 q 1767 491 1730 519 l 1730 519 l 1764 560 q 1810 524 1844 482 q 1878 439 1896 386 q 1914 332 1914 261 l 1914 261 q 1914 176 1888 115 q 1861 53 1812 21 q 1763 -12 1695 -12 l 1695 -12 q 1645 -12 1610 3 q 1575 18 1552 45 l 1552 45 q 1532 68 1521 95 q 1510 122 1505 160 q 1500 197 1500 249 l 1500 249 l 1500 295 q 1500 364 1493 408 q 1486 451 1464 477 l 1464 477 q 1449 495 1427 504 q 1405 513 1377 513 l 1377 513 q 1348 513 1326 505 q 1304 496 1289 477 l 1289 477 q 1267 451 1260 407 q 1252 362 1252 289 l 1252 289 l 1252 251 q 1252 190 1247 150 q 1241 110 1230 84 q 1219 58 1201 39 l 1201 39 q 1179 14 1147 1 q 1114 -12 1072 -12 l 1072 -12 q 1028 -12 996 2 q 963 15 939 42 l 939 42 q 924 61 913 86 q 902 110 897 150 q 891 189 891 251 l 891 251 l 891 295 q 891 364 884 408 q 877 451 855 477 l 855 477 q 840 495 818 504 q 796 513 768 513 l 768 513 q 739 513 717 505 q 695 496 680 477 l 680 477 q 658 451 651 407 q 643 362 643 289 l 643 289 l 643 238 q 643 161 632 118 q 620 75 593 45 l 593 45 q 568 17 534 3 q 499 -12 450 -12 l 450 -12 q 384 -12 342 24 q 300 60 283 124 l 283 124 l 297 114 q 285 77 263 49 q 240 20 205 4 q 170 -12 120 -12 l 120 -12 q 92 -12 65 -5 q 37 1 10 15 l 10 15 l 30 60 q 49 50 72 44 q 94 37 121 37 l 121 37 q 160 37 185 50 q 210 62 227 84 l 227 84 q 249 110 257 149 q 264 187 264 249 l 264 249 l 264 550 l 321 550 l 321 230 q 321 171 331 132 q 341 93 364 70 l 364 70 q 380 54 402 46 q 423 37 451 37 l 451 37 q 488 37 513 50 q 537 63 552 83 l 552 83 q 571 109 579 151 q 587 193 587 271 l 587 271 l 587 299 q 587 362 593 402 q 598 442 610 468 q 621 493 638 512 l 638 512 q 660 538 693 550 q 725 562 767 562 z"},"൞":{"ha":1311,"x_min":42,"x_max":1281,"o":"m 349 562 l 349 562 q 428 562 487 538 q 546 513 586 469 q 625 425 645 366 q 664 307 664 238 l 664 238 q 664 148 639 93 q 614 38 570 13 q 525 -12 467 -12 l 467 -12 q 409 -12 372 11 q 334 34 316 71 q 298 107 298 147 l 298 147 q 298 188 314 218 q 329 248 356 268 l 356 268 q 378 285 406 296 q 434 306 474 311 q 514 316 570 316 l 570 316 l 617 316 l 617 268 l 573 268 q 505 268 462 261 q 419 253 391 230 l 391 230 q 373 216 364 196 q 354 175 354 147 l 354 147 q 354 96 384 66 q 413 36 466 36 l 466 36 q 514 36 546 57 q 577 78 593 123 q 609 168 609 241 l 609 241 q 609 256 608 269 q 606 282 604 295 l 604 295 l 604 305 q 594 368 563 415 q 531 461 478 487 q 425 513 349 513 l 349 513 q 278 513 222 486 q 165 459 133 406 q 100 353 100 275 l 100 275 q 100 218 116 174 q 131 130 160 96 q 188 62 228 35 l 228 35 l 196 -7 q 156 18 121 57 q 86 95 64 150 q 42 204 42 276 l 42 276 q 42 332 61 384 q 79 435 117 476 q 155 516 213 539 q 270 562 349 562 z m 1101 214 l 1101 214 q 1043 214 1003 238 q 962 261 941 300 q 920 339 920 385 l 920 385 q 920 429 936 463 q 951 496 976 517 l 976 517 l 985 503 l 772 503 l 792 514 q 813 491 824 463 q 835 435 835 408 l 835 408 q 835 350 808 320 q 780 289 735 279 q 689 268 635 268 l 635 268 l 603 268 l 603 316 l 633 316 q 672 316 706 322 q 739 327 760 347 q 781 367 781 410 l 781 410 q 781 437 771 459 q 760 481 741 503 l 741 503 l 758 550 l 1006 550 l 1027 514 q 1001 488 988 460 q 975 431 975 393 l 975 393 q 975 333 1009 298 q 1042 262 1101 262 l 1101 262 q 1140 262 1168 280 q 1196 297 1211 326 q 1225 355 1225 389 l 1225 389 q 1225 431 1209 462 q 1193 493 1159 518 l 1159 518 l 1190 558 q 1231 525 1256 486 q 1281 446 1281 388 l 1281 388 q 1281 339 1259 300 q 1236 260 1196 237 q 1155 214 1101 214 z"},"ൟ":{"ha":1281,"x_min":32,"x_max":1249,"o":"m 32 266 l 32 266 q 32 320 67 357 q 101 393 158 393 l 158 393 q 217 393 252 357 q 286 321 286 266 l 286 266 q 286 212 252 176 q 217 139 158 139 l 158 139 q 100 139 66 176 q 32 213 32 266 z m 81 267 l 81 267 q 81 232 101 209 q 121 185 158 185 l 158 185 q 197 185 217 209 q 237 232 237 267 l 237 267 q 237 302 217 325 q 197 348 158 348 l 158 348 q 121 348 101 325 q 81 302 81 267 z m 995 266 l 995 266 q 995 320 1030 357 q 1064 393 1121 393 l 1121 393 q 1180 393 1215 357 q 1249 321 1249 266 l 1249 266 q 1249 212 1215 176 q 1180 139 1121 139 l 1121 139 q 1063 139 1029 176 q 995 213 995 266 z m 1044 267 l 1044 267 q 1044 232 1064 209 q 1084 185 1121 185 l 1121 185 q 1160 185 1180 209 q 1200 232 1200 267 l 1200 267 q 1200 302 1180 325 q 1160 348 1121 348 l 1121 348 q 1084 348 1064 325 q 1044 302 1044 267 z m 636 562 l 636 562 q 714 562 773 539 q 832 515 872 472 q 911 428 931 370 q 951 312 951 243 l 951 243 q 951 153 926 97 q 900 40 856 14 q 811 -12 755 -12 l 755 -12 q 694 -12 655 16 q 615 44 596 91 q 576 137 576 192 l 576 192 q 576 287 626 340 q 676 392 756 392 l 756 392 q 806 392 843 369 q 879 346 903 310 q 926 274 934 232 l 934 232 l 916 226 q 906 255 886 282 q 865 309 835 327 q 805 344 765 344 l 765 344 q 697 344 664 303 q 631 262 631 194 l 631 194 q 631 149 644 113 q 656 77 684 57 q 711 36 756 36 l 756 36 q 800 36 832 58 q 863 79 880 126 q 896 172 896 246 l 896 246 q 896 253 895 266 q 894 279 892 291 l 892 291 q 892 296 892 303 q 892 309 891 313 l 891 313 q 882 366 853 412 q 823 457 770 485 q 716 513 636 513 l 636 513 q 565 513 509 486 q 452 459 420 406 q 387 353 387 275 l 387 275 q 387 218 403 174 q 418 130 447 96 q 475 62 515 35 l 515 35 l 483 -7 q 443 18 408 57 q 373 95 351 150 q 329 204 329 276 l 329 276 q 329 332 348 384 q 366 435 404 476 q 442 516 500 539 q 557 562 636 562 z"},"ൠ":{"ha":836,"x_min":39,"x_max":797,"o":"m 627 562 l 627 562 q 706 562 752 508 q 797 454 797 364 l 797 364 q 797 293 774 244 q 751 194 708 161 l 708 161 q 673 133 627 121 q 580 108 521 104 l 521 104 l 439 105 l 397 106 l 327 102 q 269 104 222 115 q 175 126 139 152 l 139 152 q 92 186 66 239 q 39 291 39 362 l 39 362 q 39 423 61 468 q 82 513 122 538 q 161 562 216 562 l 216 562 q 266 562 300 541 q 334 520 351 486 q 368 451 368 409 l 368 409 q 368 369 352 336 q 335 303 302 284 q 268 264 218 264 l 218 264 q 178 264 148 276 q 118 287 96 305 q 74 323 57 342 l 57 342 l 73 384 q 86 368 104 351 q 122 334 148 323 q 174 311 211 311 l 211 311 q 264 311 289 339 q 314 366 314 410 l 314 410 q 314 454 290 484 q 265 514 214 514 l 214 514 q 172 514 145 495 q 117 475 104 441 q 91 407 91 364 l 91 364 q 91 355 92 347 q 93 338 94 329 l 94 329 l 91 318 q 102 269 127 235 q 151 200 190 179 q 228 158 283 149 q 337 140 408 140 l 408 140 l 423 140 q 498 140 554 150 q 610 159 649 180 q 687 201 711 235 q 734 269 745 318 l 745 318 l 742 329 q 743 337 744 346 q 745 354 745 359 l 745 359 q 745 406 732 441 q 719 476 693 495 q 666 514 625 514 l 625 514 q 572 514 547 484 q 522 454 522 410 l 522 410 q 522 366 547 339 q 572 311 625 311 l 625 311 q 662 311 688 322 q 714 333 732 350 q 750 366 763 381 l 763 381 l 779 341 q 763 322 741 305 q 718 287 688 276 q 658 264 618 264 l 618 264 q 568 264 534 284 q 500 303 484 337 q 468 370 468 410 l 468 410 q 468 451 486 486 q 503 521 539 542 q 574 562 627 562 z m 419 -208 l 419 -208 q 298 -208 221 -189 q 144 -171 108 -132 q 71 -94 71 -33 l 71 -33 q 71 12 95 43 q 118 73 159 91 q 200 109 254 117 q 308 124 368 124 l 368 124 l 465 124 q 527 124 582 117 q 636 109 677 91 q 718 73 742 42 q 765 11 765 -35 l 765 -35 q 765 -91 731 -129 q 696 -168 621 -188 q 545 -208 419 -208 z m 419 -161 l 419 -161 q 527 -161 590 -146 q 653 -132 681 -103 q 708 -75 708 -34 l 708 -34 q 708 2 689 27 q 669 51 632 66 q 595 80 542 87 q 488 93 420 93 l 420 93 l 412 93 q 322 93 259 81 q 195 69 162 41 q 128 13 128 -33 l 128 -33 q 128 -76 156 -104 q 183 -133 247 -147 q 310 -161 419 -161 z m 501 40 l 501 40 q 531 40 550 29 q 569 18 579 1 q 589 -16 593 -35 q 597 -54 597 -71 l 597 -71 l 597 -98 l 550 -98 l 550 -79 q 550 -40 537 -23 q 524 -6 496 -6 l 496 -6 q 468 -6 455 -25 q 441 -44 441 -78 l 441 -78 l 441 -98 l 394 -98 l 394 -78 q 394 -45 381 -25 q 368 -6 339 -6 l 339 -6 q 311 -6 299 -24 q 286 -42 286 -79 l 286 -79 l 286 -98 l 239 -98 l 239 -71 q 239 -54 243 -35 q 247 -16 257 1 q 267 18 286 29 q 305 40 335 40 l 335 40 q 367 40 387 26 q 406 12 418 -13 l 418 -13 q 429 11 449 26 q 469 40 501 40 z"},"ൡ":{"ha":1272,"x_min":45,"x_max":1243,"o":"m 344 562 l 344 562 q 430 562 481 526 q 532 490 558 425 l 558 425 l 564 378 l 575 254 l 575 0 l 519 0 l 519 309 q 519 377 504 416 q 489 454 462 477 l 462 477 q 439 496 412 505 q 385 513 343 513 l 343 513 q 268 513 213 477 q 158 440 129 378 q 99 315 99 236 l 99 236 l 99 227 q 99 163 115 121 q 131 78 161 57 q 190 36 230 36 l 230 36 q 258 36 281 49 q 303 61 316 87 q 329 112 329 153 l 329 153 q 329 205 302 236 q 274 267 222 267 l 222 267 q 179 267 141 246 q 103 224 77 195 l 77 195 l 67 239 q 99 276 142 296 q 185 315 230 315 l 230 315 q 274 315 309 297 q 343 279 364 244 q 384 209 384 157 l 384 157 q 384 102 364 65 q 344 27 310 8 q 275 -12 229 -12 l 229 -12 q 180 -12 138 13 q 96 38 71 92 q 45 146 45 233 l 45 233 q 45 336 84 410 q 122 483 190 523 q 257 562 344 562 z m 769 562 l 769 562 q 849 562 908 533 q 966 504 1003 452 q 1040 400 1055 330 l 1055 330 q 1061 305 1064 279 q 1066 252 1066 223 l 1066 223 q 1066 142 1041 90 q 1015 38 971 13 q 927 -12 870 -12 l 870 -12 q 807 -12 769 15 q 731 41 714 83 q 696 124 696 167 l 696 167 q 696 263 763 317 q 829 370 948 370 l 948 370 q 961 370 975 369 q 989 367 1003 365 l 1003 365 l 1025 363 q 1097 348 1146 308 q 1194 268 1219 210 q 1243 152 1243 86 l 1243 86 q 1243 18 1223 -35 q 1203 -89 1165 -125 q 1127 -162 1073 -181 q 1018 -201 950 -201 l 950 -201 q 898 -201 856 -192 q 813 -183 783 -172 l 783 -172 l 802 -125 q 831 -137 869 -144 q 906 -151 951 -151 l 951 -151 q 1012 -151 1056 -134 q 1100 -117 1129 -85 q 1158 -54 1172 -10 q 1186 33 1186 86 l 1186 86 q 1186 144 1170 188 q 1154 231 1122 262 q 1090 292 1045 309 l 1045 309 l 1020 313 q 1002 318 984 320 q 965 322 946 322 l 946 322 q 888 322 845 306 q 801 290 777 256 q 753 221 753 166 l 753 166 q 753 136 764 106 q 774 76 800 56 q 826 36 871 36 l 871 36 q 941 36 976 86 q 1011 135 1011 224 l 1011 224 q 1011 251 1008 279 q 1005 306 998 333 l 998 333 l 995 350 q 981 395 954 432 q 927 469 882 491 q 837 513 769 513 l 769 513 q 730 513 696 502 q 661 491 635 468 l 635 468 q 616 451 603 428 q 589 405 582 372 q 575 339 575 290 l 575 290 l 575 201 l 538 400 q 553 449 585 486 q 616 522 663 542 q 709 562 769 562 z"},"ൢ":{"ha":0,"x_min":-767,"x_max":-37,"o":"m -555 10 l -555 10 q -489 10 -454 -16 q -419 -42 -399 -85 l -399 -85 l -382 -171 l -382 -332 l -432 -332 l -432 -171 q -432 -124 -441 -98 q -451 -73 -469 -58 l -469 -58 q -485 -44 -507 -38 q -530 -32 -556 -32 l -556 -32 q -596 -32 -631 -46 q -666 -61 -688 -87 q -711 -114 -717 -150 l -717 -150 q -718 -157 -719 -165 q -720 -174 -720 -183 l -720 -183 q -720 -239 -697 -266 q -674 -294 -637 -294 l -637 -294 q -600 -294 -582 -273 q -564 -253 -564 -219 l -564 -219 q -564 -183 -584 -164 q -604 -146 -637 -146 l -637 -146 q -666 -146 -692 -159 q -718 -173 -741 -197 l -741 -197 l -749 -164 q -729 -140 -698 -122 q -667 -104 -631 -104 l -631 -104 q -577 -104 -546 -136 q -515 -168 -515 -219 l -515 -219 q -515 -269 -546 -303 q -578 -337 -638 -337 l -638 -337 q -700 -337 -733 -292 q -767 -247 -767 -177 l -767 -177 q -767 -122 -739 -79 q -712 -37 -664 -13 q -616 10 -555 10 z m -247 9 l -247 9 q -175 9 -128 -17 q -82 -44 -59 -87 q -37 -131 -37 -182 l -37 -182 q -37 -265 -75 -301 q -113 -337 -171 -337 l -171 -337 q -214 -337 -242 -320 q -270 -303 -284 -274 q -298 -246 -298 -213 l -298 -213 q -298 -174 -282 -147 q -267 -120 -239 -106 q -212 -92 -176 -92 l -176 -92 q -137 -92 -111 -109 q -86 -126 -72 -150 q -58 -175 -55 -200 l -55 -200 l -69 -205 q -76 -179 -101 -156 q -126 -134 -166 -134 l -166 -134 q -208 -134 -228 -155 q -249 -177 -249 -213 l -249 -213 q -249 -248 -231 -271 q -213 -294 -170 -294 l -170 -294 q -129 -294 -107 -267 q -85 -241 -85 -180 l -85 -180 q -85 -176 -85 -167 q -86 -159 -88 -150 l -88 -150 l -89 -140 q -93 -114 -111 -89 q -129 -65 -162 -48 q -196 -32 -247 -32 l -247 -32 q -278 -32 -300 -39 q -323 -46 -339 -60 l -339 -60 q -363 -82 -372 -114 q -382 -146 -382 -192 l -382 -192 l -424 -155 q -422 -110 -404 -73 q -386 -36 -347 -13 q -309 9 -247 9 z"},"ൣ":{"ha":0,"x_min":-767,"x_max":77,"o":"m -555 10 l -555 10 q -489 10 -454 -16 q -419 -42 -399 -85 l -399 -85 l -382 -171 l -382 -332 l -432 -332 l -432 -171 q -432 -124 -441 -98 q -451 -73 -469 -58 l -469 -58 q -485 -44 -507 -38 q -530 -32 -556 -32 l -556 -32 q -596 -32 -631 -46 q -666 -61 -688 -87 q -711 -114 -717 -150 l -717 -150 q -718 -157 -719 -165 q -720 -174 -720 -183 l -720 -183 q -720 -239 -697 -266 q -674 -294 -637 -294 l -637 -294 q -600 -294 -582 -273 q -564 -253 -564 -219 l -564 -219 q -564 -183 -584 -164 q -604 -146 -637 -146 l -637 -146 q -666 -146 -692 -159 q -718 -173 -741 -197 l -741 -197 l -749 -164 q -729 -140 -698 -122 q -667 -104 -631 -104 l -631 -104 q -577 -104 -546 -136 q -515 -168 -515 -219 l -515 -219 q -515 -269 -546 -303 q -578 -337 -638 -337 l -638 -337 q -700 -337 -733 -292 q -767 -247 -767 -177 l -767 -177 q -767 -122 -739 -79 q -712 -37 -664 -13 q -616 10 -555 10 z m -247 9 l -247 9 q -180 9 -133 -15 q -87 -40 -63 -83 q -40 -127 -40 -184 l -40 -184 q -40 -237 -57 -271 q -74 -305 -104 -321 q -134 -337 -172 -337 l -172 -337 q -214 -337 -242 -321 q -270 -306 -284 -279 q -298 -252 -298 -220 l -298 -220 q -298 -159 -253 -125 q -209 -91 -129 -91 l -129 -91 q -118 -91 -106 -91 q -95 -92 -83 -94 l -83 -94 q -42 -101 -5 -121 q 32 -141 55 -178 q 78 -215 78 -273 l 78 -273 q 78 -294 72 -321 q 66 -348 53 -366 l 53 -366 l 9 -347 q 19 -331 24 -311 q 28 -291 28 -273 l 28 -273 q 28 -218 2 -185 q -24 -153 -62 -140 l -62 -140 l -77 -138 q -89 -136 -101 -134 q -113 -133 -126 -133 l -126 -133 q -186 -133 -217 -156 q -249 -180 -249 -221 l -249 -221 q -249 -251 -231 -272 q -214 -294 -172 -294 l -172 -294 q -132 -294 -110 -268 q -88 -242 -88 -183 l -88 -183 q -88 -166 -90 -149 q -92 -133 -97 -119 l -97 -119 l -104 -104 q -116 -80 -137 -64 q -158 -48 -186 -40 q -214 -32 -247 -32 l -247 -32 q -278 -32 -300 -39 q -323 -46 -339 -60 l -339 -60 q -363 -82 -372 -114 q -382 -146 -382 -192 l -382 -192 l -424 -155 q -423 -122 -412 -92 q -402 -63 -381 -40 q -360 -17 -327 -4 q -294 9 -247 9 z"},"൦":{"ha":556,"x_min":42,"x_max":514,"o":"m 278 46 l 278 46 q 205 46 152 76 q 99 106 71 159 q 42 212 42 283 l 42 283 q 42 353 71 406 q 100 459 154 489 q 207 518 277 518 l 277 518 q 349 518 402 489 q 455 460 485 408 q 514 355 514 283 l 514 283 q 514 211 485 158 q 455 105 402 76 q 349 46 278 46 z m 278 95 l 278 95 q 330 95 371 117 q 411 138 434 180 q 457 221 457 283 l 457 283 q 457 374 407 422 q 357 469 277 469 l 277 469 q 198 469 149 422 q 99 374 99 281 l 99 281 q 99 191 149 143 q 199 95 278 95 z"},"൧":{"ha":866,"x_min":12,"x_max":800,"o":"m 374 -152 l 374 -201 l 201 -201 q 150 -201 117 -193 q 84 -186 60 -170 l 60 -170 q 37 -154 25 -130 q 12 -107 12 -77 l 12 -77 q 12 -48 22 -25 q 32 -2 52 14 l 52 14 q 67 26 85 34 q 103 41 130 45 q 156 48 194 48 l 194 48 l 398 48 l 403 0 l 207 0 q 160 0 135 -4 q 109 -8 94 -21 l 94 -21 q 81 -30 75 -43 q 69 -57 69 -74 l 69 -74 q 69 -111 95 -130 l 95 -130 q 110 -141 135 -146 q 160 -152 204 -152 l 204 -152 l 374 -152 z m 567 562 l 567 562 q 625 562 668 545 q 711 527 740 495 l 740 495 q 771 462 786 414 q 800 365 800 290 l 800 290 l 800 0 l 339 0 l 339 295 q 339 345 346 382 q 352 419 366 447 q 379 475 400 498 l 400 498 q 429 528 471 545 q 512 562 567 562 z m 567 513 l 567 513 q 527 513 496 501 q 464 488 442 464 l 442 464 q 419 438 407 398 q 395 357 395 279 l 395 279 l 395 48 l 744 48 l 744 274 q 744 349 732 393 q 720 436 696 462 l 696 462 q 674 486 643 500 q 611 513 567 513 z"},"൨":{"ha":841,"x_min":42,"x_max":825,"o":"m 328 562 l 328 562 q 396 562 448 541 q 500 519 535 481 q 570 443 588 391 q 605 339 605 279 l 605 279 q 605 216 589 170 q 572 124 548 91 q 523 58 496 34 l 496 34 l 487 48 l 825 48 l 825 0 l 450 0 l 428 40 q 458 62 485 93 q 512 124 530 169 q 547 214 547 274 l 547 274 q 547 342 523 396 q 498 450 449 482 q 399 513 325 513 l 325 513 q 251 513 202 481 q 152 449 126 395 q 100 340 100 275 l 100 275 q 100 218 116 174 q 131 130 160 96 q 188 62 228 35 l 228 35 l 196 -7 q 156 18 121 57 q 86 95 64 150 q 42 204 42 276 l 42 276 q 42 338 61 390 q 80 442 117 481 q 153 519 207 541 q 260 562 328 562 z"},"൩":{"ha":1057,"x_min":42,"x_max":1041,"o":"m 272 562 l 272 562 q 320 562 354 547 q 387 531 410 502 q 432 473 444 434 l 444 434 l 434 434 q 456 497 499 530 q 541 562 610 562 l 610 562 q 684 562 735 526 q 785 489 811 428 q 837 366 837 292 l 837 292 q 837 230 824 184 q 810 138 787 104 q 764 69 735 41 l 735 41 l 713 0 l 687 0 l 664 38 q 696 68 722 102 q 748 136 764 182 q 779 227 779 292 l 779 292 q 779 351 760 402 q 741 452 704 483 q 666 513 611 513 l 611 513 q 572 513 547 502 q 522 490 505 467 l 505 467 q 483 442 475 403 q 467 363 467 301 l 467 301 l 467 0 l 411 0 l 411 302 q 411 363 403 402 q 395 441 373 466 l 373 466 q 356 489 332 501 q 307 513 271 513 l 271 513 q 216 513 178 483 q 140 453 120 403 q 100 352 100 290 l 100 290 q 100 226 117 179 q 133 131 162 97 q 190 63 226 35 l 226 35 l 189 -7 q 147 28 114 69 q 81 109 62 163 q 42 216 42 290 l 42 290 q 42 372 71 433 q 99 494 151 528 q 202 562 272 562 z m 700 0 l 726 48 l 1041 48 l 1041 0 l 700 0 z"},"൪":{"ha":764,"x_min":42,"x_max":758,"o":"m 347 562 l 347 562 q 416 562 470 541 q 524 519 566 479 l 566 479 q 615 434 644 369 q 673 304 673 224 l 673 224 q 673 143 648 91 q 622 39 577 14 q 532 -12 473 -12 l 473 -12 q 409 -12 368 15 q 327 41 307 85 q 287 128 287 179 l 287 179 q 287 244 315 294 q 342 343 396 386 q 450 428 530 472 l 530 472 q 592 506 630 528 q 667 550 684 571 q 700 592 700 622 l 700 622 q 700 644 693 663 q 685 681 672 698 l 672 698 l 724 724 q 740 703 749 678 q 758 652 758 625 l 758 625 q 758 584 738 555 q 717 525 674 498 q 631 470 562 434 l 562 434 q 486 393 438 355 q 390 316 368 274 q 345 231 345 179 l 345 179 q 345 109 379 73 q 413 37 475 37 l 475 37 q 518 37 549 56 q 580 75 598 116 q 615 157 615 223 l 615 223 q 615 289 593 347 q 571 405 528 445 l 528 445 q 494 478 449 496 q 404 513 348 513 l 348 513 q 277 513 221 486 q 165 459 133 406 q 100 353 100 275 l 100 275 q 100 218 116 174 q 131 130 160 96 q 188 62 228 35 l 228 35 l 196 -7 q 156 18 121 57 q 86 95 64 150 q 42 204 42 276 l 42 276 q 42 332 61 384 q 79 435 117 476 q 154 516 212 539 q 269 562 347 562 z"},"൫":{"ha":931,"x_min":48,"x_max":884,"o":"m 478 723 l 478 723 q 584 723 661 689 q 737 654 787 593 q 836 532 860 453 q 884 373 884 283 l 884 283 q 884 204 868 132 q 852 59 813 -12 l 813 -12 l 763 15 q 785 55 799 100 q 813 144 820 191 q 826 238 826 285 l 826 285 q 826 363 806 433 q 786 502 744 557 q 701 611 636 642 q 570 673 477 673 l 477 673 q 369 673 285 625 q 201 576 154 483 q 106 389 106 254 l 106 254 q 106 179 124 110 q 141 41 178 -12 q 214 -65 272 -96 q 330 -128 411 -128 l 411 -128 q 522 -128 575 -77 q 627 -27 627 57 l 627 57 q 627 108 607 147 q 586 185 547 207 q 508 229 451 229 l 451 229 l 439 229 l 439 277 l 465 277 q 509 277 540 286 q 571 294 589 313 l 589 313 q 602 326 608 344 q 614 362 614 384 l 614 384 q 614 435 580 465 q 545 494 480 494 l 480 494 q 418 494 378 466 q 337 437 317 388 q 297 339 297 278 l 297 278 q 297 205 321 143 q 345 81 388 24 l 388 24 l 340 -7 q 293 61 267 130 q 240 198 240 278 l 240 278 q 240 357 269 417 q 298 476 353 510 q 407 543 481 543 l 481 543 q 544 543 586 522 q 628 501 650 466 q 671 431 671 388 l 671 388 q 671 354 659 325 q 647 296 617 275 q 587 254 533 245 l 533 245 l 530 255 q 605 235 645 186 q 684 137 684 58 l 684 58 q 684 -18 651 -70 q 618 -123 557 -150 q 495 -178 407 -178 l 407 -178 q 299 -178 218 -124 q 137 -71 93 26 q 48 123 48 254 l 48 254 q 48 370 82 458 q 115 546 174 605 q 233 664 311 694 q 389 723 478 723 z"},"൬":{"ha":1179,"x_min":42,"x_max":1131,"o":"m 588 562 l 588 562 q 655 562 697 530 q 738 497 753 438 l 753 438 l 777 302 l 777 0 l 721 0 l 721 316 q 721 376 713 412 q 705 447 685 472 l 685 472 q 670 492 646 503 q 622 513 587 513 l 587 513 q 556 513 531 502 q 506 490 490 470 l 490 470 q 470 446 461 410 q 452 373 452 312 l 452 312 l 452 0 l 396 0 l 396 302 q 396 361 388 402 q 380 442 359 468 l 359 468 q 342 491 319 502 q 295 513 263 513 l 263 513 q 212 513 176 484 q 139 455 120 405 q 100 354 100 290 l 100 290 q 100 225 117 178 q 133 131 162 97 q 190 63 226 35 l 226 35 l 189 -7 q 147 27 114 68 q 81 109 62 163 q 42 216 42 290 l 42 290 q 42 374 70 435 q 97 495 147 529 q 197 562 263 562 l 263 562 q 329 562 369 530 q 408 497 427 438 l 427 438 l 420 437 q 440 494 482 528 q 524 562 588 562 z m 915 562 l 915 562 q 1019 562 1075 477 q 1131 391 1131 227 l 1131 227 q 1131 93 1097 -3 q 1062 -99 987 -150 q 911 -201 787 -201 l 787 -201 q 761 -201 730 -198 q 699 -196 671 -190 l 671 -190 l 677 -142 q 703 -146 732 -148 q 760 -151 786 -151 l 786 -151 q 870 -151 926 -123 q 981 -96 1014 -45 q 1046 5 1060 74 q 1073 143 1073 226 l 1073 226 q 1073 321 1055 385 q 1036 449 1001 481 q 965 513 914 513 l 914 513 q 880 513 856 502 q 831 491 814 468 l 814 468 q 793 443 785 405 q 777 366 777 306 l 777 306 l 777 10 l 732 10 l 732 320 l 745 437 q 769 500 810 531 q 851 562 915 562 z"},"൭":{"ha":719,"x_min":43,"x_max":671,"o":"m 363 562 l 363 562 q 441 562 499 537 q 557 512 595 466 q 633 419 652 353 q 671 286 671 205 l 671 205 q 671 118 651 44 q 631 -30 588 -85 q 545 -140 476 -170 q 406 -201 308 -201 l 308 -201 q 279 -201 249 -199 q 218 -197 188 -191 l 188 -191 l 194 -142 q 218 -146 247 -148 q 276 -151 308 -151 l 308 -151 q 398 -151 457 -122 q 516 -94 550 -44 q 584 6 599 71 q 613 135 613 206 l 613 206 q 613 355 549 434 q 484 513 361 513 l 361 513 q 281 513 222 477 q 162 440 129 377 q 96 313 96 233 l 96 233 l 96 222 q 96 160 113 119 q 129 77 159 57 q 188 36 228 36 l 228 36 q 256 36 279 49 q 301 61 314 87 q 327 113 327 154 l 327 154 q 327 204 299 236 q 271 267 220 267 l 220 267 q 179 267 143 248 q 107 228 83 202 l 83 202 l 64 239 q 97 276 140 296 q 183 315 227 315 l 227 315 q 272 315 307 297 q 341 279 362 244 q 382 209 382 157 l 382 157 q 382 102 362 65 q 342 27 307 8 q 272 -12 227 -12 l 227 -12 q 177 -12 135 13 q 93 38 68 91 q 43 143 43 227 l 43 227 q 43 330 84 405 q 125 480 197 521 q 269 562 363 562 z"},"൮":{"ha":927,"x_min":42,"x_max":852,"o":"m 328 562 l 328 562 q 396 562 448 541 q 500 519 535 481 q 570 443 588 391 q 605 339 605 279 l 605 279 q 605 216 589 170 q 572 124 548 91 q 523 58 496 34 l 496 34 l 487 48 l 796 48 l 796 550 l 852 550 l 852 102 l 809 0 l 450 0 l 428 40 q 458 62 485 93 q 512 124 530 169 q 547 214 547 274 l 547 274 q 547 342 523 396 q 498 450 449 482 q 399 513 325 513 l 325 513 q 251 513 202 481 q 152 449 126 395 q 100 340 100 275 l 100 275 q 100 218 116 174 q 131 130 160 96 q 188 62 228 35 l 228 35 l 196 -7 q 156 18 121 57 q 86 95 64 150 q 42 204 42 276 l 42 276 q 42 338 61 390 q 80 442 117 481 q 153 519 207 541 q 260 562 328 562 z m 535 -201 l 535 -201 q 506 -201 479 -198 q 451 -196 425 -191 l 425 -191 l 432 -142 q 453 -146 479 -148 q 504 -151 533 -151 l 533 -151 q 612 -151 663 -133 q 713 -116 741 -87 q 769 -59 781 -25 q 793 9 796 42 l 796 42 l 852 123 l 852 76 q 852 25 842 -15 q 832 -55 812 -85 q 792 -116 761 -140 l 761 -140 q 723 -169 667 -185 q 610 -201 535 -201 z"},"൯":{"ha":1083,"x_min":42,"x_max":1078,"o":"m 272 562 l 272 562 q 321 562 357 545 q 392 528 415 496 q 438 463 450 416 l 450 416 l 468 244 l 468 0 l 411 0 l 411 297 q 411 362 403 402 q 395 441 373 466 l 373 466 q 356 489 332 501 q 307 513 271 513 l 271 513 q 216 513 178 483 q 140 453 120 403 q 100 352 100 290 l 100 290 q 100 226 117 179 q 133 131 162 97 q 190 63 226 35 l 226 35 l 189 -7 q 147 28 114 69 q 81 109 62 163 q 42 216 42 290 l 42 290 q 42 372 71 433 q 99 494 151 528 q 202 562 272 562 z m 663 562 l 663 562 q 733 562 789 541 q 844 519 886 479 l 886 479 q 935 434 964 369 q 993 304 993 224 l 993 224 q 993 143 968 91 q 942 39 897 14 q 852 -12 793 -12 l 793 -12 q 729 -12 688 15 q 647 41 627 85 q 607 128 607 179 l 607 179 q 607 244 635 294 q 662 343 716 386 q 770 428 850 472 l 850 472 q 912 506 950 528 q 987 550 1004 571 q 1020 592 1020 622 l 1020 622 q 1020 644 1013 663 q 1005 681 992 698 l 992 698 l 1044 724 q 1060 703 1069 678 q 1078 652 1078 625 l 1078 625 q 1078 584 1058 555 q 1037 525 994 498 q 951 470 882 434 l 882 434 q 806 393 758 355 q 710 316 688 274 q 665 231 665 179 l 665 179 q 665 109 699 73 q 733 37 795 37 l 795 37 q 838 37 869 56 q 900 75 918 116 q 935 157 935 223 l 935 223 q 935 289 913 347 q 891 405 848 445 l 848 445 q 814 478 768 496 q 721 513 665 513 l 665 513 q 614 513 583 503 q 551 492 530 473 l 530 473 q 509 455 495 430 q 481 405 475 369 q 468 332 468 276 l 468 276 l 468 140 l 423 140 l 423 286 l 434 416 q 451 465 483 498 q 515 530 561 546 q 606 562 663 562 z"},"൰":{"ha":1062,"x_min":-35,"x_max":1020,"o":"m 255 550 l 311 550 l 311 125 l 309 103 q 309 26 296 -30 q 282 -87 250 -126 l 250 -126 q 220 -162 172 -181 q 123 -201 55 -201 l 55 -201 q 33 -201 11 -199 q -12 -197 -35 -191 l -35 -191 l -29 -142 q -12 -146 8 -148 q 28 -151 52 -151 l 52 -151 q 110 -151 148 -135 q 186 -119 208 -91 l 208 -91 q 235 -59 245 -13 q 255 33 255 106 l 255 106 l 255 550 z m 790 -12 l 790 -12 q 720 -12 680 22 q 640 55 619 113 l 619 113 l 625 114 q 605 57 563 23 q 520 -12 451 -12 l 451 -12 q 405 -12 372 5 q 338 21 317 50 q 295 79 283 120 l 283 120 l 275 262 l 274 522 l 311 523 l 311 235 q 311 175 319 140 q 327 104 348 80 l 348 80 q 365 61 390 49 q 415 37 453 37 l 453 37 q 488 37 514 50 q 539 62 556 81 l 556 81 q 577 107 586 143 q 595 178 595 239 l 595 239 l 595 550 l 651 550 l 651 249 q 651 188 659 149 q 667 110 689 84 l 689 84 q 706 61 732 49 q 757 37 793 37 l 793 37 q 848 37 886 68 q 923 99 943 150 q 962 200 962 259 l 962 259 q 962 325 946 373 q 929 420 901 455 q 872 489 836 516 l 836 516 l 872 558 q 914 523 948 483 q 981 443 1001 389 q 1020 335 1020 260 l 1020 260 q 1020 186 994 124 q 967 62 916 25 q 865 -12 790 -12 z"},"൱":{"ha":869,"x_min":42,"x_max":822,"o":"m 272 562 l 272 562 q 322 562 357 545 q 392 527 414 495 q 435 463 445 420 l 445 420 l 467 244 l 467 0 l 411 0 l 411 297 q 411 362 403 402 q 395 441 373 466 l 373 466 q 356 489 332 501 q 307 513 271 513 l 271 513 q 216 513 178 483 q 140 453 120 403 q 100 352 100 290 l 100 290 q 100 226 117 179 q 133 131 162 97 q 190 63 226 35 l 226 35 l 189 -7 q 147 28 114 69 q 81 109 62 163 q 42 216 42 290 l 42 290 q 42 372 71 433 q 99 494 151 528 q 202 562 272 562 z m 605 562 l 605 562 q 675 562 723 524 q 771 486 797 411 q 822 336 822 227 l 822 227 q 822 93 787 -3 q 752 -99 677 -150 q 601 -201 478 -201 l 478 -201 q 451 -201 420 -198 q 389 -196 361 -190 l 361 -190 l 368 -142 q 393 -146 422 -148 q 450 -151 476 -151 l 476 -151 q 560 -151 616 -123 q 671 -96 704 -45 q 736 5 750 74 q 764 143 764 226 l 764 226 q 764 321 745 385 q 726 449 691 481 q 656 513 604 513 l 604 513 q 571 513 547 502 q 522 491 505 468 l 505 468 q 483 443 475 405 q 467 366 467 306 l 467 306 l 467 10 l 423 10 l 423 320 l 436 437 q 459 500 500 531 q 541 562 605 562 z"},"൲":{"ha":1344,"x_min":42,"x_max":1323,"o":"m 1174 550 l 1174 550 q 1226 550 1259 531 q 1291 511 1307 480 q 1323 449 1323 413 l 1323 413 q 1323 377 1311 351 q 1299 325 1278 307 l 1278 307 q 1260 292 1238 284 q 1216 275 1189 272 q 1161 268 1127 268 l 1127 268 l 916 268 l 916 316 l 1125 316 q 1167 316 1192 321 q 1216 326 1232 338 l 1232 338 q 1248 349 1257 367 q 1266 385 1266 411 l 1266 411 q 1266 452 1243 478 q 1220 503 1175 503 l 1175 503 q 1124 503 1098 474 q 1072 445 1072 396 l 1072 396 q 1072 362 1083 336 q 1093 309 1109 285 l 1109 285 l 1054 280 q 1038 307 1028 337 q 1017 366 1017 403 l 1017 403 q 1017 450 1038 483 q 1059 516 1095 533 q 1130 550 1174 550 z m 272 562 l 272 562 q 321 562 356 545 q 390 528 413 496 q 436 464 450 417 l 450 417 l 467 244 l 467 0 l 411 0 l 411 297 q 411 362 403 402 q 395 441 373 466 l 373 466 q 356 489 332 501 q 307 513 271 513 l 271 513 q 216 513 178 483 q 140 453 120 403 q 100 352 100 290 l 100 290 q 100 226 117 179 q 133 131 162 97 q 190 63 226 35 l 226 35 l 189 -7 q 147 28 114 69 q 81 109 62 163 q 42 216 42 290 l 42 290 q 42 372 71 433 q 99 494 151 528 q 202 562 272 562 z m 653 562 l 653 562 q 719 562 772 539 q 824 515 861 472 q 898 429 918 371 q 937 312 937 243 l 937 243 q 937 150 912 94 q 887 37 843 13 q 798 -12 739 -12 l 739 -12 q 681 -12 644 12 q 607 35 589 71 q 571 107 571 147 l 571 147 q 571 188 587 218 q 602 248 629 268 l 629 268 q 651 285 679 296 q 707 306 747 311 q 787 316 843 316 l 843 316 l 1097 316 l 1097 268 l 845 268 q 778 268 735 261 q 692 253 664 230 l 664 230 q 646 217 637 196 q 627 175 627 147 l 627 147 q 627 96 657 66 q 686 36 739 36 l 739 36 q 787 36 819 57 q 850 78 866 124 q 882 170 882 245 l 882 245 q 882 258 881 272 q 879 286 877 298 l 877 298 l 877 308 q 867 371 836 417 q 805 463 758 488 q 711 513 651 513 l 651 513 q 614 513 585 504 q 555 495 532 477 l 532 477 q 511 461 497 437 q 482 412 475 378 q 467 343 467 295 l 467 295 l 467 201 l 430 202 l 430 397 q 445 451 475 488 q 505 525 550 544 q 595 562 653 562 z"},"൳":{"ha":774,"x_min":43,"x_max":752,"o":"m 226 -12 l 226 -12 q 176 -12 134 13 q 92 37 68 88 q 43 138 43 216 l 43 216 q 43 304 72 361 q 100 418 150 452 l 150 452 q 186 476 228 490 q 270 504 324 510 q 378 515 447 515 l 447 515 l 752 515 l 752 465 l 470 465 q 392 465 338 460 q 284 455 245 443 q 206 430 175 407 l 175 407 q 143 383 123 346 q 103 309 97 256 l 97 256 l 97 243 q 96 236 96 230 q 96 223 96 215 l 96 215 q 96 155 112 116 q 128 76 158 56 q 187 36 227 36 l 227 36 q 256 36 279 49 q 301 61 314 87 q 327 113 327 154 l 327 154 q 327 204 299 236 q 271 267 220 267 l 220 267 q 180 267 144 248 q 107 228 83 202 l 83 202 l 82 256 q 114 285 152 300 q 190 315 227 315 l 227 315 q 272 315 307 297 q 341 279 362 244 q 382 209 382 157 l 382 157 q 382 102 362 65 q 342 27 307 8 q 272 -12 226 -12 z"},"൴":{"ha":890,"x_min":43,"x_max":848,"o":"m 486 792 l 542 792 l 542 237 q 542 193 545 162 q 548 131 556 109 q 563 87 577 72 l 577 72 q 592 53 614 45 q 635 36 664 36 l 664 36 q 708 36 736 59 q 763 81 776 120 q 789 158 789 207 l 789 207 q 789 267 771 318 q 753 369 719 408 q 684 447 636 473 q 587 498 526 508 l 526 508 l 500 510 q 486 512 471 513 q 455 513 439 513 l 439 513 q 355 513 291 491 q 226 469 183 430 q 140 391 118 341 q 96 291 96 234 l 96 234 l 96 225 q 96 162 113 120 q 129 78 159 57 q 188 36 228 36 l 228 36 q 256 36 279 49 q 301 61 314 87 q 327 113 327 154 l 327 154 q 327 204 299 236 q 271 267 220 267 l 220 267 q 179 267 143 248 q 107 228 83 202 l 83 202 l 82 256 q 114 285 152 300 q 190 315 227 315 l 227 315 q 272 315 307 297 q 341 279 362 244 q 382 209 382 157 l 382 157 q 382 102 362 64 q 342 26 307 7 q 272 -12 227 -12 l 227 -12 q 177 -12 135 13 q 93 38 68 91 q 43 144 43 228 l 43 228 q 43 299 69 360 q 94 421 144 467 q 194 512 268 537 q 342 562 438 562 l 438 562 q 455 562 471 562 q 487 561 503 559 l 503 559 l 529 557 q 599 546 657 518 q 715 490 758 446 q 801 401 825 341 q 848 281 848 208 l 848 208 q 848 141 827 92 q 805 43 764 16 q 723 -12 663 -12 l 663 -12 q 626 -12 596 -1 q 566 9 544 28 l 544 28 q 525 46 512 70 q 499 94 493 131 q 486 168 486 224 l 486 224 l 486 792 z"},"൵":{"ha":1192,"x_min":45,"x_max":1185,"o":"m 344 562 l 344 562 q 430 562 483 525 q 536 487 559 416 l 559 416 l 562 357 l 575 214 l 575 0 l 519 0 l 519 309 q 519 377 504 416 q 489 454 462 477 l 462 477 q 439 496 412 505 q 385 513 343 513 l 343 513 q 268 513 213 477 q 158 440 129 378 q 99 315 99 236 l 99 236 l 99 227 q 99 163 115 121 q 131 78 161 57 q 190 36 230 36 l 230 36 q 258 36 281 49 q 303 61 316 87 q 329 112 329 153 l 329 153 q 329 205 302 236 q 274 267 222 267 l 222 267 q 179 267 141 246 q 103 224 77 195 l 77 195 l 67 239 q 99 276 142 296 q 185 315 230 315 l 230 315 q 274 315 309 297 q 343 279 364 244 q 384 209 384 157 l 384 157 q 384 102 364 65 q 344 27 310 8 q 275 -12 229 -12 l 229 -12 q 180 -12 138 13 q 96 38 71 92 q 45 146 45 233 l 45 233 q 45 336 84 410 q 122 483 190 523 q 257 562 344 562 z m 771 562 l 771 562 q 840 562 896 541 q 951 519 994 479 l 994 479 q 1042 434 1072 369 q 1101 304 1101 224 l 1101 224 q 1101 143 1076 91 q 1050 39 1005 14 q 959 -12 901 -12 l 901 -12 q 837 -12 796 15 q 754 41 735 85 q 715 128 715 179 l 715 179 q 715 244 742 294 q 769 343 824 386 q 878 428 958 472 l 958 472 q 1020 506 1058 528 q 1095 550 1112 571 q 1128 592 1128 622 l 1128 622 q 1128 644 1120 663 q 1112 681 1100 698 l 1100 698 l 1152 724 q 1168 703 1177 678 q 1185 652 1185 625 l 1185 625 q 1185 584 1165 555 q 1144 525 1102 498 q 1059 470 990 434 l 990 434 q 914 393 866 355 q 818 316 795 274 q 772 231 772 179 l 772 179 q 772 109 807 73 q 841 37 903 37 l 903 37 q 945 37 977 56 q 1008 75 1026 116 q 1043 157 1043 223 l 1043 223 q 1043 289 1021 347 q 999 405 955 445 l 955 445 q 921 478 875 496 q 829 513 773 513 l 773 513 q 722 513 691 503 q 659 492 637 473 l 637 473 q 617 455 603 430 q 589 405 582 369 q 575 332 575 276 l 575 276 l 575 140 l 531 140 l 531 286 l 542 416 q 559 465 591 498 q 622 530 668 546 q 713 562 771 562 z"},"൶":{"ha":1331,"x_min":35,"x_max":1268,"o":"m 215 337 l 215 337 q 274 337 314 314 q 354 290 375 251 q 396 212 396 166 l 396 166 q 396 122 381 89 q 366 55 340 34 l 340 34 l 331 48 l 715 48 l 714 0 l 310 0 l 289 37 q 315 63 328 92 q 341 120 341 158 l 341 158 q 341 217 308 253 q 274 289 215 289 l 215 289 q 176 289 148 271 q 120 253 106 225 q 91 196 91 162 l 91 162 q 91 120 107 89 q 123 58 157 32 l 157 32 l 126 -7 q 85 26 60 66 q 35 105 35 163 l 35 163 q 35 212 58 252 q 80 291 121 314 q 162 337 215 337 z m 985 562 l 985 562 q 1050 562 1099 547 q 1147 532 1181 502 l 1181 502 q 1210 478 1230 444 q 1249 410 1259 365 q 1268 319 1268 258 l 1268 258 l 1268 0 l 699 0 l 699 257 q 699 313 708 357 q 717 400 735 434 q 752 468 778 493 l 778 493 q 814 526 865 544 q 916 562 985 562 z m 937 511 l 937 511 q 896 511 864 494 q 831 476 808 446 l 808 446 q 783 415 769 368 q 755 320 755 249 l 755 249 l 755 47 l 766 47 q 842 103 902 163 q 962 223 997 284 q 1032 345 1032 403 l 1032 403 q 1032 431 1023 456 q 1013 480 993 496 q 972 511 937 511 z m 1088 399 l 1088 399 q 1088 337 1055 276 q 1022 214 963 153 q 904 91 825 27 l 825 27 l 826 44 q 857 46 896 47 q 934 48 970 48 l 970 48 l 1212 48 l 1212 251 q 1212 330 1194 387 q 1175 443 1133 476 q 1090 508 1019 515 l 1019 515 l 1018 522 q 1057 503 1073 472 q 1088 440 1088 399 z"},"൷":{"ha":1665,"x_min":35,"x_max":1643,"o":"m 215 337 l 215 337 q 274 337 314 314 q 354 290 375 251 q 396 212 396 166 l 396 166 q 396 122 381 89 q 366 55 340 34 l 340 34 l 331 48 l 670 48 l 694 0 l 310 0 l 289 37 q 315 63 328 92 q 341 120 341 158 l 341 158 q 341 217 308 253 q 274 289 215 289 l 215 289 q 176 289 148 271 q 120 253 106 225 q 91 196 91 162 l 91 162 q 91 120 107 89 q 123 58 157 32 l 157 32 l 126 -7 q 85 26 60 66 q 35 105 35 163 l 35 163 q 35 212 58 252 q 80 291 121 314 q 162 337 215 337 z m 779 562 l 779 562 q 828 562 863 545 q 897 528 920 496 q 943 464 956 417 l 956 417 l 974 289 l 974 230 l 918 230 l 918 297 q 918 362 910 402 q 902 441 880 466 l 880 466 q 862 489 838 501 q 813 513 778 513 l 778 513 q 723 513 685 483 q 646 453 626 404 q 606 354 606 294 l 606 294 q 606 206 639 146 q 672 85 724 37 l 724 37 l 700 0 l 671 0 l 651 39 q 621 71 598 108 q 575 145 562 191 q 549 237 549 294 l 549 294 q 549 373 577 434 q 605 494 657 528 q 709 562 779 562 z m 1159 562 l 1159 562 q 1226 562 1279 539 q 1331 515 1368 472 q 1405 429 1424 371 q 1443 312 1443 243 l 1443 243 q 1443 150 1419 94 q 1394 37 1350 13 q 1305 -12 1246 -12 l 1246 -12 q 1188 -12 1151 11 q 1113 34 1095 71 q 1077 107 1077 147 l 1077 147 q 1077 188 1093 218 q 1108 248 1135 268 l 1135 268 q 1158 285 1186 296 q 1213 306 1253 311 q 1293 316 1350 316 l 1350 316 l 1398 316 l 1398 268 l 1352 268 q 1284 268 1241 261 q 1198 253 1170 230 l 1170 230 q 1153 217 1144 196 q 1134 175 1134 147 l 1134 147 q 1134 96 1163 66 q 1192 36 1245 36 l 1245 36 q 1294 36 1326 57 q 1357 78 1373 124 q 1388 170 1388 245 l 1388 245 q 1388 258 1387 272 q 1386 286 1384 298 l 1384 298 l 1383 308 q 1373 371 1343 417 q 1312 463 1265 488 q 1218 513 1157 513 l 1157 513 q 1121 513 1092 504 q 1062 495 1039 477 l 1039 477 q 1018 461 1004 437 q 989 412 982 378 q 974 343 974 295 l 974 295 l 974 260 l 937 258 l 937 397 q 952 451 982 488 q 1012 525 1057 544 q 1101 562 1159 562 z m 1579 451 l 1633 461 q 1638 449 1641 434 q 1643 419 1643 403 l 1643 403 q 1643 370 1632 345 q 1620 320 1598 304 l 1598 304 q 1571 284 1536 276 q 1500 268 1445 268 l 1445 268 l 1414 268 l 1414 316 l 1441 316 q 1484 316 1510 320 q 1536 324 1554 336 l 1554 336 q 1569 346 1578 363 q 1586 380 1586 406 l 1586 406 q 1586 414 1584 428 q 1582 442 1579 451 l 1579 451 z"},"൸":{"ha":2128,"x_min":10,"x_max":2065,"o":"m 1373 562 l 1373 562 q 1419 562 1449 548 q 1479 533 1498 510 q 1516 486 1527 458 q 1537 430 1543 404 l 1543 404 l 1525 404 q 1545 462 1583 497 q 1621 531 1672 547 q 1723 562 1782 562 l 1782 562 q 1847 562 1896 547 q 1944 532 1978 502 l 1978 502 q 2007 478 2027 444 q 2046 410 2056 365 q 2065 319 2065 258 l 2065 258 l 2065 0 l 1563 0 l 1563 47 q 1639 103 1699 163 q 1759 223 1794 284 q 1829 345 1829 403 l 1829 403 q 1829 431 1820 456 q 1810 480 1789 496 q 1768 511 1733 511 l 1733 511 q 1691 511 1660 494 q 1629 477 1608 450 l 1608 450 q 1579 413 1568 367 q 1557 321 1557 254 l 1557 254 l 1557 230 l 1500 230 l 1500 294 q 1500 364 1493 407 q 1486 450 1464 477 l 1464 477 q 1449 495 1427 504 q 1405 513 1377 513 l 1377 513 q 1348 513 1326 505 q 1304 496 1289 477 l 1289 477 q 1267 451 1260 407 q 1252 362 1252 289 l 1252 289 l 1252 251 q 1252 190 1247 150 q 1241 110 1230 84 q 1219 58 1201 39 l 1201 39 q 1179 14 1147 1 q 1114 -12 1072 -12 l 1072 -12 q 1028 -12 996 2 q 963 15 939 42 l 939 42 q 924 61 913 86 q 902 110 897 150 q 891 189 891 251 l 891 251 l 891 295 q 891 364 884 408 q 877 451 855 477 l 855 477 q 840 495 818 504 q 796 513 768 513 l 768 513 q 739 513 717 505 q 695 496 680 477 l 680 477 q 658 451 651 407 q 643 362 643 289 l 643 289 l 643 238 q 643 161 632 118 q 620 75 593 45 l 593 45 q 568 17 534 3 q 499 -12 450 -12 l 450 -12 q 384 -12 342 24 q 300 60 283 124 l 283 124 l 297 114 q 285 77 263 49 q 240 20 205 4 q 170 -12 120 -12 l 120 -12 q 92 -12 65 -5 q 37 1 10 15 l 10 15 l 30 60 q 49 50 72 44 q 94 37 121 37 l 121 37 q 160 37 185 50 q 210 62 227 84 l 227 84 q 249 110 257 149 q 264 187 264 249 l 264 249 l 264 550 l 321 550 l 321 230 q 321 171 331 132 q 341 93 364 70 l 364 70 q 380 54 402 46 q 423 37 451 37 l 451 37 q 488 37 513 50 q 537 63 552 83 l 552 83 q 571 109 579 152 q 587 194 587 273 l 587 273 l 587 299 q 587 362 593 402 q 598 442 610 468 q 621 493 638 512 l 638 512 q 660 538 693 550 q 725 562 767 562 l 767 562 q 811 562 844 549 q 877 536 900 509 l 900 509 q 916 490 927 466 q 937 441 943 402 q 948 362 948 299 l 948 299 l 948 256 q 948 186 955 143 q 962 100 984 74 l 984 74 q 999 56 1021 47 q 1043 37 1071 37 l 1071 37 q 1100 37 1122 46 q 1144 55 1159 73 l 1159 73 q 1181 100 1189 144 q 1196 187 1196 256 l 1196 256 l 1196 299 q 1196 362 1202 402 q 1207 442 1219 468 q 1230 493 1247 512 l 1247 512 q 1269 538 1301 550 q 1333 562 1373 562 z m 1885 399 l 1885 399 q 1885 337 1852 276 q 1819 214 1760 153 q 1701 91 1622 27 l 1622 27 l 1623 44 q 1654 46 1693 47 q 1731 48 1767 48 l 1767 48 l 2009 48 l 2009 251 q 2009 330 1991 387 q 1972 443 1930 476 q 1887 508 1816 515 l 1816 515 l 1815 522 q 1854 503 1870 472 q 1885 440 1885 399 z"},"൹":{"ha":1119,"x_min":42,"x_max":1097,"o":"m 272 562 l 272 562 q 321 562 356 545 q 390 528 413 496 q 436 464 450 417 l 450 417 l 467 244 l 467 0 l 411 0 l 411 297 q 411 362 403 402 q 395 441 373 466 l 373 466 q 356 489 332 501 q 307 513 271 513 l 271 513 q 216 513 178 483 q 140 453 120 403 q 100 352 100 290 l 100 290 q 100 226 117 179 q 133 131 162 97 q 190 63 226 35 l 226 35 l 189 -7 q 147 28 114 69 q 81 109 62 163 q 42 216 42 290 l 42 290 q 42 372 71 433 q 99 494 151 528 q 202 562 272 562 z m 653 562 l 653 562 q 719 562 772 539 q 824 515 861 472 q 898 429 918 371 q 937 312 937 243 l 937 243 q 937 150 912 94 q 887 37 843 13 q 798 -12 739 -12 l 739 -12 q 681 -12 644 12 q 607 35 589 71 q 571 107 571 147 l 571 147 q 571 188 587 218 q 602 248 629 268 l 629 268 q 651 285 679 296 q 707 306 747 311 q 787 316 843 316 l 843 316 l 1097 316 l 1097 268 l 845 268 q 778 268 735 261 q 692 253 664 230 l 664 230 q 646 217 637 196 q 627 175 627 147 l 627 147 q 627 96 657 66 q 686 36 739 36 l 739 36 q 787 36 819 57 q 850 78 866 124 q 882 170 882 245 l 882 245 q 882 258 881 272 q 879 286 877 298 l 877 298 l 877 308 q 867 371 836 417 q 805 463 758 488 q 711 513 651 513 l 651 513 q 614 513 585 504 q 555 495 532 477 l 532 477 q 511 461 497 437 q 482 412 475 378 q 467 343 467 295 l 467 295 l 467 201 l 430 202 l 430 397 q 445 451 475 488 q 505 525 550 544 q 595 562 653 562 z"},"ൺ":{"ha":1473,"x_min":45,"x_max":1432,"o":"m 344 562 l 344 562 q 430 562 479 528 q 528 493 553 437 l 553 437 l 544 437 q 565 494 608 528 q 651 562 719 562 l 719 562 q 790 562 833 529 q 875 496 895 434 l 895 434 l 890 411 l 915 300 l 915 0 l 859 0 l 859 316 q 859 375 851 411 q 843 446 822 471 l 822 471 q 806 491 781 502 q 755 513 718 513 l 718 513 q 683 513 658 501 q 632 489 615 469 l 615 469 q 594 445 585 409 q 576 372 576 312 l 576 312 l 576 0 l 520 0 l 520 306 q 520 377 505 416 q 489 454 462 477 l 462 477 q 439 496 411 505 q 383 513 343 513 l 343 513 q 268 513 213 477 q 158 440 129 378 q 99 315 99 236 l 99 236 l 99 227 q 99 163 115 121 q 131 78 161 57 q 190 36 230 36 l 230 36 q 258 36 281 49 q 303 61 316 87 q 329 112 329 153 l 329 153 q 329 205 302 236 q 274 267 222 267 l 222 267 q 179 267 141 246 q 103 224 77 195 l 77 195 l 67 239 q 99 276 142 296 q 185 315 230 315 l 230 315 q 274 315 309 297 q 343 279 364 244 q 384 209 384 157 l 384 157 q 384 102 364 65 q 344 27 310 8 q 275 -12 229 -12 l 229 -12 q 180 -12 138 13 q 96 38 71 92 q 45 146 45 233 l 45 233 q 45 336 84 410 q 122 483 190 523 q 257 562 344 562 z m 1248 -12 l 1248 -12 q 1192 -12 1151 13 q 1109 37 1087 87 q 1064 136 1064 211 l 1064 211 q 1064 277 1085 330 q 1106 382 1140 426 q 1174 470 1213 508 l 1213 508 l 1231 527 q 1267 561 1288 593 q 1308 624 1308 660 l 1308 660 q 1308 695 1287 719 q 1266 743 1217 743 l 1217 743 q 1193 743 1173 740 q 1152 737 1137 732 l 1137 732 l 1124 779 q 1141 784 1168 788 q 1195 792 1224 792 l 1224 792 q 1277 792 1308 773 q 1338 753 1352 725 q 1365 696 1365 669 l 1365 669 q 1365 623 1340 584 q 1314 545 1271 501 l 1271 501 l 1256 482 q 1213 441 1183 399 q 1153 356 1137 310 q 1121 264 1121 209 l 1121 209 q 1121 142 1139 104 q 1157 66 1186 51 q 1215 36 1248 36 l 1248 36 q 1307 36 1341 80 q 1374 123 1374 212 l 1374 212 q 1374 274 1357 328 q 1340 382 1307 424 q 1274 465 1226 488 l 1226 488 q 1201 502 1173 508 q 1144 513 1109 513 l 1109 513 q 1061 513 1030 503 q 998 492 977 473 l 977 473 q 956 455 943 430 q 929 405 922 369 q 915 332 915 276 l 915 276 l 915 84 l 868 84 l 870 266 l 882 416 q 899 466 931 498 q 962 530 1007 546 q 1051 562 1106 562 l 1106 562 q 1150 562 1186 554 q 1222 546 1255 529 l 1255 529 q 1258 527 1262 525 q 1266 523 1269 521 l 1269 521 q 1322 491 1359 443 q 1395 395 1414 337 q 1432 279 1432 216 l 1432 216 q 1432 108 1384 48 q 1335 -12 1248 -12 z"},"ൻ":{"ha":1025,"x_min":42,"x_max":984,"o":"m 272 562 l 272 562 q 321 562 357 545 q 392 528 415 496 q 438 463 450 416 l 450 416 l 467 244 l 467 0 l 411 0 l 411 297 q 411 362 403 402 q 395 441 373 466 l 373 466 q 356 489 332 501 q 307 513 271 513 l 271 513 q 216 513 178 483 q 140 453 120 403 q 100 352 100 290 l 100 290 q 100 226 117 179 q 133 131 162 97 q 190 63 226 35 l 226 35 l 189 -7 q 147 28 114 69 q 81 109 62 163 q 42 216 42 290 l 42 290 q 42 372 71 433 q 99 494 151 528 q 202 562 272 562 z m 800 -12 l 800 -12 q 744 -12 703 13 q 661 37 639 87 q 616 136 616 211 l 616 211 q 616 277 637 330 q 658 382 692 426 q 726 470 765 508 l 765 508 l 783 527 q 819 561 840 593 q 860 624 860 660 l 860 660 q 860 695 839 719 q 818 743 769 743 l 769 743 q 745 743 725 740 q 704 737 689 732 l 689 732 l 676 779 q 693 784 720 788 q 747 792 776 792 l 776 792 q 829 792 860 773 q 890 753 904 725 q 917 696 917 669 l 917 669 q 917 623 892 584 q 866 545 823 501 l 823 501 l 808 482 q 765 441 735 399 q 705 356 689 310 q 673 264 673 209 l 673 209 q 673 142 691 104 q 709 66 738 51 q 767 36 800 36 l 800 36 q 859 36 893 80 q 926 123 926 212 l 926 212 q 926 274 909 328 q 892 382 859 424 q 826 465 778 488 l 778 488 q 753 502 725 508 q 696 513 661 513 l 661 513 q 613 513 582 503 q 550 492 529 473 l 529 473 q 508 455 495 430 q 481 405 474 369 q 467 332 467 276 l 467 276 l 467 84 l 420 84 l 422 266 l 434 416 q 451 466 483 498 q 514 530 559 546 q 603 562 658 562 l 658 562 q 702 562 738 554 q 774 546 807 529 l 807 529 q 810 527 814 525 q 818 523 821 521 l 821 521 q 874 491 911 443 q 947 395 966 337 q 984 279 984 216 l 984 216 q 984 108 936 48 q 887 -12 800 -12 z"},"ർ":{"ha":703,"x_min":41,"x_max":662,"o":"m 478 -12 l 478 -12 q 423 -12 382 13 q 340 37 317 87 q 294 136 294 211 l 294 211 q 294 277 315 330 q 336 382 371 426 q 405 470 443 508 l 443 508 l 461 527 q 496 562 517 593 q 538 624 538 660 l 538 660 q 538 695 517 719 q 496 743 448 743 l 448 743 q 424 743 403 740 q 382 737 367 732 l 367 732 l 354 779 q 371 784 398 788 q 425 792 454 792 l 454 792 q 507 792 538 773 q 569 753 582 725 q 595 696 595 669 l 595 669 q 595 623 570 584 q 545 544 501 501 l 501 501 l 486 482 q 443 441 413 399 q 383 356 368 310 q 352 264 352 209 l 352 209 q 352 142 370 104 q 387 66 417 51 q 446 36 479 36 l 479 36 q 537 36 571 80 q 605 123 605 212 l 605 212 q 605 258 595 300 q 585 342 566 378 q 547 414 520 443 q 492 471 457 488 l 457 488 q 430 502 401 508 q 371 514 336 514 l 336 514 q 264 514 211 484 q 157 453 128 399 q 99 345 99 275 l 99 275 q 99 218 115 174 q 130 130 159 96 q 187 62 227 35 l 227 35 l 195 -7 q 155 18 120 57 q 85 95 63 150 q 41 204 41 276 l 41 276 q 41 339 62 392 q 82 444 121 482 q 159 520 214 541 q 268 562 336 562 l 336 562 q 379 562 416 554 q 453 546 485 529 l 485 529 q 489 527 493 526 q 496 524 499 521 l 499 521 q 553 491 590 443 q 626 395 644 337 q 662 279 662 216 l 662 216 q 662 108 614 48 q 565 -12 478 -12 z"},"ൽ":{"ha":1137,"x_min":42,"x_max":1096,"o":"m 698 562 l 698 562 q 739 562 776 558 q 813 553 848 544 q 882 534 911 518 l 911 518 l 928 510 q 1010 467 1053 391 q 1096 315 1096 216 l 1096 216 q 1096 108 1048 48 q 999 -12 911 -12 l 911 -12 q 856 -12 815 13 q 773 37 751 87 q 728 136 728 211 l 728 211 q 728 275 748 327 q 768 378 801 422 q 834 465 872 504 l 872 504 l 890 523 q 926 558 949 591 q 972 624 972 660 l 972 660 q 972 695 951 719 q 930 743 881 743 l 881 743 q 857 743 837 740 q 816 737 801 732 l 801 732 l 788 779 q 805 784 832 788 q 859 792 888 792 l 888 792 q 941 792 972 773 q 1002 753 1016 725 q 1029 696 1029 669 l 1029 669 q 1029 623 1003 583 q 977 542 933 498 l 933 498 l 917 479 q 874 438 845 396 q 816 354 801 309 q 785 263 785 209 l 785 209 q 785 142 803 104 q 821 66 850 51 q 879 36 912 36 l 912 36 q 971 36 1005 80 q 1038 123 1038 212 l 1038 212 q 1038 276 1021 327 q 1003 378 969 416 q 935 454 886 477 l 886 477 l 872 483 q 836 498 793 506 q 749 513 699 513 l 699 513 q 651 513 606 506 q 561 498 522 480 l 522 480 l 507 473 q 440 440 400 376 q 360 311 360 213 l 360 213 q 360 147 378 109 q 395 70 424 53 q 453 36 490 36 l 490 36 q 526 36 555 54 q 584 71 601 111 q 618 150 618 216 l 618 216 q 618 271 600 323 q 581 375 548 417 q 515 459 470 483 l 470 483 l 456 490 q 429 503 401 509 q 373 515 340 515 l 340 515 q 260 515 207 483 q 153 450 127 396 q 100 341 100 275 l 100 275 q 100 218 116 174 q 131 129 160 95 q 188 61 228 34 l 228 34 l 196 -8 q 156 17 121 56 q 86 95 64 150 q 42 204 42 276 l 42 276 q 42 338 62 390 q 81 442 119 481 q 156 519 211 541 q 266 562 336 562 l 336 562 q 383 562 423 552 q 463 541 502 518 l 502 518 l 519 504 q 588 461 632 385 q 676 308 676 215 l 676 215 q 676 141 653 91 q 630 40 588 14 q 546 -12 490 -12 l 490 -12 q 433 -12 391 14 q 348 39 326 89 q 303 139 303 213 l 303 213 q 303 281 322 336 q 341 390 377 432 q 412 473 459 502 l 459 502 l 478 513 q 525 539 580 551 q 635 562 698 562 z"},"ൾ":{"ha":1005,"x_min":44,"x_max":964,"o":"m 756 792 l 756 792 q 809 792 840 773 q 870 753 884 725 q 897 696 897 669 l 897 669 q 897 623 872 584 q 847 544 803 501 l 803 501 l 788 482 q 745 441 715 399 q 684 356 669 310 q 653 264 653 209 l 653 209 q 653 142 671 105 q 689 67 718 52 q 747 36 780 36 l 780 36 q 839 36 873 80 q 906 124 906 212 l 906 212 q 906 258 897 300 q 887 342 869 378 q 850 414 823 442 q 796 470 761 489 l 761 489 q 738 502 710 508 q 682 514 652 514 l 652 514 q 611 514 578 503 q 544 492 522 472 l 522 472 q 489 443 474 394 q 459 345 459 269 l 459 269 l 459 251 q 459 198 454 160 q 449 122 438 95 q 426 68 407 45 l 407 45 q 384 18 349 3 q 314 -12 264 -12 l 264 -12 q 196 -12 147 21 q 97 53 71 115 q 44 176 44 261 l 44 261 q 44 332 63 386 q 81 439 115 482 q 149 524 194 560 l 194 560 l 229 519 q 192 491 163 456 q 134 420 118 373 q 102 325 102 261 l 102 261 q 102 190 122 140 q 142 90 178 64 q 214 37 261 37 l 261 37 q 304 37 329 50 q 353 62 368 83 l 368 83 q 390 113 396 161 q 402 208 402 269 l 402 269 l 402 284 q 402 364 421 417 q 439 470 478 505 l 478 505 q 510 534 553 548 q 596 562 649 562 l 649 562 q 688 562 722 554 q 755 546 787 530 l 787 530 l 801 523 q 853 493 890 446 q 926 398 945 340 q 964 281 964 215 l 964 215 q 964 108 916 48 q 867 -12 780 -12 l 780 -12 q 724 -12 683 13 q 641 37 619 87 q 596 136 596 211 l 596 211 q 596 277 617 330 q 638 382 672 426 q 706 470 745 508 l 745 508 l 763 527 q 798 562 819 593 q 840 624 840 660 l 840 660 q 840 695 819 719 q 798 743 749 743 l 749 743 q 725 743 705 740 q 684 737 669 732 l 669 732 l 656 779 q 673 784 700 788 q 727 792 756 792 z"},"ൿ":{"ha":1150,"x_min":35,"x_max":1115,"o":"m 507 562 l 507 562 q 582 562 630 526 q 677 490 700 427 q 723 363 723 277 l 723 277 q 723 180 697 116 q 670 51 622 20 q 573 -12 507 -12 l 507 -12 q 456 -12 417 7 q 378 25 351 58 l 351 58 q 319 97 304 154 q 289 211 289 277 l 289 277 q 289 411 347 487 q 405 562 507 562 z m 507 514 l 507 514 q 426 514 386 453 q 345 392 345 276 l 345 276 q 345 196 364 143 q 383 89 419 63 q 454 36 504 36 l 504 36 q 556 36 593 61 q 629 86 648 140 q 667 193 667 277 l 667 277 q 667 359 649 412 q 630 464 595 489 q 559 514 507 514 z m 204 -12 l 204 -12 q 123 -12 79 30 q 35 72 35 147 l 35 147 q 35 190 54 222 q 72 253 102 272 l 102 272 q 127 289 158 299 q 189 308 230 312 q 271 315 326 315 l 326 315 l 878 315 q 937 315 980 307 q 1023 298 1056 273 l 1056 273 q 1082 254 1099 225 q 1115 195 1115 151 l 1115 151 q 1115 72 1073 30 q 1031 -12 956 -12 l 956 -12 q 880 -12 837 34 q 793 80 793 153 l 793 153 q 793 186 802 219 q 810 252 826 285 l 826 285 q 827 287 828 291 q 829 294 830 297 l 830 297 q 844 324 861 357 q 878 389 901 431 l 901 431 q 936 493 955 532 q 973 571 980 599 q 986 627 986 654 l 986 654 q 986 694 965 719 q 944 743 895 743 l 895 743 q 871 743 851 740 q 830 737 815 732 l 815 732 l 802 779 q 819 784 846 788 q 873 792 902 792 l 902 792 q 955 792 986 773 q 1017 753 1030 723 q 1043 693 1043 661 l 1043 661 q 1043 636 1039 612 q 1035 587 1024 559 q 1013 531 994 494 q 975 457 945 405 l 945 405 q 928 374 914 349 q 900 323 889 300 l 889 300 q 887 296 886 291 q 884 286 881 282 l 881 282 q 865 247 857 216 q 849 184 849 157 l 849 157 q 849 112 865 86 q 880 60 905 48 q 929 36 956 36 l 956 36 q 1007 36 1033 64 q 1058 92 1058 148 l 1058 148 q 1058 180 1047 202 q 1035 223 1016 236 l 1016 236 q 991 255 958 261 q 924 267 878 267 l 878 267 l 322 267 q 253 267 210 261 q 166 255 134 233 l 134 233 q 115 220 104 199 q 92 177 92 147 l 92 147 q 92 107 107 83 q 122 58 149 47 q 175 36 207 36 l 207 36 q 246 36 280 49 q 313 61 353 90 l 353 90 l 387 53 q 359 33 332 19 q 304 4 274 -4 q 243 -12 204 -12 z"},"!":{"ha":252,"x_min":82,"x_max":170,"o":"m 146 188 l 106 188 l 92 714 l 160 714 l 146 188 z m 125 -10 l 125 -10 q 104 -10 93 3 q 82 16 82 40 l 82 40 q 82 62 93 76 q 103 89 125 89 l 125 89 q 149 89 160 76 q 170 62 170 40 l 170 40 q 170 17 159 4 q 148 -10 125 -10 z"},"\"":{"ha":394,"x_min":83,"x_max":312,"o":"m 138 542 l 97 542 l 83 800 l 152 800 l 138 542 z m 297 542 l 256 542 l 242 800 l 312 800 l 297 542 z"},"#":{"ha":646,"x_min":27,"x_max":620,"o":"m 171 0 l 121 0 l 163 218 l 27 218 l 27 264 l 172 264 l 207 449 l 67 449 l 67 496 l 215 496 l 257 714 l 306 714 l 265 496 l 434 496 l 476 714 l 525 714 l 484 496 l 620 496 l 620 449 l 475 449 l 440 264 l 580 264 l 580 218 l 431 218 l 390 0 l 340 0 l 382 218 l 212 218 l 171 0 z m 256 449 l 221 264 l 391 264 l 425 449 l 256 449 z"},"%":{"ha":812,"x_min":54,"x_max":758,"o":"m 236 0 l 182 0 l 577 714 l 630 714 l 236 0 z m 195 276 l 195 276 q 127 276 91 334 q 54 391 54 501 l 54 501 q 54 613 91 669 q 128 725 196 725 l 196 725 q 267 725 303 668 q 339 610 339 501 l 339 501 q 339 389 302 333 q 265 276 195 276 z m 195 321 l 195 321 q 243 321 266 367 q 289 412 289 501 l 289 501 q 289 589 267 635 q 244 680 196 680 l 196 680 q 151 680 128 636 q 104 591 104 501 l 104 501 q 104 412 127 367 q 150 321 195 321 z m 614 -11 l 614 -11 q 547 -11 510 47 q 473 104 473 214 l 473 214 q 473 326 510 382 q 547 437 615 437 l 615 437 q 686 437 722 380 q 758 322 758 214 l 758 214 q 758 102 721 46 q 684 -11 614 -11 z m 614 34 l 614 34 q 662 34 685 80 q 708 125 708 214 l 708 214 q 708 302 686 348 q 663 393 615 393 l 615 393 q 570 393 547 349 q 523 304 523 214 l 523 214 q 523 124 546 79 q 569 34 614 34 z"},"'":{"ha":234,"x_min":83,"x_max":152,"o":"m 138 542 l 97 542 l 83 800 l 152 800 l 138 542 z"},"(":{"ha":288,"x_min":51,"x_max":258,"o":"m 51 280 l 51 280 q 51 381 68 474 q 85 567 119 650 q 152 732 200 800 l 200 800 l 258 800 q 208 728 175 644 q 142 559 126 468 q 109 376 109 280 l 109 280 q 109 184 125 92 q 141 0 175 -84 q 208 -169 258 -244 l 258 -244 l 200 -244 q 152 -174 119 -91 q 85 -9 68 85 q 51 179 51 280 z"},")":{"ha":288,"x_min":31,"x_max":238,"o":"m 238 277 l 238 277 q 238 176 221 83 q 204 -10 171 -92 q 137 -174 88 -244 l 88 -244 l 31 -244 q 81 -171 114 -87 q 147 -3 164 89 q 180 181 180 277 l 180 277 q 180 373 164 465 q 148 556 115 641 q 82 726 31 800 l 31 800 l 88 800 q 137 731 171 648 q 204 565 221 472 q 238 379 238 277 z"},"*":{"ha":532,"x_min":43,"x_max":489,"o":"m 234 800 l 298 800 l 286 603 l 478 663 l 489 602 l 299 566 l 421 406 l 366 374 l 266 548 l 168 374 l 112 406 l 233 566 l 43 602 l 55 663 l 246 603 l 234 800 z"},"+":{"ha":572,"x_min":54,"x_max":519,"o":"m 311 117 l 262 117 l 262 329 l 54 329 l 54 377 l 262 377 l 262 589 l 311 589 l 311 377 l 519 377 l 519 329 l 311 329 l 311 117 z"},",":{"ha":228,"x_min":34,"x_max":155,"o":"m 87 116 l 148 116 l 155 106 q 148 68 136 28 q 124 -13 110 -53 q 95 -93 79 -129 l 79 -129 l 34 -129 q 46 -91 57 -48 q 67 -5 75 38 q 83 81 87 116 l 87 116 z"},"-":{"ha":321,"x_min":40,"x_max":281,"o":"m 281 242 l 40 242 l 40 296 l 281 296 l 281 242 z"},".":{"ha":237,"x_min":75,"x_max":163,"o":"m 118 -10 l 118 -10 q 98 -10 87 3 q 75 15 75 40 l 75 40 q 75 65 87 77 q 98 89 118 89 l 118 89 q 140 89 152 77 q 163 65 163 40 l 163 40 q 163 15 152 3 q 140 -10 118 -10 z"},"/":{"ha":369,"x_min":24,"x_max":346,"o":"m 80 -244 l 24 -244 l 290 800 l 346 800 l 80 -244 z"},":":{"ha":237,"x_min":75,"x_max":163,"o":"m 118 -10 l 118 -10 q 98 -10 87 3 q 75 15 75 40 l 75 40 q 75 65 87 77 q 98 89 118 89 l 118 89 q 140 89 152 77 q 163 65 163 40 l 163 40 q 163 15 152 3 q 140 -10 118 -10 z m 118 447 l 118 447 q 98 447 87 460 q 75 472 75 497 l 75 497 q 75 522 87 534 q 98 546 118 546 l 118 546 q 140 546 152 534 q 163 522 163 497 l 163 497 q 163 472 152 460 q 140 447 118 447 z"},";":{"ha":237,"x_min":34,"x_max":163,"o":"m 87 116 l 148 116 l 155 106 q 148 68 136 28 q 124 -13 110 -53 q 95 -93 79 -129 l 79 -129 l 34 -129 q 47 -91 57 -47 q 67 -4 75 39 q 83 81 87 116 l 87 116 z m 118 447 l 118 447 q 98 447 87 460 q 75 472 75 497 l 75 497 q 75 522 87 534 q 98 546 118 546 l 118 546 q 140 546 152 534 q 163 522 163 497 l 163 497 q 163 472 152 460 q 140 447 118 447 z"},"<":{"ha":572,"x_min":54,"x_max":518,"o":"m 518 175 l 518 122 l 54 333 l 54 369 l 518 594 l 518 541 l 118 353 l 518 175 z"},"=":{"ha":572,"x_min":57,"x_max":516,"o":"m 516 228 l 57 228 l 57 276 l 516 276 l 516 228 z m 516 429 l 57 429 l 57 478 l 516 478 l 516 429 z"},">":{"ha":572,"x_min":54,"x_max":518,"o":"m 518 333 l 54 122 l 54 175 l 455 352 l 54 541 l 54 594 l 518 369 l 518 333 z"},"?":{"ha":429,"x_min":38,"x_max":394,"o":"m 201 725 l 201 725 q 288 725 341 680 q 394 634 394 548 l 394 548 q 394 502 380 468 q 365 434 339 407 q 312 379 273 349 l 273 349 q 243 326 227 306 q 210 285 204 261 q 197 236 197 199 l 197 199 l 197 188 l 150 188 l 150 203 q 150 247 157 277 q 164 306 183 331 q 201 355 235 381 l 235 381 q 268 407 291 430 q 314 453 326 481 q 338 508 338 547 l 338 547 q 338 608 301 641 q 263 673 200 673 l 200 673 q 162 673 127 662 q 92 651 59 634 l 59 634 l 38 681 q 75 701 116 713 q 157 725 201 725 z m 176 -10 l 176 -10 q 156 -10 144 3 q 132 15 132 40 l 132 40 q 132 65 144 77 q 156 89 176 89 l 176 89 q 198 89 209 77 q 220 65 220 40 l 220 40 q 220 15 209 3 q 198 -10 176 -10 z"},"[":{"ha":313,"x_min":87,"x_max":272,"o":"m 272 -244 l 87 -244 l 87 800 l 272 800 l 272 753 l 144 753 l 144 -197 l 272 -197 l 272 -244 z"},"\\":{"ha":369,"x_min":24,"x_max":346,"o":"m 346 -244 l 290 -244 l 24 800 l 80 800 l 346 -244 z"},"]":{"ha":318,"x_min":44,"x_max":229,"o":"m 229 -244 l 44 -244 l 44 -197 l 172 -197 l 172 753 l 44 753 l 44 800 l 229 800 l 229 -244 z"},"^":{"ha":572,"x_min":43,"x_max":528,"o":"m 97 273 l 43 273 l 269 719 l 306 719 l 528 273 l 474 273 l 287 658 l 97 273 z"},"_":{"ha":444,"x_min":-2,"x_max":446,"o":"m 446 -134 l -2 -134 l -2 -90 l 446 -90 l 446 -134 z"},"{":{"ha":357,"x_min":30,"x_max":318,"o":"m 318 -194 l 318 -244 q 264 -243 226 -228 q 188 -213 169 -179 q 149 -145 149 -90 l 149 -90 l 149 139 q 149 202 120 228 q 91 253 30 253 l 30 253 l 30 303 q 92 303 121 330 q 149 356 149 418 l 149 418 l 149 645 q 149 698 170 732 q 190 766 228 783 q 266 800 318 800 l 318 800 l 318 751 q 262 750 234 728 q 206 705 206 645 l 206 645 l 206 418 q 206 360 183 325 q 160 290 110 280 l 110 280 l 110 276 q 159 265 183 233 q 206 200 206 140 l 206 140 l 206 -90 q 206 -131 218 -154 q 229 -177 254 -185 q 278 -194 318 -194 l 318 -194 z"},"|":{"ha":532,"x_min":241,"x_max":291,"o":"m 291 -244 l 241 -244 l 241 800 l 291 800 l 291 -244 z"},"}":{"ha":357,"x_min":40,"x_max":327,"o":"m 40 751 l 40 800 q 94 800 132 785 q 170 769 190 736 q 209 702 209 647 l 209 647 l 209 417 q 209 354 238 329 q 266 304 327 304 l 327 304 l 327 253 q 266 253 238 227 q 209 201 209 138 l 209 138 l 209 -89 q 209 -141 189 -175 q 168 -210 130 -226 q 92 -243 40 -244 l 40 -244 l 40 -194 q 96 -193 124 -170 q 151 -148 151 -88 l 151 -88 l 151 139 q 151 196 175 231 q 198 266 247 276 l 247 276 l 247 280 q 198 291 175 324 q 151 356 151 416 l 151 416 l 151 646 q 151 688 140 711 q 129 733 105 742 q 80 751 40 751 l 40 751 z"},"~":{"ha":572,"x_min":53,"x_max":519,"o":"m 275 330 l 275 330 q 244 345 220 353 q 196 360 169 360 l 169 360 q 140 360 110 345 q 80 330 53 303 l 53 303 l 53 358 q 77 382 107 395 q 137 408 171 408 l 171 408 q 202 408 231 401 q 259 393 295 377 l 295 377 q 329 362 353 355 q 377 347 406 347 l 406 347 q 435 347 464 362 q 492 376 519 403 l 519 403 l 519 348 q 495 324 466 311 q 436 298 401 298 l 401 298 q 371 298 342 306 q 313 313 275 330 z"}," ":{"ha":309,"x_min":0,"x_max":0,"o":""},"­":{"ha":321,"x_min":40,"x_max":281,"o":"m 281 242 l 40 242 l 40 296 l 281 296 l 281 242 z"},"–":{"ha":500,"x_min":40,"x_max":460,"o":"m 460 242 l 40 242 l 40 296 l 460 296 l 460 242 z"},"—":{"ha":1000,"x_min":40,"x_max":960,"o":"m 960 242 l 40 242 l 40 296 l 960 296 l 960 242 z"},"‘":{"ha":206,"x_min":41,"x_max":161,"o":"m 108 555 l 47 555 l 41 565 q 48 604 60 645 q 72 685 87 725 q 101 765 117 800 l 117 800 l 161 800 q 149 763 139 720 q 128 676 121 634 q 113 591 108 555 l 108 555 z"},"’":{"ha":206,"x_min":41,"x_max":161,"o":"m 94 800 l 155 800 l 161 790 q 154 752 142 712 q 130 671 116 631 q 101 591 86 555 l 86 555 l 41 555 q 50 583 58 615 q 66 646 73 679 q 80 712 85 743 q 90 774 94 800 l 94 800 z"},"“":{"ha":372,"x_min":41,"x_max":327,"o":"m 275 555 l 213 555 l 207 565 q 215 604 227 645 q 238 685 253 725 q 268 765 283 800 l 283 800 l 327 800 q 316 763 305 720 q 294 676 287 634 q 279 591 275 555 l 275 555 z m 109 555 l 47 555 l 41 565 q 49 604 61 645 q 72 685 87 725 q 102 765 117 800 l 117 800 l 161 800 q 150 763 139 720 q 128 676 121 634 q 113 591 109 555 l 109 555 z"},"”":{"ha":372,"x_min":41,"x_max":327,"o":"m 260 800 l 321 800 l 327 790 q 320 752 308 712 q 296 671 282 631 q 267 591 252 555 l 252 555 l 207 555 q 219 592 230 636 q 240 679 248 722 q 256 765 260 800 l 260 800 z m 94 800 l 155 800 l 161 790 q 154 752 142 712 q 130 671 116 631 q 101 591 86 555 l 86 555 l 41 555 q 50 583 58 615 q 66 646 73 679 q 80 712 85 743 q 90 774 94 800 l 94 800 z"},"…":{"ha":711,"x_min":75,"x_max":636,"o":"m 118 -10 l 118 -10 q 98 -10 87 3 q 75 15 75 40 l 75 40 q 75 65 87 77 q 98 89 118 89 l 118 89 q 140 89 152 77 q 163 65 163 40 l 163 40 q 163 15 152 3 q 140 -10 118 -10 z m 355 -10 l 355 -10 q 334 -10 323 3 q 311 15 311 40 l 311 40 q 311 65 323 77 q 334 89 355 89 l 355 89 q 377 89 388 77 q 399 65 399 40 l 399 40 q 399 15 388 3 q 377 -10 355 -10 z m 592 -10 l 592 -10 q 571 -10 560 3 q 548 15 548 40 l 548 40 q 548 65 560 77 q 571 89 592 89 l 592 89 q 614 89 625 77 q 636 65 636 40 l 636 40 q 636 15 625 3 q 614 -10 592 -10 z"},"×":{"ha":572,"x_min":69,"x_max":504,"o":"m 286 387 l 470 571 l 504 536 l 320 353 l 503 170 l 469 136 l 286 319 l 104 136 l 69 170 l 253 353 l 69 536 l 104 571 l 286 387 z"},"÷":{"ha":572,"x_min":54,"x_max":519,"o":"m 519 329 l 54 329 l 54 377 l 519 377 l 519 329 z m 286 133 l 286 133 q 265 133 255 146 q 245 158 245 179 l 245 179 q 245 200 255 212 q 264 224 286 224 l 286 224 q 308 224 318 212 q 327 200 327 179 l 327 179 q 327 158 317 146 q 307 133 286 133 z m 286 481 l 286 481 q 265 481 255 494 q 245 506 245 527 l 245 527 q 245 548 255 561 q 264 573 286 573 l 286 573 q 308 573 318 561 q 327 548 327 527 l 327 527 q 326 506 317 494 q 307 481 286 481 z"},"−":{"ha":572,"x_min":53,"x_max":519,"o":"m 519 329 l 53 329 l 53 377 l 519 377 l 519 329 z"},"₹":{"ha":572,"x_min":75,"x_max":509,"o":"m 382 0 l 310 0 l 78 296 l 85 344 l 116 344 q 171 344 203 355 q 234 366 253 388 l 253 388 q 270 407 279 435 q 288 463 288 504 l 288 504 q 288 544 281 571 q 273 597 258 617 l 258 617 q 241 643 212 656 q 183 669 130 669 l 130 669 l 75 669 l 75 714 l 509 714 l 509 669 l 265 669 q 303 649 325 609 q 346 568 346 505 l 346 505 q 346 441 324 396 q 301 351 256 326 q 210 301 139 296 l 139 296 l 139 306 l 382 0 z m 509 486 l 75 486 l 75 532 l 509 532 l 509 486 z"},"꠰":{"ha":219,"x_min":82,"x_max":138,"o":"m 82 0 l 82 550 l 138 550 l 138 0 l 82 0 z"},"꠱":{"ha":416,"x_min":82,"x_max":334,"o":"m 82 0 l 82 550 l 138 550 l 138 0 l 82 0 z m 278 0 l 278 550 l 334 550 l 334 0 l 278 0 z"},"꠲":{"ha":612,"x_min":82,"x_max":531,"o":"m 82 0 l 82 550 l 138 550 l 138 0 l 82 0 z m 278 0 l 278 550 l 334 550 l 334 0 l 278 0 z m 475 0 l 475 550 l 531 550 l 531 0 l 475 0 z"},"॑":{"ha":0,"x_min":-302,"x_max":-253,"o":"m -302 653 l -302 864 l -253 864 l -253 653 l -302 653 z"},"॒":{"ha":0,"x_min":-477,"x_max":-78,"o":"m -78 -121 l -78 -169 l -477 -169 l -477 -121 l -78 -121 z"},"।":{"ha":329,"x_min":182,"x_max":238,"o":"m 238 -49 l 182 -49 l 182 599 l 238 599 l 238 -49 z"},"॥":{"ha":543,"x_min":182,"x_max":452,"o":"m 452 -49 l 396 -49 l 396 599 l 452 599 l 452 -49 z m 238 -49 l 182 -49 l 182 599 l 238 599 l 238 -49 z"},"᳚":{"ha":0,"x_min":-362,"x_max":-194,"o":"m -362 653 l -362 864 l -315 864 l -315 653 l -362 653 z m -241 653 l -241 864 l -194 864 l -194 653 l -241 653 z"},"̇":{"ha":0,"x_min":-317,"x_max":-239,"o":"m -317 701 l -317 701 q -317 722 -307 734 q -297 745 -278 745 l -278 745 q -259 745 -249 734 q -239 722 -239 701 l -239 701 q -239 681 -249 670 q -259 658 -278 658 l -278 658 q -297 658 -307 670 q -317 681 -317 701 z"},"̣":{"ha":0,"x_min":-317,"x_max":-239,"o":"m -317 -135 l -317 -135 q -317 -115 -307 -103 q -297 -92 -278 -92 l -278 -92 q -259 -92 -249 -103 q -239 -115 -239 -135 l -239 -135 q -239 -156 -249 -167 q -259 -178 -278 -178 l -278 -178 q -297 -178 -307 -167 q -317 -156 -317 -135 z"},"‐":{"ha":321,"x_min":40,"x_max":281,"o":"m 281 242 l 40 242 l 40 296 l 281 296 l 281 242 z"},"​":{"ha":0,"x_min":0,"x_max":0,"o":""},"‌":{"ha":0,"x_min":0,"x_max":0,"o":""},"‍":{"ha":0,"x_min":-161,"x_max":161,"o":"m 29 -244 l -29 -244 l -29 565 l -121 474 l -161 514 l -40 631 l -161 748 l -121 788 l 0 669 l 121 788 l 161 748 l 40 631 l 161 514 l 121 474 l 29 565 l 29 -244 z"},"◌":{"ha":562,"x_min":57,"x_max":504,"o":"m 89 231 l 89 231 q 57 231 57 264 l 57 264 q 57 295 89 295 l 89 295 q 121 295 121 264 l 121 264 q 121 231 89 231 z m 138 95 l 138 95 q 106 95 106 127 l 106 127 q 106 158 138 158 l 138 158 q 169 158 169 127 l 169 127 q 169 95 138 95 z m 281 40 l 281 40 q 249 40 249 72 l 249 72 q 249 104 281 104 l 281 104 q 312 104 312 72 l 312 72 q 312 40 281 40 z m 138 369 l 138 369 q 106 369 106 401 l 106 401 q 106 432 138 432 l 138 432 q 169 432 169 401 l 169 401 q 169 369 138 369 z m 423 95 l 423 95 q 391 95 391 127 l 391 127 q 391 158 423 158 l 423 158 q 455 158 455 127 l 455 127 q 455 95 423 95 z m 281 424 l 281 424 q 249 424 249 456 l 249 456 q 249 487 281 487 l 281 487 q 312 487 312 456 l 312 456 q 312 424 281 424 z m 472 231 l 472 231 q 441 231 441 264 l 441 264 q 441 295 472 295 l 472 295 q 504 295 504 264 l 504 264 q 504 231 472 231 z m 423 369 l 423 369 q 391 369 391 401 l 391 401 q 391 432 423 432 l 423 432 q 455 432 455 401 l 455 401 q 455 369 423 369 z"},"«":{"ha":449,"x_min":33,"x_max":417,"o":"m 33 265 l 33 278 l 193 472 l 233 448 l 94 272 l 233 96 l 193 72 l 33 265 z m 217 265 l 217 278 l 378 472 l 417 448 l 278 272 l 417 96 l 378 72 l 217 265 z"},"»":{"ha":449,"x_min":33,"x_max":416,"o":"m 416 279 l 416 266 l 255 72 l 216 96 l 355 272 l 216 448 l 255 472 l 416 279 z m 232 279 l 232 266 l 72 72 l 33 96 l 171 272 l 33 448 l 72 472 l 232 279 z"},"̈":{"ha":0,"x_min":-129,"x_max":128,"o":"m -128 680 l -128 680 q -128 699 -118 710 q -109 720 -93 720 l -93 720 q -75 720 -66 710 q -57 699 -57 680 l -57 680 q -57 661 -66 650 q -75 639 -93 639 l -93 639 q -109 639 -118 650 q -128 661 -128 680 z m 58 680 l 58 680 q 58 699 68 710 q 77 720 93 720 l 93 720 q 111 720 120 710 q 129 699 129 680 l 129 680 q 129 661 120 650 q 111 639 93 639 l 93 639 q 77 639 68 650 q 58 661 58 680 z"},"̀":{"ha":0,"x_min":-469,"x_max":-284,"o":"m -469 766 l -401 766 q -388 745 -368 717 q -348 689 -325 662 q -302 635 -284 615 l -284 615 l -284 606 l -324 606 q -342 622 -363 642 q -384 661 -404 682 q -424 703 -441 723 q -458 742 -469 758 l -469 758 l -469 766 z"},"́":{"ha":0,"x_min":-267,"x_max":-82,"o":"m -82 766 l -82 758 q -93 742 -110 723 q -127 703 -147 682 q -167 661 -187 642 q -208 622 -227 606 l -227 606 l -267 606 l -267 615 q -248 635 -226 662 q -204 689 -183 717 q -162 745 -150 766 l -150 766 l -82 766 z"},"̋":{"ha":0,"x_min":-109,"x_max":220,"o":"m 220 766 l 220 758 q 211 742 197 723 q 182 703 165 682 q 147 660 129 641 q 111 622 95 606 l 95 606 l 59 606 l 59 615 q 75 635 94 662 q 112 688 130 716 q 147 744 157 766 l 157 766 l 220 766 z m 52 766 l 52 758 q 43 742 29 723 q 14 703 -3 682 q -21 660 -39 641 q -57 622 -73 606 l -73 606 l -109 606 l -109 615 q -93 635 -74 662 q -56 688 -39 716 q -22 744 -11 766 l -11 766 l 52 766 z"},"̄":{"ha":0,"x_min":-138,"x_max":138,"o":"m -138 658 l 138 658 l 138 610 l -138 610 l -138 658 z"},"˙":{"ha":158,"x_min":40,"x_max":118,"o":"m 79 729 l 79 729 q 98 729 108 718 q 118 706 118 686 l 118 686 q 118 665 108 654 q 98 642 79 642 l 79 642 q 60 642 50 654 q 40 665 40 686 l 40 686 q 40 706 50 718 q 60 729 79 729 z"},"°":{"ha":428,"x_min":63,"x_max":365,"o":"m 214 429 l 214 429 q 170 429 136 448 q 102 466 83 500 q 63 533 63 577 l 63 577 q 63 621 83 654 q 102 687 136 706 q 170 724 214 724 l 214 724 q 258 724 293 706 q 327 687 346 654 q 365 621 365 577 l 365 577 q 365 533 346 500 q 327 466 293 448 q 258 429 214 429 z m 214 471 l 214 471 q 264 471 292 501 q 319 530 319 577 l 319 577 q 319 625 291 654 q 263 683 214 683 l 214 683 q 164 683 137 654 q 109 625 109 577 l 109 577 q 109 530 137 501 q 164 471 214 471 z"},"A":{"ha":608,"x_min":0,"x_max":608,"o":"m 608 0 l 547 0 l 452 246 l 156 246 l 60 0 l 0 0 l 281 717 l 334 717 l 608 0 z m 434 299 l 339 556 q 335 566 329 583 q 323 600 317 619 q 311 638 306 653 l 306 653 q 301 636 296 618 q 290 600 284 584 q 278 568 274 555 l 274 555 l 175 299 l 434 299 z"},"Á":{"ha":608,"x_min":0,"x_max":608,"o":"m 608 0 l 547 0 l 452 246 l 156 246 l 60 0 l 0 0 l 281 717 l 334 717 l 608 0 z m 434 299 l 339 556 q 335 566 329 583 q 323 600 317 619 q 311 638 306 653 l 306 653 q 301 636 296 618 q 290 600 284 584 q 278 568 274 555 l 274 555 l 175 299 l 434 299 z m 440 948 l 440 940 q 429 924 412 905 q 395 885 375 864 q 355 843 335 824 q 314 804 295 788 l 295 788 l 255 788 l 255 797 q 274 817 296 844 q 318 871 339 899 q 360 927 372 948 l 372 948 l 440 948 z"},"Ă":{"ha":608,"x_min":0,"x_max":608,"o":"m 608 0 l 547 0 l 452 246 l 156 246 l 60 0 l 0 0 l 281 717 l 334 717 l 608 0 z m 434 299 l 339 556 q 335 566 329 583 q 323 600 317 619 q 311 638 306 653 l 306 653 q 301 636 296 618 q 290 600 284 584 q 278 568 274 555 l 274 555 l 175 299 l 434 299 z m 403 911 l 443 911 q 440 873 423 846 q 405 818 375 803 q 345 788 303 788 l 303 788 q 239 788 205 821 q 170 853 165 911 l 165 911 l 205 911 q 208 885 220 868 q 231 851 253 844 q 274 836 304 836 l 304 836 q 333 836 354 844 q 375 852 388 869 q 400 885 403 911 l 403 911 z"},"Â":{"ha":608,"x_min":0,"x_max":608,"o":"m 608 0 l 547 0 l 452 246 l 156 246 l 60 0 l 0 0 l 281 717 l 334 717 l 608 0 z m 434 299 l 339 556 q 335 566 329 583 q 323 600 317 619 q 311 638 306 653 l 306 653 q 301 636 296 618 q 290 600 284 584 q 278 568 274 555 l 274 555 l 175 299 l 434 299 z m 276 947 l 332 947 q 344 926 365 899 q 386 871 410 844 q 433 817 451 797 l 451 797 l 451 788 l 410 788 q 383 810 355 839 q 327 868 303 896 l 303 896 q 279 868 252 840 q 224 811 197 788 l 197 788 l 156 788 l 156 797 q 175 817 198 844 q 221 871 242 899 q 263 926 276 947 l 276 947 z"},"Ä":{"ha":608,"x_min":0,"x_max":608,"o":"m 608 0 l 547 0 l 452 246 l 156 246 l 60 0 l 0 0 l 281 717 l 334 717 l 608 0 z m 434 299 l 339 556 q 335 566 329 583 q 323 600 317 619 q 311 638 306 653 l 306 653 q 301 636 296 618 q 290 600 284 584 q 278 568 274 555 l 274 555 l 175 299 l 434 299 z m 176 862 l 176 862 q 176 881 186 892 q 195 902 211 902 l 211 902 q 229 902 238 892 q 247 881 247 862 l 247 862 q 247 843 238 832 q 229 821 211 821 l 211 821 q 195 821 186 832 q 176 843 176 862 z m 362 862 l 362 862 q 362 881 372 892 q 381 902 397 902 l 397 902 q 415 902 424 892 q 433 881 433 862 l 433 862 q 433 843 424 832 q 415 821 397 821 l 397 821 q 381 821 372 832 q 362 843 362 862 z"},"À":{"ha":608,"x_min":0,"x_max":608,"o":"m 608 0 l 547 0 l 452 246 l 156 246 l 60 0 l 0 0 l 281 717 l 334 717 l 608 0 z m 434 299 l 339 556 q 335 566 329 583 q 323 600 317 619 q 311 638 306 653 l 306 653 q 301 636 296 618 q 290 600 284 584 q 278 568 274 555 l 274 555 l 175 299 l 434 299 z m 197 948 l 265 948 q 278 927 298 899 q 318 871 341 844 q 364 817 382 797 l 382 797 l 382 788 l 342 788 q 324 804 303 824 q 282 843 262 864 q 242 885 225 905 q 208 924 197 940 l 197 940 l 197 948 z"},"Ā":{"ha":608,"x_min":0,"x_max":608,"o":"m 608 0 l 547 0 l 452 246 l 156 246 l 60 0 l 0 0 l 281 717 l 334 717 l 608 0 z m 434 299 l 339 556 q 335 566 329 583 q 323 600 317 619 q 311 638 306 653 l 306 653 q 301 636 296 618 q 290 600 284 584 q 278 568 274 555 l 274 555 l 175 299 l 434 299 z m 166 840 l 442 840 l 442 792 l 166 792 l 166 840 z"},"Ą":{"ha":608,"x_min":0,"x_max":608,"o":"m 608 0 l 547 0 l 452 246 l 156 246 l 60 0 l 0 0 l 281 717 l 334 717 l 608 0 z m 434 299 l 339 556 q 335 566 329 583 q 323 600 317 619 q 311 638 306 653 l 306 653 q 301 636 296 618 q 290 600 284 584 q 278 568 274 555 l 274 555 l 175 299 l 434 299 z m 508 -123 l 508 -123 q 508 -149 522 -162 q 535 -176 560 -176 l 560 -176 q 575 -176 588 -174 q 600 -172 608 -170 l 608 -170 l 608 -210 q 597 -213 584 -215 q 570 -218 552 -218 l 552 -218 q 508 -218 484 -195 q 459 -173 459 -130 l 459 -130 q 459 -104 472 -78 q 484 -53 506 -30 q 528 -7 555 13 l 555 13 l 588 0 q 554 -29 531 -59 q 508 -89 508 -123 z"},"Å":{"ha":608,"x_min":0,"x_max":608,"o":"m 608 0 l 547 0 l 452 246 l 156 246 l 60 0 l 0 0 l 281 717 l 334 717 l 608 0 z m 434 299 l 339 556 q 335 566 329 583 q 323 600 317 619 q 311 638 306 653 l 306 653 q 301 636 296 618 q 290 600 284 584 q 278 568 274 555 l 274 555 l 175 299 l 434 299 z m 305 682 l 305 682 q 261 682 231 710 q 200 737 200 785 l 200 785 q 200 831 230 859 q 260 887 305 887 l 305 887 q 349 887 380 859 q 411 830 411 785 l 411 785 q 411 738 381 710 q 350 682 305 682 z m 305 719 l 305 719 q 335 719 353 738 q 371 756 371 785 l 371 785 q 371 814 352 833 q 333 851 305 851 l 305 851 q 277 851 258 833 q 239 814 239 785 l 239 785 q 239 756 257 738 q 275 719 305 719 z"},"Ã":{"ha":608,"x_min":0,"x_max":608,"o":"m 608 0 l 547 0 l 452 246 l 156 246 l 60 0 l 0 0 l 281 717 l 334 717 l 608 0 z m 434 299 l 339 556 q 335 566 329 583 q 323 600 317 619 q 311 638 306 653 l 306 653 q 301 636 296 618 q 290 600 284 584 q 278 568 274 555 l 274 555 l 175 299 l 434 299 z m 169 794 l 131 794 q 134 822 142 843 q 149 864 162 878 q 175 892 192 900 q 209 907 231 907 l 231 907 q 254 907 274 897 q 293 887 311 874 q 328 861 345 851 q 362 841 380 841 l 380 841 q 402 841 418 856 q 434 870 440 908 l 440 908 l 477 908 q 472 854 446 824 q 420 794 377 794 l 377 794 q 354 794 335 804 q 316 814 299 827 q 281 840 264 850 q 247 860 228 860 l 228 860 q 206 860 191 846 q 175 831 169 794 l 169 794 z"},"Æ":{"ha":822,"x_min":-1,"x_max":786,"o":"m 786 52 l 786 0 l 407 0 l 407 246 l 172 246 l 61 0 l -1 0 l 322 714 l 786 714 l 786 662 l 465 662 l 465 401 l 766 401 l 766 349 l 465 349 l 465 52 l 786 52 z m 357 662 l 195 298 l 407 298 l 407 662 l 357 662 z"},"B":{"ha":632,"x_min":100,"x_max":577,"o":"m 100 714 l 298 714 q 430 714 493 673 q 556 632 556 540 l 556 540 q 556 499 540 465 q 524 431 493 409 q 462 386 417 378 l 417 378 l 417 375 q 469 367 505 346 q 541 324 559 289 q 577 254 577 203 l 577 203 q 577 134 546 89 q 514 44 458 22 q 401 0 326 0 l 326 0 l 100 0 l 100 714 z m 158 399 l 311 399 q 410 399 453 433 q 496 467 496 534 l 496 534 q 496 603 449 633 q 402 663 298 663 l 298 663 l 158 663 l 158 399 z m 312 349 l 158 349 l 158 51 l 321 51 q 420 51 468 91 q 515 130 515 206 l 515 206 q 515 256 493 288 q 471 319 426 334 q 381 349 312 349 l 312 349 z"},"C":{"ha":623,"x_min":62,"x_max":592,"o":"m 404 672 l 404 672 q 338 672 286 650 q 233 627 197 586 q 161 544 142 487 q 123 429 123 359 l 123 359 q 123 263 154 192 q 184 120 244 81 q 304 42 394 42 l 394 42 q 447 42 491 50 q 534 58 572 71 l 572 71 l 572 20 q 535 6 491 -2 q 447 -10 388 -10 l 388 -10 q 280 -10 208 36 q 135 82 99 165 q 62 248 62 359 l 62 359 q 62 439 85 506 q 108 572 152 621 q 196 670 260 697 q 323 724 405 724 l 405 724 q 457 724 505 714 q 552 704 592 685 l 592 685 l 569 634 q 531 653 490 663 q 449 672 404 672 z"},"Ć":{"ha":623,"x_min":62,"x_max":592,"o":"m 404 672 l 404 672 q 338 672 286 650 q 233 627 197 586 q 161 544 142 487 q 123 429 123 359 l 123 359 q 123 263 154 192 q 184 120 244 81 q 304 42 394 42 l 394 42 q 447 42 491 50 q 534 58 572 71 l 572 71 l 572 20 q 535 6 491 -2 q 447 -10 388 -10 l 388 -10 q 280 -10 208 36 q 135 82 99 165 q 62 248 62 359 l 62 359 q 62 439 85 506 q 108 572 152 621 q 196 670 260 697 q 323 724 405 724 l 405 724 q 457 724 505 714 q 552 704 592 685 l 592 685 l 569 634 q 531 653 490 663 q 449 672 404 672 z m 520 948 l 520 940 q 509 924 492 905 q 475 885 455 864 q 435 843 415 824 q 394 804 375 788 l 375 788 l 335 788 l 335 797 q 354 817 376 844 q 398 871 419 899 q 440 927 452 948 l 452 948 l 520 948 z"},"Č":{"ha":623,"x_min":62,"x_max":592,"o":"m 404 672 l 404 672 q 338 672 286 650 q 233 627 197 586 q 161 544 142 487 q 123 429 123 359 l 123 359 q 123 263 154 192 q 184 120 244 81 q 304 42 394 42 l 394 42 q 447 42 491 50 q 534 58 572 71 l 572 71 l 572 20 q 535 6 491 -2 q 447 -10 388 -10 l 388 -10 q 280 -10 208 36 q 135 82 99 165 q 62 248 62 359 l 62 359 q 62 439 85 506 q 108 572 152 621 q 196 670 260 697 q 323 724 405 724 l 405 724 q 457 724 505 714 q 552 704 592 685 l 592 685 l 569 634 q 531 653 490 663 q 449 672 404 672 z m 411 788 l 355 788 q 342 810 321 837 q 300 864 278 891 q 255 918 236 937 l 236 937 l 236 947 l 277 947 q 304 924 332 895 q 359 866 382 838 l 382 838 q 406 866 435 895 q 463 924 490 947 l 490 947 l 531 947 l 531 937 q 513 918 490 891 q 466 864 445 837 q 423 810 411 788 l 411 788 z"},"Ç":{"ha":623,"x_min":62,"x_max":592,"o":"m 404 672 l 404 672 q 338 672 286 650 q 233 627 197 586 q 161 544 142 487 q 123 429 123 359 l 123 359 q 123 263 154 192 q 184 120 244 81 q 304 42 394 42 l 394 42 q 447 42 491 50 q 534 58 572 71 l 572 71 l 572 20 q 535 6 491 -2 q 447 -10 388 -10 l 388 -10 q 280 -10 208 36 q 135 82 99 165 q 62 248 62 359 l 62 359 q 62 439 85 506 q 108 572 152 621 q 196 670 260 697 q 323 724 405 724 l 405 724 q 457 724 505 714 q 552 704 592 685 l 592 685 l 569 634 q 531 653 490 663 q 449 672 404 672 z m 456 -142 l 456 -142 q 456 -187 422 -213 q 387 -240 326 -240 l 326 -240 q 309 -240 296 -238 q 282 -237 272 -234 l 272 -234 l 272 -195 q 283 -198 297 -199 q 311 -200 327 -200 l 327 -200 q 364 -200 386 -186 q 408 -173 408 -143 l 408 -143 q 408 -114 383 -101 q 357 -88 311 -85 l 311 -85 l 355 0 l 396 0 l 367 -59 q 393 -62 414 -72 q 434 -82 445 -99 q 456 -117 456 -142 z"},"Ċ":{"ha":623,"x_min":62,"x_max":592,"o":"m 404 672 l 404 672 q 338 672 286 650 q 233 627 197 586 q 161 544 142 487 q 123 429 123 359 l 123 359 q 123 263 154 192 q 184 120 244 81 q 304 42 394 42 l 394 42 q 447 42 491 50 q 534 58 572 71 l 572 71 l 572 20 q 535 6 491 -2 q 447 -10 388 -10 l 388 -10 q 280 -10 208 36 q 135 82 99 165 q 62 248 62 359 l 62 359 q 62 439 85 506 q 108 572 152 621 q 196 670 260 697 q 323 724 405 724 l 405 724 q 457 724 505 714 q 552 704 592 685 l 592 685 l 569 634 q 531 653 490 663 q 449 672 404 672 z m 384 911 l 384 911 q 403 911 413 900 q 423 888 423 868 l 423 868 q 423 847 413 836 q 403 824 384 824 l 384 824 q 365 824 355 836 q 345 847 345 868 l 345 868 q 345 888 355 900 q 365 911 384 911 z"},"D":{"ha":711,"x_min":100,"x_max":649,"o":"m 649 364 l 649 364 q 649 244 607 163 q 564 82 481 41 q 398 0 277 0 l 277 0 l 100 0 l 100 714 l 299 714 q 412 714 490 674 q 568 634 609 557 q 649 479 649 364 z m 588 362 l 588 362 q 588 463 555 530 q 522 596 455 630 q 388 663 287 663 l 287 663 l 158 663 l 158 51 l 272 51 q 431 51 510 129 q 588 207 588 362 z"},"Ð":{"ha":711,"x_min":24,"x_max":649,"o":"m 104 714 l 299 714 q 411 714 489 674 q 567 634 608 557 q 649 479 649 364 l 649 364 q 649 244 607 163 q 564 82 481 41 q 398 0 276 0 l 276 0 l 104 0 l 104 329 l 24 329 l 24 380 l 104 380 l 104 714 z m 287 663 l 287 663 l 162 663 l 162 380 l 354 380 l 354 329 l 162 329 l 162 51 l 272 51 q 431 51 510 129 q 588 207 588 362 l 588 362 q 588 463 555 530 q 521 596 455 630 q 388 663 287 663 z"},"Ď":{"ha":711,"x_min":100,"x_max":649,"o":"m 649 364 l 649 364 q 649 244 607 163 q 564 82 481 41 q 398 0 277 0 l 277 0 l 100 0 l 100 714 l 299 714 q 412 714 490 674 q 568 634 609 557 q 649 479 649 364 z m 588 362 l 588 362 q 588 463 555 530 q 522 596 455 630 q 388 663 287 663 l 287 663 l 158 663 l 158 51 l 272 51 q 431 51 510 129 q 588 207 588 362 z m 381 788 l 325 788 q 312 810 291 837 q 270 864 248 891 q 225 918 206 937 l 206 937 l 206 947 l 247 947 q 274 924 302 895 q 329 866 352 838 l 352 838 q 376 866 405 895 q 433 924 460 947 l 460 947 l 501 947 l 501 937 q 483 918 460 891 q 436 864 415 837 q 393 810 381 788 l 381 788 z"},"Đ":{"ha":711,"x_min":24,"x_max":649,"o":"m 104 714 l 299 714 q 411 714 489 674 q 567 634 608 557 q 649 479 649 364 l 649 364 q 649 244 607 163 q 564 82 481 41 q 398 0 276 0 l 276 0 l 104 0 l 104 329 l 24 329 l 24 380 l 104 380 l 104 714 z m 287 663 l 287 663 l 162 663 l 162 380 l 354 380 l 354 329 l 162 329 l 162 51 l 272 51 q 431 51 510 129 q 588 207 588 362 l 588 362 q 588 463 555 530 q 521 596 455 630 q 388 663 287 663 z"},"E":{"ha":553,"x_min":100,"x_max":492,"o":"m 492 52 l 492 0 l 100 0 l 100 714 l 492 714 l 492 662 l 158 662 l 158 401 l 473 401 l 473 349 l 158 349 l 158 52 l 492 52 z"},"É":{"ha":553,"x_min":100,"x_max":492,"o":"m 492 52 l 492 0 l 100 0 l 100 714 l 492 714 l 492 662 l 158 662 l 158 401 l 473 401 l 473 349 l 158 349 l 158 52 l 492 52 z m 442 948 l 442 940 q 431 924 414 905 q 397 885 377 864 q 357 843 337 824 q 316 804 297 788 l 297 788 l 257 788 l 257 797 q 276 817 298 844 q 320 871 341 899 q 362 927 374 948 l 374 948 l 442 948 z"},"Ě":{"ha":553,"x_min":100,"x_max":492,"o":"m 492 52 l 492 0 l 100 0 l 100 714 l 492 714 l 492 662 l 158 662 l 158 401 l 473 401 l 473 349 l 158 349 l 158 52 l 492 52 z m 333 788 l 277 788 q 264 810 243 837 q 222 864 200 891 q 177 918 158 937 l 158 937 l 158 947 l 199 947 q 226 924 254 895 q 281 866 304 838 l 304 838 q 328 866 357 895 q 385 924 412 947 l 412 947 l 453 947 l 453 937 q 435 918 412 891 q 388 864 367 837 q 345 810 333 788 l 333 788 z"},"Ê":{"ha":553,"x_min":100,"x_max":492,"o":"m 492 52 l 492 0 l 100 0 l 100 714 l 492 714 l 492 662 l 158 662 l 158 401 l 473 401 l 473 349 l 158 349 l 158 52 l 492 52 z m 278 947 l 334 947 q 346 926 367 899 q 388 871 412 844 q 435 817 453 797 l 453 797 l 453 788 l 412 788 q 385 810 357 839 q 329 868 305 896 l 305 896 q 281 868 254 840 q 226 811 199 788 l 199 788 l 158 788 l 158 797 q 177 817 200 844 q 223 871 244 899 q 265 926 278 947 l 278 947 z"},"Ë":{"ha":553,"x_min":100,"x_max":492,"o":"m 492 52 l 492 0 l 100 0 l 100 714 l 492 714 l 492 662 l 158 662 l 158 401 l 473 401 l 473 349 l 158 349 l 158 52 l 492 52 z m 178 862 l 178 862 q 178 881 188 892 q 197 902 213 902 l 213 902 q 231 902 240 892 q 249 881 249 862 l 249 862 q 249 843 240 832 q 231 821 213 821 l 213 821 q 197 821 188 832 q 178 843 178 862 z m 364 862 l 364 862 q 364 881 374 892 q 383 902 399 902 l 399 902 q 417 902 426 892 q 435 881 435 862 l 435 862 q 435 843 426 832 q 417 821 399 821 l 399 821 q 383 821 374 832 q 364 843 364 862 z"},"Ė":{"ha":553,"x_min":100,"x_max":492,"o":"m 492 52 l 492 0 l 100 0 l 100 714 l 492 714 l 492 662 l 158 662 l 158 401 l 473 401 l 473 349 l 158 349 l 158 52 l 492 52 z m 306 911 l 306 911 q 325 911 335 900 q 345 888 345 868 l 345 868 q 345 847 335 836 q 325 824 306 824 l 306 824 q 287 824 277 836 q 267 847 267 868 l 267 868 q 267 888 277 900 q 287 911 306 911 z"},"È":{"ha":553,"x_min":100,"x_max":492,"o":"m 492 52 l 492 0 l 100 0 l 100 714 l 492 714 l 492 662 l 158 662 l 158 401 l 473 401 l 473 349 l 158 349 l 158 52 l 492 52 z m 198 948 l 266 948 q 279 927 299 899 q 319 871 342 844 q 365 817 383 797 l 383 797 l 383 788 l 343 788 q 325 804 304 824 q 283 843 263 864 q 243 885 226 905 q 209 924 198 940 l 198 940 l 198 948 z"},"Ē":{"ha":553,"x_min":100,"x_max":492,"o":"m 492 52 l 492 0 l 100 0 l 100 714 l 492 714 l 492 662 l 158 662 l 158 401 l 473 401 l 473 349 l 158 349 l 158 52 l 492 52 z m 167 840 l 443 840 l 443 792 l 167 792 l 167 840 z"},"Ę":{"ha":553,"x_min":100,"x_max":492,"o":"m 492 52 l 492 0 l 100 0 l 100 714 l 492 714 l 492 662 l 158 662 l 158 401 l 473 401 l 473 349 l 158 349 l 158 52 l 492 52 z m 387 -123 l 387 -123 q 387 -149 401 -162 q 414 -176 439 -176 l 439 -176 q 454 -176 467 -174 q 479 -172 487 -170 l 487 -170 l 487 -210 q 476 -213 463 -215 q 449 -218 431 -218 l 431 -218 q 387 -218 363 -195 q 338 -173 338 -130 l 338 -130 q 338 -104 351 -78 q 363 -53 385 -30 q 407 -7 434 13 l 434 13 l 467 0 q 433 -29 410 -59 q 387 -89 387 -123 z"},"F":{"ha":506,"x_min":100,"x_max":493,"o":"m 158 316 l 158 0 l 100 0 l 100 714 l 493 714 l 493 662 l 158 662 l 158 368 l 474 368 l 474 316 l 158 316 z"},"G":{"ha":724,"x_min":62,"x_max":647,"o":"m 387 311 l 387 364 l 647 364 l 647 32 q 594 11 536 1 q 477 -10 410 -10 l 410 -10 q 297 -10 220 34 q 142 77 102 159 q 62 241 62 356 l 62 356 q 62 465 106 548 q 150 631 232 678 q 313 725 428 725 l 428 725 q 486 725 539 715 q 591 704 638 682 l 638 682 l 615 631 q 570 652 522 663 q 474 673 425 673 l 425 673 q 331 673 263 633 q 195 593 159 522 q 123 451 123 357 l 123 357 q 123 254 157 184 q 191 113 258 78 q 324 42 422 42 l 422 42 q 474 42 515 49 q 556 56 589 68 l 589 68 l 589 311 l 387 311 z"},"Ğ":{"ha":724,"x_min":62,"x_max":647,"o":"m 387 311 l 387 364 l 647 364 l 647 32 q 594 11 536 1 q 477 -10 410 -10 l 410 -10 q 297 -10 220 34 q 142 77 102 159 q 62 241 62 356 l 62 356 q 62 465 106 548 q 150 631 232 678 q 313 725 428 725 l 428 725 q 486 725 539 715 q 591 704 638 682 l 638 682 l 615 631 q 570 652 522 663 q 474 673 425 673 l 425 673 q 331 673 263 633 q 195 593 159 522 q 123 451 123 357 l 123 357 q 123 254 157 184 q 191 113 258 78 q 324 42 422 42 l 422 42 q 474 42 515 49 q 556 56 589 68 l 589 68 l 589 311 l 387 311 z m 507 911 l 547 911 q 544 873 527 846 q 509 818 479 803 q 449 788 407 788 l 407 788 q 343 788 309 821 q 274 853 269 911 l 269 911 l 309 911 q 312 885 324 868 q 335 851 357 844 q 378 836 408 836 l 408 836 q 437 836 458 844 q 479 852 492 869 q 504 885 507 911 l 507 911 z"},"Ģ":{"ha":724,"x_min":62,"x_max":647,"o":"m 387 311 l 387 364 l 647 364 l 647 32 q 594 11 536 1 q 477 -10 410 -10 l 410 -10 q 297 -10 220 34 q 142 77 102 159 q 62 241 62 356 l 62 356 q 62 465 106 548 q 150 631 232 678 q 313 725 428 725 l 428 725 q 486 725 539 715 q 591 704 638 682 l 638 682 l 615 631 q 570 652 522 663 q 474 673 425 673 l 425 673 q 331 673 263 633 q 195 593 159 522 q 123 451 123 357 l 123 357 q 123 254 157 184 q 191 113 258 78 q 324 42 422 42 l 422 42 q 474 42 515 49 q 556 56 589 68 l 589 68 l 589 311 l 387 311 z m 452 -61 l 452 -68 q 447 -90 437 -117 q 426 -144 413 -171 q 399 -198 383 -221 l 383 -221 l 350 -221 l 350 -212 q 358 -196 368 -168 q 377 -141 385 -111 q 392 -82 394 -61 l 394 -61 l 452 -61 z"},"Ġ":{"ha":724,"x_min":62,"x_max":647,"o":"m 387 311 l 387 364 l 647 364 l 647 32 q 594 11 536 1 q 477 -10 410 -10 l 410 -10 q 297 -10 220 34 q 142 77 102 159 q 62 241 62 356 l 62 356 q 62 465 106 548 q 150 631 232 678 q 313 725 428 725 l 428 725 q 486 725 539 715 q 591 704 638 682 l 638 682 l 615 631 q 570 652 522 663 q 474 673 425 673 l 425 673 q 331 673 263 633 q 195 593 159 522 q 123 451 123 357 l 123 357 q 123 254 157 184 q 191 113 258 78 q 324 42 422 42 l 422 42 q 474 42 515 49 q 556 56 589 68 l 589 68 l 589 311 l 387 311 z m 408 911 l 408 911 q 427 911 437 900 q 447 888 447 868 l 447 868 q 447 847 437 836 q 427 824 408 824 l 408 824 q 389 824 379 836 q 369 847 369 868 l 369 868 q 369 888 379 900 q 389 911 408 911 z"}}}
